<ttFont>
    <TTGlyph name=".notdef" xMin="205" yMin="0" xMax="1330" yMax="1409">
      <contour>
        <pt x="205" y="1409" on="1"/>
        <pt x="1330" y="1409" on="1"/>
        <pt x="1330" y="0" on="1"/>
        <pt x="205" y="0" on="1"/>
      </contour>
      <contour>
        <pt x="281" y="1333" on="1"/>
        <pt x="281" y="76" on="1"/>
        <pt x="1254" y="76" on="1"/>
        <pt x="1254" y="1333" on="1"/>
      </contour>
    </TTGlyph>
    <TTGlyph name="A" xMin="-42" yMin="0" xMax="1331" yMax="1409">
      <contour>
        <pt x="1039" y="0" on="1"/>
        <pt x="984" y="360" on="1"/>
        <pt x="447" y="360" on="1"/>
        <pt x="252" y="0" on="1"/>
        <pt x="-42" y="0" on="1"/>
        <pt x="745" y="1409" on="1"/>
        <pt x="1093" y="1409" on="1"/>
        <pt x="1331" y="0" on="1"/>
      </contour>
      <contour>
        <pt x="876" y="1192" on="1"/>
        <pt x="855" y="1128" on="0"/>
        <pt x="778" y="980" on="1"/>
        <pt x="566" y="582" on="1"/>
        <pt x="961" y="582" on="1"/>
        <pt x="894" y="1034" on="1"/>
        <pt x="876" y="1169" on="0"/>
      </contour>
    </TTGlyph>
    <TTGlyph name="AE" xMin="-97" yMin="0" xMax="2099" yMax="1409">
      <contour>
        <pt x="837" y="0" on="1"/>
        <pt x="907" y="360" on="1"/>
        <pt x="457" y="360" on="1"/>
        <pt x="215" y="0" on="1"/>
        <pt x="-97" y="0" on="1"/>
        <pt x="868" y="1409" on="1"/>
        <pt x="2099" y="1409" on="1"/>
        <pt x="2054" y="1182" on="1"/>
        <pt x="1353" y="1182" on="1"/>
        <pt x="1284" y="827" on="1"/>
        <pt x="1923" y="827" on="1"/>
        <pt x="1880" y="606" on="1"/>
        <pt x="1241" y="606" on="1"/>
        <pt x="1168" y="227" on="1"/>
        <pt x="1910" y="227" on="1"/>
        <pt x="1866" y="0" on="1"/>
      </contour>
      <contour>
        <pt x="1068" y="1192" on="1"/>
        <pt x="1007" y="1192" on="1"/>
        <pt x="871" y="983" on="1"/>
        <pt x="602" y="582" on="1"/>
        <pt x="950" y="582" on="1"/>
      </contour>
    </TTGlyph>
    <TTGlyph name="AEacute" xMin="-97" yMin="0" xMax="2099" yMax="1808">
      <component glyphName="AE" x="0" y="0" flags="0x204"/>
      <component glyphName="acute.uc" x="996" y="0" flags="0x4"/>
    </TTGlyph>
    <TTGlyph name="Aacute" xMin="-42" yMin="0" xMax="1331" yMax="1808">
      <component glyphName="A" x="0" y="0" flags="0x204"/>
      <component glyphName="acute.uc" x="487" y="0" flags="0x4"/>
    </TTGlyph>
    <TTGlyph name="Abreve" xMin="-42" yMin="0" xMax="1331" yMax="1823">
      <component glyphName="A" x="0" y="0" flags="0x204"/>
      <component glyphName="breve.uc" x="454" y="0" flags="0x4"/>
    </TTGlyph>
    <TTGlyph name="Abreveacute" xMin="-42" yMin="0" xMax="1331" yMax="1835">
      <component glyphName="A" x="0" y="0" flags="0x204"/>
      <component glyphName="breveacute" x="955" y="0" flags="0x4"/>
    </TTGlyph>
    <TTGlyph name="Abrevedotbelow" xMin="-42" yMin="-318" xMax="1334" yMax="1823">
      <component glyphName="A" x="0" y="0" flags="0x204"/>
      <component glyphName="breve.uc" x="467" y="0" flags="0x4"/>
      <component glyphName="dotbelowcomb" x="675" y="0" flags="0x4"/>
    </TTGlyph>
    <TTGlyph name="Abrevegrave" xMin="-42" yMin="0" xMax="1331" yMax="1835">
      <component glyphName="A" x="0" y="0" flags="0x204"/>
      <component glyphName="brevegrave" x="955" y="0" flags="0x4"/>
    </TTGlyph>
    <TTGlyph name="Abrevehookabove" xMin="-42" yMin="0" xMax="1331" yMax="1835">
      <component glyphName="A" x="0" y="0" flags="0x204"/>
      <component glyphName="brevehook" x="955" y="0" flags="0x4"/>
    </TTGlyph>
    <TTGlyph name="Abrevetilde" xMin="-42" yMin="0" xMax="1331" yMax="1835">
      <component glyphName="A" x="0" y="0" flags="0x204"/>
      <component glyphName="brevetilde" x="954" y="0" flags="0x4"/>
    </TTGlyph>
    <TTGlyph name="Acircumflex" xMin="-42" yMin="0" xMax="1331" yMax="1835">
      <component glyphName="A" x="0" y="0" flags="0x204"/>
      <component glyphName="circumflex.uc" x="381" y="0" flags="0x4"/>
    </TTGlyph>
    <TTGlyph name="Acircumflexacute" xMin="-42" yMin="0" xMax="1519" yMax="1835">
      <component glyphName="A" x="0" y="0" flags="0x204"/>
      <component glyphName="circumflexacute" x="735" y="0" flags="0x4"/>
    </TTGlyph>
    <TTGlyph name="Acircumflexdotbelow" xMin="-42" yMin="-318" xMax="1331" yMax="1835">
      <component glyphName="A" x="0" y="0" flags="0x204"/>
      <component glyphName="circumflex.uc" x="375" y="0" flags="0x4"/>
      <component glyphName="dotbelowcomb" x="675" y="0" flags="0x4"/>
    </TTGlyph>
    <TTGlyph name="Acircumflexgrave" xMin="-42" yMin="0" xMax="1331" yMax="1835">
      <component glyphName="A" x="0" y="0" flags="0x204"/>
      <component glyphName="circumflexgrave" x="736" y="0" flags="0x4"/>
    </TTGlyph>
    <TTGlyph name="Acircumflexhookabove" xMin="-42" yMin="0" xMax="1410" yMax="1835">
      <component glyphName="A" x="0" y="0" flags="0x204"/>
      <component glyphName="circumflexhook" x="721" y="0" flags="0x4"/>
    </TTGlyph>
    <TTGlyph name="Acircumflextilde" xMin="-42" yMin="0" xMax="1331" yMax="1835">
      <component glyphName="A" x="0" y="0" flags="0x204"/>
      <component glyphName="circumflextilde" x="956" y="0" flags="0x4"/>
    </TTGlyph>
    <TTGlyph name="Adieresis" xMin="-42" yMin="0" xMax="1331" yMax="1749">
      <component glyphName="A" x="0" y="0" flags="0x204"/>
      <component glyphName="dieresis" x="472" y="331" flags="0x4"/>
    </TTGlyph>
    <TTGlyph name="Adotbelow" xMin="-42" yMin="-318" xMax="1331" yMax="1409">
      <component glyphName="A" x="0" y="0" flags="0x204"/>
      <component glyphName="dotbelowcomb" x="675" y="0" flags="0x4"/>
    </TTGlyph>
    <TTGlyph name="Agrave" xMin="-42" yMin="0" xMax="1331" yMax="1808">
      <component glyphName="A" x="0" y="0" flags="0x204"/>
      <component glyphName="grave.uc" x="349" y="0" flags="0x4"/>
    </TTGlyph>
    <TTGlyph name="Ahookabove" xMin="-42" yMin="0" xMax="1331" yMax="1835">
      <component glyphName="A" x="0" y="0" flags="0x204"/>
      <component glyphName="hookabovecomb" x="1240" y="0" flags="0x4"/>
    </TTGlyph>
    <TTGlyph name="Alpha" xMin="-42" yMin="0" xMax="1331" yMax="1409">
      <component glyphName="A" x="0" y="0" flags="0x204"/>
    </TTGlyph>
    <TTGlyph name="Alphatonos" xMin="-42" yMin="0" xMax="1331" yMax="1410">
      <component glyphName="A" x="0" y="0" flags="0x4"/>
      <component glyphName="tonos" x="-4" y="-98" flags="0x4"/>
    </TTGlyph>
    <TTGlyph name="Amacron" xMin="-42" yMin="0" xMax="1331" yMax="1705">
      <component glyphName="A" x="0" y="0" flags="0x204"/>
      <component glyphName="macron" x="463" y="334" flags="0x4"/>
    </TTGlyph>
    <TTGlyph name="Aogonek" xMin="-42" yMin="-414" xMax="1331" yMax="1409">
      <component glyphName="A" x="0" y="0" flags="0x204"/>
      <component glyphName="ogonek" x="789" y="11" flags="0x4"/>
    </TTGlyph>
    <TTGlyph name="Aring" xMin="-42" yMin="0" xMax="1331" yMax="1792">
      <component glyphName="A" x="0" y="0" flags="0x204"/>
      <component glyphName="ring" x="445" y="148" flags="0x4"/>
    </TTGlyph>
    <TTGlyph name="Aringacute" xMin="-42" yMin="0" xMax="1400" yMax="2109">
      <component glyphName="A" x="0" y="0" flags="0x204"/>
      <component glyphName="ring" x="446" y="147" flags="0x4"/>
      <component glyphName="acute.uc" x="579" y="301" flags="0x4"/>
    </TTGlyph>
    <TTGlyph name="Atilde" xMin="-42" yMin="0" xMax="1347" yMax="1823">
      <component glyphName="A" x="0" y="0" flags="0x204"/>
      <component glyphName="tilde" x="443" y="347" flags="0x4"/>
    </TTGlyph>
    <TTGlyph name="B" xMin="36" yMin="0" xMax="1403" yMax="1409">
      <contour>
        <pt x="310" y="1409" on="1"/>
        <pt x="894" y="1409" on="1"/>
        <pt x="1145" y="1409" on="0"/>
        <pt x="1403" y="1244" on="0"/>
        <pt x="1403" y="1083" on="1"/>
        <pt x="1403" y="946" on="0"/>
        <pt x="1238" y="771" on="0"/>
        <pt x="1079" y="738" on="1"/>
        <pt x="1215" y="715" on="0"/>
        <pt x="1368" y="550" on="0"/>
        <pt x="1368" y="431" on="1"/>
        <pt x="1368" y="220" on="0"/>
        <pt x="1055" y="0" on="0"/>
        <pt x="741" y="0" on="1"/>
        <pt x="36" y="0" on="1"/>
      </contour>
      <contour>
        <pt x="494" y="841" on="1"/>
        <pt x="788" y="841" on="1"/>
        <pt x="963" y="841" on="0"/>
        <pt x="1110" y="933" on="0"/>
        <pt x="1110" y="1038" on="1"/>
        <pt x="1110" y="1118" on="0"/>
        <pt x="996" y="1190" on="0"/>
        <pt x="862" y="1190" on="1"/>
        <pt x="561" y="1190" on="1"/>
      </contour>
      <contour>
        <pt x="373" y="219" on="1"/>
        <pt x="701" y="219" on="1"/>
        <pt x="910" y="219" on="0"/>
        <pt x="1072" y="320" on="0"/>
        <pt x="1072" y="437" on="1"/>
        <pt x="1072" y="527" on="0"/>
        <pt x="936" y="623" on="0"/>
        <pt x="782" y="623" on="1"/>
        <pt x="452" y="623" on="1"/>
      </contour>
    </TTGlyph>
    <TTGlyph name="Beta" xMin="36" yMin="0" xMax="1403" yMax="1409">
      <component glyphName="B" x="0" y="0" flags="0x204"/>
    </TTGlyph>
    <TTGlyph name="C" xMin="100" yMin="-20" xMax="1503" yMax="1430">
      <contour>
        <pt x="401" y="573" on="1"/>
        <pt x="401" y="400" on="0"/>
        <pt x="572" y="211" on="0"/>
        <pt x="731" y="211" on="1"/>
        <pt x="997" y="211" on="0"/>
        <pt x="1149" y="469" on="1"/>
        <pt x="1376" y="352" on="1"/>
        <pt x="1166" y="-20" on="0"/>
        <pt x="711" y="-20" on="1"/>
        <pt x="520" y="-20" on="0"/>
        <pt x="243" y="124" on="0"/>
        <pt x="100" y="391" on="0"/>
        <pt x="100" y="569" on="1"/>
        <pt x="100" y="821" on="0"/>
        <pt x="310" y="1218" on="0"/>
        <pt x="687" y="1430" on="0"/>
        <pt x="927" y="1430" on="1"/>
        <pt x="1157" y="1430" on="0"/>
        <pt x="1452" y="1233" on="0"/>
        <pt x="1503" y="1038" on="1"/>
        <pt x="1229" y="967" on="1"/>
        <pt x="1200" y="1074" on="0"/>
        <pt x="1036" y="1198" on="0"/>
        <pt x="918" y="1198" on="1"/>
        <pt x="676" y="1198" on="0"/>
        <pt x="401" y="862" on="0"/>
      </contour>
    </TTGlyph>
    <TTGlyph name="Cacute" xMin="100" yMin="-20" xMax="1503" yMax="1808">
      <component glyphName="C" x="0" y="0" flags="0x204"/>
      <component glyphName="acute.uc" x="565" y="0" flags="0x4"/>
    </TTGlyph>
    <TTGlyph name="Ccaron" xMin="100" yMin="-20" xMax="1503" yMax="1835">
      <component glyphName="C" x="0" y="0" flags="0x204"/>
      <component glyphName="caron.uc" x="465" y="0" flags="0x4"/>
    </TTGlyph>
    <TTGlyph name="Ccedilla" xMin="81" yMin="-425" xMax="1484" yMax="1430">
      <component glyphName="C" x="-19" y="0" flags="0x204"/>
      <component glyphName="cedilla" x="349" y="0" flags="0x4"/>
    </TTGlyph>
    <TTGlyph name="Ccircumflex" xMin="100" yMin="-20" xMax="1503" yMax="1835">
      <component glyphName="C" x="0" y="0" flags="0x204"/>
      <component glyphName="circumflex.uc" x="432" y="0" flags="0x4"/>
    </TTGlyph>
    <TTGlyph name="Cdotaccent" xMin="100" yMin="-20" xMax="1503" yMax="1747">
      <component glyphName="C" x="0" y="0" flags="0x204"/>
      <component glyphName="dotaccent" x="446" y="263" flags="0x4"/>
    </TTGlyph>
    <TTGlyph name="Chi" xMin="-94" yMin="0" xMax="1468" yMax="1409">
      <component glyphName="X" x="0" y="0" flags="0x204"/>
    </TTGlyph>
    <TTGlyph name="D" xMin="36" yMin="0" xMax="1421" yMax="1409">
      <contour>
        <pt x="734" y="1409" on="1"/>
        <pt x="1067" y="1409" on="0"/>
        <pt x="1421" y="1099" on="0"/>
        <pt x="1421" y="807" on="1"/>
        <pt x="1421" y="571" on="0"/>
        <pt x="1223" y="209" on="0"/>
        <pt x="847" y="0" on="0"/>
        <pt x="614" y="0" on="1"/>
        <pt x="36" y="0" on="1"/>
        <pt x="310" y="1409" on="1"/>
      </contour>
      <contour>
        <pt x="375" y="228" on="1"/>
        <pt x="605" y="228" on="1"/>
        <pt x="765" y="228" on="0"/>
        <pt x="1012" y="365" on="0"/>
        <pt x="1145" y="623" on="0"/>
        <pt x="1145" y="794" on="1"/>
        <pt x="1145" y="983" on="0"/>
        <pt x="934" y="1181" on="0"/>
        <pt x="736" y="1181" on="1"/>
        <pt x="560" y="1181" on="1"/>
      </contour>
    </TTGlyph>
    <TTGlyph name="Dcaron" xMin="36" yMin="0" xMax="1421" yMax="1835">
      <component glyphName="D" x="0" y="0" flags="0x204"/>
      <component glyphName="caron.uc" x="358" y="0" flags="0x4"/>
    </TTGlyph>
    <TTGlyph name="Dcroat" xMin="23" yMin="0" xMax="1421" yMax="1409">
      <component glyphName="Eth" x="0" y="0" flags="0x204"/>
    </TTGlyph>
    <TTGlyph name="Delta" xMin="-64" yMin="0" xMax="1284" yMax="1409">
      <contour>
        <pt x="693" y="1409" on="1"/>
        <pt x="1038" y="1408" on="1"/>
        <pt x="1284" y="226" on="1"/>
        <pt x="1240" y="0" on="1"/>
        <pt x="-64" y="0" on="1"/>
        <pt x="-19" y="226" on="1"/>
      </contour>
      <contour>
        <pt x="995" y="244" on="1"/>
        <pt x="865" y="942" on="1"/>
        <pt x="830" y="1147" on="0"/>
        <pt x="830" y="1189" on="1"/>
        <pt x="824" y="1175" on="0"/>
        <pt x="757" y="1045" on="0"/>
        <pt x="677" y="903" on="0"/>
        <pt x="300" y="244" on="1"/>
      </contour>
    </TTGlyph>
    <TTGlyph name="E" xMin="36" yMin="0" xMax="1417" yMax="1409">
      <contour>
        <pt x="36" y="0" on="1"/>
        <pt x="309" y="1409" on="1"/>
        <pt x="1417" y="1409" on="1"/>
        <pt x="1373" y="1181" on="1"/>
        <pt x="560" y="1181" on="1"/>
        <pt x="491" y="827" on="1"/>
        <pt x="1243" y="827" on="1"/>
        <pt x="1199" y="599" on="1"/>
        <pt x="447" y="599" on="1"/>
        <pt x="375" y="228" on="1"/>
        <pt x="1229" y="228" on="1"/>
        <pt x="1184" y="0" on="1"/>
      </contour>
    </TTGlyph>
    <TTGlyph name="Eacute" xMin="36" yMin="0" xMax="1417" yMax="1808">
      <component glyphName="E" x="0" y="0" flags="0x204"/>
      <component glyphName="acute.uc" x="437" y="0" flags="0x4"/>
    </TTGlyph>
    <TTGlyph name="Ebreve" xMin="36" yMin="0" xMax="1417" yMax="1823">
      <component glyphName="E" x="0" y="0" flags="0x204"/>
      <component glyphName="breve.uc" x="406" y="0" flags="0x4"/>
    </TTGlyph>
    <TTGlyph name="Ecaron" xMin="36" yMin="0" xMax="1417" yMax="1835">
      <component glyphName="E" x="0" y="0" flags="0x204"/>
      <component glyphName="caron.uc" x="387" y="0" flags="0x4"/>
    </TTGlyph>
    <TTGlyph name="Ecircumflex" xMin="36" yMin="0" xMax="1417" yMax="1835">
      <component glyphName="E" x="0" y="0" flags="0x204"/>
      <component glyphName="circumflex.uc" x="347" y="0" flags="0x4"/>
    </TTGlyph>
    <TTGlyph name="Ecircumflexacute" xMin="36" yMin="0" xMax="1474" yMax="1835">
      <component glyphName="E" x="0" y="0" flags="0x204"/>
      <component glyphName="circumflexacute" x="690" y="0" flags="0x4"/>
    </TTGlyph>
    <TTGlyph name="Ecircumflexdotbelow" xMin="36" yMin="-318" xMax="1417" yMax="1835">
      <component glyphName="E" x="0" y="0" flags="0x204"/>
      <component glyphName="circumflex.uc" x="345" y="0" flags="0x4"/>
      <component glyphName="dotbelowcomb" x="645" y="0" flags="0x4"/>
    </TTGlyph>
    <TTGlyph name="Ecircumflexgrave" xMin="36" yMin="0" xMax="1417" yMax="1835">
      <component glyphName="E" x="0" y="0" flags="0x204"/>
      <component glyphName="circumflexgrave" x="710" y="0" flags="0x4"/>
    </TTGlyph>
    <TTGlyph name="Ecircumflexhookabove" xMin="36" yMin="0" xMax="1417" yMax="1835">
      <component glyphName="E" x="0" y="0" flags="0x204"/>
      <component glyphName="circumflexhook" x="670" y="0" flags="0x4"/>
    </TTGlyph>
    <TTGlyph name="Ecircumflextilde" xMin="36" yMin="0" xMax="1417" yMax="1835">
      <component glyphName="E" x="0" y="0" flags="0x204"/>
      <component glyphName="circumflextilde" x="920" y="0" flags="0x4"/>
    </TTGlyph>
    <TTGlyph name="Edieresis" xMin="36" yMin="0" xMax="1417" yMax="1749">
      <component glyphName="E" x="0" y="0" flags="0x204"/>
      <component glyphName="dieresis" x="427" y="331" flags="0x4"/>
    </TTGlyph>
    <TTGlyph name="Edotaccent" xMin="36" yMin="0" xMax="1417" yMax="1754">
      <component glyphName="E" x="0" y="0" flags="0x204"/>
      <component glyphName="dotaccent" x="404" y="270" flags="0x4"/>
    </TTGlyph>
    <TTGlyph name="Edotbelow" xMin="36" yMin="-318" xMax="1417" yMax="1409">
      <component glyphName="E" x="0" y="0" flags="0x204"/>
      <component glyphName="dotbelowcomb" x="658" y="0" flags="0x4"/>
    </TTGlyph>
    <TTGlyph name="Egrave" xMin="36" yMin="0" xMax="1417" yMax="1808">
      <component glyphName="E" x="0" y="0" flags="0x204"/>
      <component glyphName="grave.uc" x="255" y="0" flags="0x4"/>
    </TTGlyph>
    <TTGlyph name="Ehookabove" xMin="36" yMin="0" xMax="1417" yMax="1835">
      <component glyphName="E" x="0" y="0" flags="0x204"/>
      <component glyphName="hookabovecomb" x="1153" y="0" flags="0x4"/>
    </TTGlyph>
    <TTGlyph name="Emacron" xMin="36" yMin="0" xMax="1417" yMax="1705">
      <component glyphName="E" x="0" y="0" flags="0x204"/>
      <component glyphName="macron" x="423" y="334" flags="0x4"/>
    </TTGlyph>
    <TTGlyph name="Eng" xMin="36" yMin="-20" xMax="1456" yMax="1429">
      <contour>
        <pt x="844" y="-20" on="1"/>
        <pt x="576" y="-20" on="0"/>
        <pt x="461" y="214" on="1"/>
        <pt x="708" y="331" on="1"/>
        <pt x="744" y="269" on="0"/>
        <pt x="823" y="212" on="0"/>
        <pt x="874" y="212" on="1"/>
        <pt x="958" y="212" on="0"/>
        <pt x="1047" y="347" on="0"/>
        <pt x="1087" y="553" on="1"/>
        <pt x="1143" y="841" on="1"/>
        <pt x="1168" y="960" on="0"/>
        <pt x="1168" y="1018" on="1"/>
        <pt x="1168" y="1104" on="0"/>
        <pt x="1051" y="1200" on="0"/>
        <pt x="931" y="1200" on="1"/>
        <pt x="835" y="1200" on="0"/>
        <pt x="649" y="1118" on="0"/>
        <pt x="520" y="972" on="0"/>
        <pt x="504" y="891" on="1"/>
        <pt x="330" y="0" on="1"/>
        <pt x="36" y="0" on="1"/>
        <pt x="247" y="1092" on="1"/>
        <pt x="304" y="1409" on="1"/>
        <pt x="594" y="1409" on="1"/>
        <pt x="585" y="1342" on="0"/>
        <pt x="552" y="1158" on="1"/>
        <pt x="556" y="1158" on="1"/>
        <pt x="651" y="1291" on="0"/>
        <pt x="907" y="1429" on="0"/>
        <pt x="1057" y="1429" on="1"/>
        <pt x="1456" y="1429" on="0"/>
        <pt x="1456" y="1065" on="1"/>
        <pt x="1456" y="995" on="0"/>
        <pt x="1436" y="888" on="1"/>
        <pt x="1369" y="542" on="1"/>
        <pt x="1323" y="302" on="0"/>
        <pt x="1201" y="79" on="0"/>
        <pt x="998" y="-20" on="0"/>
      </contour>
    </TTGlyph>
    <TTGlyph name="Eng.alt1" xMin="59" yMin="-425" xMax="1466" yMax="1430">
      <contour>
        <pt x="822" y="-425" on="1"/>
        <pt x="713" y="-425" on="0"/>
        <pt x="610" y="-406" on="1"/>
        <pt x="651" y="-196" on="1"/>
        <pt x="728" y="-207" on="0"/>
        <pt x="776" y="-207" on="1"/>
        <pt x="876" y="-207" on="0"/>
        <pt x="977" y="-94" on="0"/>
        <pt x="1001" y="32" on="1"/>
        <pt x="1161" y="849" on="1"/>
        <pt x="1175" y="921" on="0"/>
        <pt x="1175" y="978" on="1"/>
        <pt x="1175" y="1091" on="0"/>
        <pt x="1055" y="1198" on="0"/>
        <pt x="924" y="1198" on="1"/>
        <pt x="770" y="1198" on="0"/>
        <pt x="550" y="1037" on="0"/>
        <pt x="527" y="912" on="1"/>
        <pt x="350" y="0" on="1"/>
        <pt x="59" y="0" on="1"/>
        <pt x="333" y="1409" on="1"/>
        <pt x="605" y="1409" on="1"/>
        <pt x="572" y="1243" on="1"/>
        <pt x="657" y="1334" on="0"/>
        <pt x="897" y="1430" on="0"/>
        <pt x="1038" y="1430" on="1"/>
        <pt x="1247" y="1430" on="0"/>
        <pt x="1466" y="1215" on="0"/>
        <pt x="1466" y="1015" on="1"/>
        <pt x="1466" y="932" on="0"/>
        <pt x="1448" y="838" on="1"/>
        <pt x="1282" y="-18" on="1"/>
        <pt x="1242" y="-223" on="0"/>
        <pt x="1019" y="-425" on="0"/>
      </contour>
    </TTGlyph>
    <TTGlyph name="Eng.alt2" xMin="36" yMin="-425" xMax="1514" yMax="1409">
      <contour>
        <pt x="870" y="-425" on="1"/>
        <pt x="775" y="-425" on="0"/>
        <pt x="704" y="-406" on="1"/>
        <pt x="740" y="-218" on="1"/>
        <pt x="813" y="-222" on="1"/>
        <pt x="861" y="-222" on="0"/>
        <pt x="916" y="-190" on="0"/>
        <pt x="951" y="-118" on="0"/>
        <pt x="972" y="0" on="1"/>
        <pt x="510" y="1131" on="1"/>
        <pt x="487" y="969" on="0"/>
        <pt x="472" y="892" on="1"/>
        <pt x="298" y="0" on="1"/>
        <pt x="36" y="0" on="1"/>
        <pt x="310" y="1409" on="1"/>
        <pt x="660" y="1409" on="1"/>
        <pt x="1059" y="411" on="1"/>
        <pt x="1252" y="1409" on="1"/>
        <pt x="1514" y="1409" on="1"/>
        <pt x="1214" y="-128" on="1"/>
        <pt x="1185" y="-272" on="0"/>
        <pt x="1010" y="-425" on="0"/>
      </contour>
    </TTGlyph>
    <TTGlyph name="Eng.alt3" xMin="111" yMin="-22" xMax="1416" yMax="1430">
      <contour>
        <pt x="404" y="485" on="1"/>
        <pt x="402" y="453" on="0"/>
        <pt x="402" y="442" on="1"/>
        <pt x="402" y="335" on="0"/>
        <pt x="553" y="214" on="0"/>
        <pt x="690" y="214" on="1"/>
        <pt x="850" y="214" on="0"/>
        <pt x="1029" y="396" on="0"/>
        <pt x="1075" y="624" on="1"/>
        <pt x="1115" y="823" on="1"/>
        <pt x="1127" y="883" on="0"/>
        <pt x="1127" y="936" on="1"/>
        <pt x="1127" y="1063" on="0"/>
        <pt x="988" y="1198" on="0"/>
        <pt x="854" y="1198" on="1"/>
        <pt x="706" y="1198" on="0"/>
        <pt x="512" y="1044" on="0"/>
        <pt x="487" y="912" on="1"/>
        <pt x="446" y="700" on="1"/>
        <pt x="155" y="700" on="1"/>
        <pt x="293" y="1409" on="1"/>
        <pt x="565" y="1409" on="1"/>
        <pt x="532" y="1243" on="1"/>
        <pt x="617" y="1334" on="0"/>
        <pt x="827" y="1430" on="0"/>
        <pt x="968" y="1430" on="1"/>
        <pt x="1182" y="1430" on="0"/>
        <pt x="1416" y="1197" on="0"/>
        <pt x="1416" y="986" on="1"/>
        <pt x="1416" y="924" on="0"/>
        <pt x="1395" y="790" on="0"/>
        <pt x="1314" y="411" on="0"/>
        <pt x="1191" y="172" on="0"/>
        <pt x="1003" y="32" on="0"/>
        <pt x="735" y="-22" on="0"/>
        <pt x="667" y="-13" on="1"/>
        <pt x="397" y="-13" on="0"/>
        <pt x="111" y="219" on="0"/>
        <pt x="111" y="436" on="1"/>
        <pt x="113" y="485" on="1"/>
      </contour>
    </TTGlyph>
    <TTGlyph name="Eogonek" xMin="36" yMin="-425" xMax="1417" yMax="1409">
      <component glyphName="E" x="0" y="0" flags="0x204"/>
      <component glyphName="ogonek" x="581" y="0" flags="0x4"/>
    </TTGlyph>
    <TTGlyph name="Epsilon" xMin="36" yMin="0" xMax="1417" yMax="1409">
      <component glyphName="E" x="0" y="0" flags="0x204"/>
    </TTGlyph>
    <TTGlyph name="Epsilontonos" xMin="153" yMin="0" xMax="1796" yMax="1410">
      <component glyphName="E" x="379" y="0" flags="0x4"/>
      <component glyphName="tonos" x="0" y="-98" flags="0x4"/>
    </TTGlyph>
    <TTGlyph name="Eta" xMin="36" yMin="0" xMax="1514" yMax="1409">
      <component glyphName="H" x="0" y="0" flags="0x204"/>
    </TTGlyph>
    <TTGlyph name="Etatonos" xMin="153" yMin="0" xMax="1890" yMax="1410">
      <component glyphName="H" x="376" y="0" flags="0x4"/>
      <component glyphName="tonos" x="0" y="-98" flags="0x4"/>
    </TTGlyph>
    <TTGlyph name="Eth" xMin="23" yMin="0" xMax="1421" yMax="1409">
      <contour>
        <pt x="734" y="1409" on="1"/>
        <pt x="1067" y="1409" on="0"/>
        <pt x="1421" y="1099" on="0"/>
        <pt x="1421" y="807" on="1"/>
        <pt x="1421" y="571" on="0"/>
        <pt x="1223" y="209" on="0"/>
        <pt x="847" y="0" on="0"/>
        <pt x="614" y="0" on="1"/>
        <pt x="36" y="0" on="1"/>
        <pt x="151" y="594" on="1"/>
        <pt x="23" y="594" on="1"/>
        <pt x="65" y="813" on="1"/>
        <pt x="194" y="813" on="1"/>
        <pt x="310" y="1409" on="1"/>
      </contour>
      <contour>
        <pt x="488" y="813" on="1"/>
        <pt x="845" y="813" on="1"/>
        <pt x="801" y="594" on="1"/>
        <pt x="446" y="594" on="1"/>
        <pt x="375" y="228" on="1"/>
        <pt x="605" y="228" on="1"/>
        <pt x="765" y="228" on="0"/>
        <pt x="1012" y="365" on="0"/>
        <pt x="1145" y="623" on="0"/>
        <pt x="1145" y="794" on="1"/>
        <pt x="1145" y="983" on="0"/>
        <pt x="934" y="1181" on="0"/>
        <pt x="736" y="1181" on="1"/>
        <pt x="560" y="1181" on="1"/>
      </contour>
    </TTGlyph>
    <TTGlyph name="Etilde" xMin="36" yMin="0" xMax="1417" yMax="1822">
      <component glyphName="E" x="0" y="0" flags="0x204"/>
      <component glyphName="tilde.uc" x="373" y="0" flags="0x4"/>
    </TTGlyph>
    <TTGlyph name="Euro" xMin="28" yMin="-18" xMax="1213" yMax="1430">
      <contour>
        <pt x="803" y="1210" on="1"/>
        <pt x="696" y="1210" on="0"/>
        <pt x="570" y="1062" on="0"/>
        <pt x="534" y="915" on="1"/>
        <pt x="830" y="915" on="1"/>
        <pt x="801" y="766" on="1"/>
        <pt x="500" y="766" on="1"/>
        <pt x="486" y="713" on="0"/>
        <pt x="481" y="659" on="1"/>
        <pt x="791" y="659" on="1"/>
        <pt x="762" y="510" on="1"/>
        <pt x="458" y="510" on="1"/>
        <pt x="455" y="441" on="1"/>
        <pt x="455" y="316" on="0"/>
        <pt x="543" y="199" on="0"/>
        <pt x="619" y="199" on="1"/>
        <pt x="754" y="199" on="0"/>
        <pt x="811" y="327" on="1"/>
        <pt x="1054" y="287" on="1"/>
        <pt x="1003" y="135" on="0"/>
        <pt x="783" y="-18" on="0"/>
        <pt x="619" y="-18" on="1"/>
        <pt x="393" y="-18" on="0"/>
        <pt x="169" y="250" on="0"/>
        <pt x="169" y="510" on="1"/>
        <pt x="28" y="510" on="1"/>
        <pt x="59" y="659" on="1"/>
        <pt x="186" y="659" on="1"/>
        <pt x="195" y="727" on="0"/>
        <pt x="205" y="766" on="1"/>
        <pt x="79" y="766" on="1"/>
        <pt x="111" y="915" on="1"/>
        <pt x="245" y="915" on="1"/>
        <pt x="319" y="1176" on="0"/>
        <pt x="614" y="1430" on="0"/>
        <pt x="848" y="1430" on="1"/>
        <pt x="1193" y="1430" on="0"/>
        <pt x="1213" y="1130" on="1"/>
        <pt x="956" y="1083" on="1"/>
        <pt x="945" y="1148" on="0"/>
        <pt x="878" y="1210" on="0"/>
      </contour>
    </TTGlyph>
    <TTGlyph name="F" xMin="36" yMin="0" xMax="1295" yMax="1409">
      <contour>
        <pt x="560" y="1181" on="1"/>
        <pt x="475" y="745" on="1"/>
        <pt x="1143" y="745" on="1"/>
        <pt x="1099" y="517" on="1"/>
        <pt x="431" y="517" on="1"/>
        <pt x="330" y="0" on="1"/>
        <pt x="36" y="0" on="1"/>
        <pt x="309" y="1409" on="1"/>
        <pt x="1295" y="1409" on="1"/>
        <pt x="1251" y="1181" on="1"/>
      </contour>
    </TTGlyph>
    <TTGlyph name="G" xMin="100" yMin="-19" xMax="1530" yMax="1430">
      <contour>
        <pt x="740" y="-19" on="1"/>
        <pt x="440" y="-19" on="0"/>
        <pt x="100" y="298" on="0"/>
        <pt x="100" y="583" on="1"/>
        <pt x="100" y="833" on="0"/>
        <pt x="309" y="1221" on="0"/>
        <pt x="692" y="1430" on="0"/>
        <pt x="942" y="1430" on="1"/>
        <pt x="1170" y="1430" on="0"/>
        <pt x="1477" y="1224" on="0"/>
        <pt x="1530" y="1039" on="1"/>
        <pt x="1248" y="961" on="1"/>
        <pt x="1219" y="1074" on="0"/>
        <pt x="1053" y="1198" on="0"/>
        <pt x="926" y="1198" on="1"/>
        <pt x="767" y="1198" on="0"/>
        <pt x="527" y="1048" on="0"/>
        <pt x="399" y="772" on="0"/>
        <pt x="399" y="592" on="1"/>
        <pt x="399" y="414" on="0"/>
        <pt x="590" y="211" on="0"/>
        <pt x="764" y="211" on="1"/>
        <pt x="872" y="211" on="0"/>
        <pt x="1076" y="263" on="0"/>
        <pt x="1148" y="307" on="1"/>
        <pt x="1194" y="535" on="1"/>
        <pt x="852" y="535" on="1"/>
        <pt x="891" y="743" on="1"/>
        <pt x="1505" y="743" on="1"/>
        <pt x="1400" y="175" on="1"/>
        <pt x="1244" y="68" on="0"/>
        <pt x="932" y="-19" on="0"/>
      </contour>
    </TTGlyph>
    <TTGlyph name="Gamma" xMin="36" yMin="1" xMax="1330" yMax="1409">
      <contour>
        <pt x="1330" y="1409" on="1"/>
        <pt x="1286" y="1181" on="1"/>
        <pt x="560" y="1181" on="1"/>
        <pt x="331" y="1" on="1"/>
        <pt x="36" y="1" on="1"/>
        <pt x="309" y="1409" on="1"/>
      </contour>
    </TTGlyph>
    <TTGlyph name="Gbreve" xMin="100" yMin="-19" xMax="1530" yMax="1823">
      <component glyphName="G" x="0" y="0" flags="0x204"/>
      <component glyphName="breve.uc" x="511" y="0" flags="0x4"/>
    </TTGlyph>
    <TTGlyph name="Gcircumflex" xMin="100" yMin="-19" xMax="1530" yMax="1835">
      <component glyphName="G" x="0" y="0" flags="0x204"/>
      <component glyphName="circumflex.uc" x="422" y="0" flags="0x4"/>
    </TTGlyph>
    <TTGlyph name="Gcommaaccent" xMin="100" yMin="-455" xMax="1530" yMax="1430">
      <component glyphName="G" x="0" y="0" flags="0x204"/>
      <component glyphName="commaaccent" x="518" y="0" flags="0x4"/>
    </TTGlyph>
    <TTGlyph name="Gdotaccent" xMin="100" yMin="-19" xMax="1530" yMax="1754">
      <component glyphName="G" x="0" y="0" flags="0x204"/>
      <component glyphName="dotaccent" x="483" y="270" flags="0x4"/>
    </TTGlyph>
    <TTGlyph name="H" xMin="36" yMin="0" xMax="1514" yMax="1409">
      <contour>
        <pt x="956" y="0" on="1"/>
        <pt x="1074" y="604" on="1"/>
        <pt x="448" y="604" on="1"/>
        <pt x="330" y="0" on="1"/>
        <pt x="36" y="0" on="1"/>
        <pt x="309" y="1409" on="1"/>
        <pt x="604" y="1409" on="1"/>
        <pt x="495" y="848" on="1"/>
        <pt x="1121" y="848" on="1"/>
        <pt x="1230" y="1409" on="1"/>
        <pt x="1514" y="1409" on="1"/>
        <pt x="1240" y="0" on="1"/>
      </contour>
    </TTGlyph>
    <TTGlyph name="Hbar" xMin="36" yMin="0" xMax="1599" yMax="1409">
      <contour>
        <pt x="956" y="0" on="1"/>
        <pt x="1074" y="604" on="1"/>
        <pt x="448" y="604" on="1"/>
        <pt x="330" y="0" on="1"/>
        <pt x="36" y="0" on="1"/>
        <pt x="238" y="1045" on="1"/>
        <pt x="115" y="1045" on="1"/>
        <pt x="148" y="1215" on="1"/>
        <pt x="271" y="1215" on="1"/>
        <pt x="309" y="1409" on="1"/>
        <pt x="604" y="1409" on="1"/>
        <pt x="566" y="1215" on="1"/>
        <pt x="1192" y="1215" on="1"/>
        <pt x="1230" y="1409" on="1"/>
        <pt x="1514" y="1409" on="1"/>
        <pt x="1476" y="1215" on="1"/>
        <pt x="1599" y="1215" on="1"/>
        <pt x="1566" y="1045" on="1"/>
        <pt x="1443" y="1045" on="1"/>
        <pt x="1240" y="0" on="1"/>
      </contour>
      <contour>
        <pt x="1121" y="848" on="1"/>
        <pt x="1159" y="1045" on="1"/>
        <pt x="533" y="1045" on="1"/>
        <pt x="495" y="848" on="1"/>
      </contour>
    </TTGlyph>
    <TTGlyph name="Hcircumflex" xMin="36" yMin="0" xMax="1514" yMax="1835">
      <component glyphName="H" x="0" y="0" flags="0x204"/>
      <component glyphName="circumflex.uc" x="403" y="0" flags="0x4"/>
    </TTGlyph>
    <TTGlyph name="I" xMin="36" yMin="0" xMax="604" yMax="1409">
      <contour>
        <pt x="36" y="0" on="1"/>
        <pt x="309" y="1409" on="1"/>
        <pt x="604" y="1409" on="1"/>
        <pt x="330" y="0" on="1"/>
      </contour>
    </TTGlyph>
    <TTGlyph name="IJ" xMin="36" yMin="-20" xMax="1638" yMax="1409">
      <component glyphName="I" x="0" y="0" flags="0x4"/>
      <component glyphName="J" x="464" y="0" flags="0x4"/>
    </TTGlyph>
    <TTGlyph name="Iacute" xMin="36" yMin="0" xMax="870" yMax="1808">
      <component glyphName="I" x="0" y="0" flags="0x204"/>
      <component glyphName="acute.uc" x="49" y="0" flags="0x4"/>
    </TTGlyph>
    <TTGlyph name="Ibreve" xMin="36" yMin="0" xMax="867" yMax="1823">
      <component glyphName="I" x="0" y="0" flags="0x204"/>
      <component glyphName="breve.uc" x="0" y="0" flags="0x4"/>
    </TTGlyph>
    <TTGlyph name="Icircumflex" xMin="36" yMin="0" xMax="846" yMax="1835">
      <component glyphName="I" x="0" y="0" flags="0x204"/>
      <component glyphName="circumflex.uc" x="-61" y="0" flags="0x4"/>
    </TTGlyph>
    <TTGlyph name="Idieresis" xMin="36" yMin="0" xMax="844" yMax="1749">
      <component glyphName="I" x="0" y="0" flags="0x204"/>
      <component glyphName="dieresis" x="16" y="331" flags="0x4"/>
    </TTGlyph>
    <TTGlyph name="Idotaccent" xMin="36" yMin="0" xMax="661" yMax="1754">
      <component glyphName="I" x="0" y="0" flags="0x204"/>
      <component glyphName="dotaccent" x="9" y="270" flags="0x4"/>
    </TTGlyph>
    <TTGlyph name="Idotbelow" xMin="-17" yMin="-318" xMax="604" yMax="1409">
      <component glyphName="I" x="0" y="0" flags="0x204"/>
      <component glyphName="dotbelowcomb" x="169" y="0" flags="0x4"/>
    </TTGlyph>
    <TTGlyph name="Igrave" xMin="36" yMin="0" xMax="628" yMax="1808">
      <component glyphName="I" x="0" y="0" flags="0x204"/>
      <component glyphName="grave.uc" x="-123" y="0" flags="0x4"/>
    </TTGlyph>
    <TTGlyph name="Ihookabove" xMin="36" yMin="0" xMax="755" yMax="1835">
      <component glyphName="I" x="0" y="0" flags="0x204"/>
      <component glyphName="hookabovecomb" x="770" y="0" flags="0x4"/>
    </TTGlyph>
    <TTGlyph name="Imacron" xMin="36" yMin="0" xMax="793" yMax="1705">
      <component glyphName="I" x="0" y="0" flags="0x204"/>
      <component glyphName="macron" x="3" y="334" flags="0x4"/>
    </TTGlyph>
    <TTGlyph name="Iogonek" xMin="-23" yMin="-425" xMax="604" yMax="1409">
      <component glyphName="I" x="0" y="0" flags="0x204"/>
      <component glyphName="ogonek" x="-129" y="0" flags="0x4"/>
    </TTGlyph>
    <TTGlyph name="Iota" xMin="36" yMin="0" xMax="604" yMax="1409">
      <component glyphName="I" x="0" y="0" flags="0x204"/>
    </TTGlyph>
    <TTGlyph name="Iotadieresis" xMin="36" yMin="0" xMax="844" yMax="1749">
      <component glyphName="I" x="0" y="0" flags="0x204"/>
      <component glyphName="dieresis" x="16" y="331" flags="0x4"/>
    </TTGlyph>
    <TTGlyph name="Iotatonos" xMin="153" yMin="0" xMax="1005" yMax="1410">
      <component glyphName="I" x="401" y="0" flags="0x4"/>
      <component glyphName="tonos" x="0" y="-98" flags="0x4"/>
    </TTGlyph>
    <TTGlyph name="Itilde" xMin="36" yMin="0" xMax="905" yMax="1822">
      <component glyphName="I" x="0" y="0" flags="0x204"/>
      <component glyphName="tilde.uc" x="-42" y="0" flags="0x4"/>
    </TTGlyph>
    <TTGlyph name="J" xMin="25" yMin="-20" xMax="1174" yMax="1409">
      <contour>
        <pt x="480" y="-20" on="1"/>
        <pt x="290" y="-20" on="0"/>
        <pt x="63" y="172" on="0"/>
        <pt x="25" y="379" on="1"/>
        <pt x="292" y="437" on="1"/>
        <pt x="338" y="211" on="0"/>
        <pt x="499" y="211" on="1"/>
        <pt x="553" y="211" on="0"/>
        <pt x="627" y="259" on="0"/>
        <pt x="675" y="347" on="0"/>
        <pt x="693" y="440" on="1"/>
        <pt x="836" y="1178" on="1"/>
        <pt x="555" y="1178" on="1"/>
        <pt x="599" y="1409" on="1"/>
        <pt x="1174" y="1409" on="1"/>
        <pt x="981" y="423" on="1"/>
        <pt x="936" y="192" on="0"/>
        <pt x="696" y="-20" on="0"/>
      </contour>
    </TTGlyph>
    <TTGlyph name="Jcircumflex" xMin="25" yMin="-20" xMax="1282" yMax="1835">
      <component glyphName="J" x="0" y="0" flags="0x204"/>
      <component glyphName="circumflex.uc" x="375" y="0" flags="0x4"/>
    </TTGlyph>
    <TTGlyph name="K" xMin="36" yMin="0" xMax="1603" yMax="1409">
      <contour>
        <pt x="995" y="0" on="1"/>
        <pt x="640" y="640" on="1"/>
        <pt x="429" y="517" on="1"/>
        <pt x="328" y="0" on="1"/>
        <pt x="36" y="0" on="1"/>
        <pt x="309" y="1409" on="1"/>
        <pt x="604" y="1409" on="1"/>
        <pt x="474" y="770" on="1"/>
        <pt x="1234" y="1409" on="1"/>
        <pt x="1603" y="1409" on="1"/>
        <pt x="856" y="793" on="1"/>
        <pt x="1321" y="0" on="1"/>
      </contour>
    </TTGlyph>
    <TTGlyph name="Kappa" xMin="36" yMin="0" xMax="1603" yMax="1409">
      <component glyphName="K" x="0" y="0" flags="0x204"/>
    </TTGlyph>
    <TTGlyph name="Kcommaaccent" xMin="36" yMin="-455" xMax="1603" yMax="1409">
      <component glyphName="K" x="0" y="0" flags="0x204"/>
      <component glyphName="commaaccent" x="388" y="0" flags="0x4"/>
    </TTGlyph>
    <TTGlyph name="L" xMin="36" yMin="0" xMax="1131" yMax="1409">
      <contour>
        <pt x="36" y="0" on="1"/>
        <pt x="309" y="1409" on="1"/>
        <pt x="604" y="1409" on="1"/>
        <pt x="375" y="228" on="1"/>
        <pt x="1131" y="228" on="1"/>
        <pt x="1086" y="0" on="1"/>
      </contour>
    </TTGlyph>
    <TTGlyph name="Lacute" xMin="36" yMin="0" xMax="1131" yMax="1808">
      <component glyphName="L" x="0" y="0" flags="0x204"/>
      <component glyphName="acute.uc" x="173" y="0" flags="0x4"/>
    </TTGlyph>
    <TTGlyph name="Lambda" xMin="-93" yMin="1" xMax="1244" yMax="1410">
      <contour>
        <pt x="1244" y="1" on="1"/>
        <pt x="949" y="1" on="1"/>
        <pt x="832" y="886" on="1"/>
        <pt x="815" y="1039" on="0"/>
        <pt x="812" y="1152" on="1"/>
        <pt x="772" y="1064" on="1"/>
        <pt x="686" y="886" on="1"/>
        <pt x="224" y="1" on="1"/>
        <pt x="-93" y="1" on="1"/>
        <pt x="701" y="1410" on="1"/>
        <pt x="1000" y="1410" on="1"/>
      </contour>
    </TTGlyph>
    <TTGlyph name="Lcaron" xMin="36" yMin="0" xMax="1138" yMax="1409">
      <component glyphName="L" x="0" y="0" flags="0x4"/>
      <component glyphName="caroncommaaccent" x="742" y="0" flags="0x4"/>
    </TTGlyph>
    <TTGlyph name="Lcommaaccent" xMin="36" yMin="-455" xMax="1131" yMax="1409">
      <component glyphName="L" x="0" y="0" flags="0x204"/>
      <component glyphName="commaaccent" x="318" y="0" flags="0x4"/>
    </TTGlyph>
    <TTGlyph name="Ldot" xMin="36" yMin="0" xMax="1131" yMax="1409">
      <component glyphName="L" x="0" y="0" flags="0x204"/>
      <component glyphName="dotaccent" x="390" y="-626" flags="0x4"/>
    </TTGlyph>
    <TTGlyph name="Lslash" xMin="-19" yMin="0" xMax="1131" yMax="1409">
      <contour>
        <pt x="36" y="0" on="1"/>
        <pt x="129" y="482" on="1"/>
        <pt x="-19" y="418" on="1"/>
        <pt x="25" y="643" on="1"/>
        <pt x="173" y="708" on="1"/>
        <pt x="309" y="1409" on="1"/>
        <pt x="604" y="1409" on="1"/>
        <pt x="495" y="848" on="1"/>
        <pt x="831" y="997" on="1"/>
        <pt x="788" y="774" on="1"/>
        <pt x="452" y="625" on="1"/>
        <pt x="375" y="228" on="1"/>
        <pt x="1131" y="228" on="1"/>
        <pt x="1086" y="0" on="1"/>
      </contour>
    </TTGlyph>
    <TTGlyph name="M" xMin="36" yMin="0" xMax="1742" yMax="1409">
      <contour>
        <pt x="1206" y="0" on="1"/>
        <pt x="1378" y="884" on="1"/>
        <pt x="1404" y="1014" on="0"/>
        <pt x="1452" y="1206" on="1"/>
        <pt x="1383" y="1055" on="1"/>
        <pt x="1304" y="881" on="0"/>
        <pt x="1269" y="816" on="1"/>
        <pt x="857" y="0" on="1"/>
        <pt x="647" y="0" on="1"/>
        <pt x="553" y="819" on="1"/>
        <pt x="522" y="1110" on="0"/>
        <pt x="513" y="1206" on="1"/>
        <pt x="485" y="962" on="0"/>
        <pt x="470" y="887" on="1"/>
        <pt x="298" y="0" on="1"/>
        <pt x="36" y="0" on="1"/>
        <pt x="310" y="1409" on="1"/>
        <pt x="705" y="1409" on="1"/>
        <pt x="793" y="621" on="1"/>
        <pt x="818" y="345" on="1"/>
        <pt x="854" y="425" on="0"/>
        <pt x="916" y="555" on="0"/>
        <pt x="1349" y="1409" on="1"/>
        <pt x="1742" y="1409" on="1"/>
        <pt x="1468" y="0" on="1"/>
      </contour>
    </TTGlyph>
    <TTGlyph name="Mu" xMin="36" yMin="0" xMax="1742" yMax="1409">
      <component glyphName="M" x="0" y="0" flags="0x204"/>
    </TTGlyph>
    <TTGlyph name="N" xMin="36" yMin="0" xMax="1514" yMax="1409">
      <contour>
        <pt x="884" y="0" on="1"/>
        <pt x="510" y="1131" on="1"/>
        <pt x="487" y="969" on="0"/>
        <pt x="472" y="892" on="1"/>
        <pt x="298" y="0" on="1"/>
        <pt x="36" y="0" on="1"/>
        <pt x="310" y="1409" on="1"/>
        <pt x="660" y="1409" on="1"/>
        <pt x="1037" y="268" on="1"/>
        <pt x="1049" y="350" on="1"/>
        <pt x="1060" y="433" on="0"/>
        <pt x="1078" y="524" on="1"/>
        <pt x="1252" y="1409" on="1"/>
        <pt x="1514" y="1409" on="1"/>
        <pt x="1240" y="0" on="1"/>
      </contour>
    </TTGlyph>
    <TTGlyph name="Nacute" xMin="36" yMin="0" xMax="1514" yMax="1808">
      <component glyphName="N" x="0" y="0" flags="0x204"/>
      <component glyphName="acute.uc" x="487" y="0" flags="0x4"/>
    </TTGlyph>
    <TTGlyph name="Ncaron" xMin="36" yMin="0" xMax="1514" yMax="1835">
      <component glyphName="N" x="0" y="0" flags="0x204"/>
      <component glyphName="caron.uc" x="452" y="0" flags="0x4"/>
    </TTGlyph>
    <TTGlyph name="Ncommaaccent" xMin="36" yMin="-455" xMax="1514" yMax="1409">
      <component glyphName="N" x="0" y="0" flags="0x204"/>
      <component glyphName="commaaccent" x="392" y="0" flags="0x4"/>
    </TTGlyph>
    <TTGlyph name="Ntilde" xMin="36" yMin="0" xMax="1514" yMax="1823">
      <component glyphName="N" x="0" y="0" flags="0x204"/>
      <component glyphName="tilde" x="476" y="347" flags="0x4"/>
    </TTGlyph>
    <TTGlyph name="Nu" xMin="36" yMin="0" xMax="1514" yMax="1409">
      <component glyphName="N" x="0" y="0" flags="0x204"/>
    </TTGlyph>
    <TTGlyph name="O" xMin="100" yMin="-20" xMax="1559" yMax="1430">
      <contour>
        <pt x="928" y="1430" on="1"/>
        <pt x="1221" y="1430" on="0"/>
        <pt x="1559" y="1119" on="0"/>
        <pt x="1559" y="851" on="1"/>
        <pt x="1559" y="604" on="0"/>
        <pt x="1348" y="197" on="0"/>
        <pt x="970" y="-20" on="0"/>
        <pt x="727" y="-20" on="1"/>
        <pt x="534" y="-20" on="0"/>
        <pt x="249" y="124" on="0"/>
        <pt x="100" y="393" on="0"/>
        <pt x="100" y="573" on="1"/>
        <pt x="100" y="808" on="0"/>
        <pt x="311" y="1215" on="0"/>
        <pt x="685" y="1430" on="0"/>
      </contour>
      <contour>
        <pt x="914" y="1197" on="1"/>
        <pt x="752" y="1197" on="0"/>
        <pt x="524" y="1047" on="0"/>
        <pt x="400" y="745" on="0"/>
        <pt x="400" y="581" on="1"/>
        <pt x="400" y="397" on="0"/>
        <pt x="580" y="212" on="0"/>
        <pt x="741" y="212" on="1"/>
        <pt x="902" y="212" on="0"/>
        <pt x="1130" y="362" on="0"/>
        <pt x="1255" y="658" on="0"/>
        <pt x="1255" y="827" on="1"/>
        <pt x="1255" y="1003" on="0"/>
        <pt x="1080" y="1197" on="0"/>
      </contour>
    </TTGlyph>
    <TTGlyph name="OE" xMin="103" yMin="-10" xMax="2099" yMax="1420">
      <contour>
        <pt x="917" y="0" on="1"/>
        <pt x="854" y="-10" on="0"/>
        <pt x="706" y="-10" on="1"/>
        <pt x="420" y="-10" on="0"/>
        <pt x="103" y="295" on="0"/>
        <pt x="103" y="573" on="1"/>
        <pt x="103" y="743" on="0"/>
        <pt x="220" y="1058" on="0"/>
        <pt x="449" y="1295" on="0"/>
        <pt x="765" y="1420" on="0"/>
        <pt x="949" y="1420" on="1"/>
        <pt x="1028" y="1420" on="0"/>
        <pt x="1087" y="1415" on="1"/>
        <pt x="1150" y="1409" on="1"/>
        <pt x="2099" y="1409" on="1"/>
        <pt x="2055" y="1182" on="1"/>
        <pt x="1388" y="1182" on="1"/>
        <pt x="1319" y="827" on="1"/>
        <pt x="1925" y="827" on="1"/>
        <pt x="1882" y="606" on="1"/>
        <pt x="1276" y="606" on="1"/>
        <pt x="1203" y="231" on="1"/>
        <pt x="1911" y="231" on="1"/>
        <pt x="1866" y="0" on="1"/>
      </contour>
      <contour>
        <pt x="736" y="222" on="1"/>
        <pt x="838" y="222" on="0"/>
        <pt x="909" y="242" on="1"/>
        <pt x="1089" y="1169" on="1"/>
        <pt x="1058" y="1179" on="0"/>
        <pt x="960" y="1188" on="0"/>
        <pt x="939" y="1188" on="1"/>
        <pt x="812" y="1188" on="0"/>
        <pt x="617" y="1105" on="0"/>
        <pt x="477" y="935" on="0"/>
        <pt x="403" y="690" on="0"/>
        <pt x="403" y="563" on="1"/>
        <pt x="403" y="399" on="0"/>
        <pt x="575" y="222" on="0"/>
      </contour>
    </TTGlyph>
    <TTGlyph name="Oacute" xMin="100" yMin="-20" xMax="1559" yMax="1808">
      <component glyphName="O" x="0" y="0" flags="0x204"/>
      <component glyphName="acute.uc" x="580" y="0" flags="0x4"/>
    </TTGlyph>
    <TTGlyph name="Obreve" xMin="100" yMin="-20" xMax="1559" yMax="1823">
      <component glyphName="O" x="0" y="0" flags="0x204"/>
      <component glyphName="breve.uc" x="488" y="0" flags="0x4"/>
    </TTGlyph>
    <TTGlyph name="Ocircumflex" xMin="100" yMin="-20" xMax="1559" yMax="1835">
      <component glyphName="O" x="0" y="0" flags="0x204"/>
      <component glyphName="circumflex.uc" x="410" y="0" flags="0x4"/>
    </TTGlyph>
    <TTGlyph name="Ocircumflexacute" xMin="100" yMin="-20" xMax="1559" yMax="1835">
      <component glyphName="O" x="0" y="0" flags="0x204"/>
      <component glyphName="circumflexacute" x="750" y="0" flags="0x4"/>
    </TTGlyph>
    <TTGlyph name="Ocircumflexdotbelow" xMin="100" yMin="-318" xMax="1559" yMax="1835">
      <component glyphName="O" x="0" y="0" flags="0x204"/>
      <component glyphName="circumflex.uc" x="399" y="0" flags="0x4"/>
      <component glyphName="dotbelowcomb" x="720" y="0" flags="0x4"/>
    </TTGlyph>
    <TTGlyph name="Ocircumflexgrave" xMin="100" yMin="-20" xMax="1559" yMax="1835">
      <component glyphName="O" x="0" y="0" flags="0x204"/>
      <component glyphName="circumflexgrave" x="740" y="0" flags="0x4"/>
    </TTGlyph>
    <TTGlyph name="Ocircumflexhookabove" xMin="100" yMin="-20" xMax="1559" yMax="1835">
      <component glyphName="O" x="0" y="0" flags="0x204"/>
      <component glyphName="circumflexhook" x="737" y="0" flags="0x4"/>
    </TTGlyph>
    <TTGlyph name="Ocircumflextilde" xMin="100" yMin="-20" xMax="1559" yMax="1835">
      <component glyphName="O" x="0" y="0" flags="0x204"/>
      <component glyphName="circumflextilde" x="970" y="0" flags="0x4"/>
    </TTGlyph>
    <TTGlyph name="Odieresis" xMin="100" yMin="-20" xMax="1559" yMax="1749">
      <component glyphName="O" x="0" y="0" flags="0x204"/>
      <component glyphName="dieresis" x="514" y="331" flags="0x4"/>
    </TTGlyph>
    <TTGlyph name="Odotbelow" xMin="100" yMin="-318" xMax="1559" yMax="1430">
      <component glyphName="O" x="0" y="0" flags="0x204"/>
      <component glyphName="dotbelowcomb" x="721" y="0" flags="0x4"/>
    </TTGlyph>
    <TTGlyph name="Ograve" xMin="100" yMin="-20" xMax="1559" yMax="1808">
      <component glyphName="O" x="0" y="0" flags="0x204"/>
      <component glyphName="grave.uc" x="383" y="0" flags="0x4"/>
    </TTGlyph>
    <TTGlyph name="Ohm" xMin="93" yMin="0" xMax="1496" yMax="1430">
      <contour>
        <pt x="795" y="1430" on="1"/>
        <pt x="1110" y="1430" on="0"/>
        <pt x="1468" y="1108" on="0"/>
        <pt x="1468" y="828" on="1"/>
        <pt x="1468" y="615" on="0"/>
        <pt x="1263" y="314" on="0"/>
        <pt x="1057" y="217" on="1"/>
        <pt x="1167" y="228" on="0"/>
        <pt x="1228" y="228" on="1"/>
        <pt x="1496" y="228" on="1"/>
        <pt x="1496" y="0" on="1"/>
        <pt x="867" y="0" on="1"/>
        <pt x="867" y="309" on="1"/>
        <pt x="1025" y="387" on="0"/>
        <pt x="1176" y="611" on="0"/>
        <pt x="1176" y="774" on="1"/>
        <pt x="1176" y="976" on="0"/>
        <pt x="977" y="1198" on="0"/>
        <pt x="796" y="1198" on="1"/>
        <pt x="616" y="1198" on="0"/>
        <pt x="416" y="977" on="0"/>
        <pt x="416" y="774" on="1"/>
        <pt x="416" y="608" on="0"/>
        <pt x="573" y="385" on="0"/>
        <pt x="729" y="309" on="1"/>
        <pt x="729" y="0" on="1"/>
        <pt x="93" y="0" on="1"/>
        <pt x="93" y="228" on="1"/>
        <pt x="363" y="228" on="1"/>
        <pt x="427" y="228" on="0"/>
        <pt x="537" y="217" on="1"/>
        <pt x="328" y="313" on="0"/>
        <pt x="121" y="614" on="0"/>
        <pt x="121" y="829" on="1"/>
        <pt x="121" y="1110" on="0"/>
        <pt x="480" y="1430" on="0"/>
      </contour>
    </TTGlyph>
    <TTGlyph name="Ohookabove" xMin="100" yMin="-20" xMax="1559" yMax="1835">
      <component glyphName="O" x="0" y="0" flags="0x204"/>
      <component glyphName="hookabovecomb" x="1263" y="0" flags="0x4"/>
    </TTGlyph>
    <TTGlyph name="Ohorn" xMin="100" yMin="-20" xMax="1929" yMax="1430">
      <contour>
        <pt x="727" y="-20" on="1"/>
        <pt x="534" y="-20" on="0"/>
        <pt x="249" y="124" on="0"/>
        <pt x="100" y="393" on="0"/>
        <pt x="100" y="573" on="1"/>
        <pt x="100" y="808" on="0"/>
        <pt x="311" y="1215" on="0"/>
        <pt x="685" y="1430" on="0"/>
        <pt x="928" y="1430" on="1"/>
        <pt x="1183" y="1430" on="0"/>
        <pt x="1512" y="1189" on="0"/>
        <pt x="1549" y="969" on="1"/>
        <pt x="1631" y="997" on="0"/>
        <pt x="1705" y="1087" on="0"/>
        <pt x="1718" y="1149" on="1"/>
        <pt x="1591" y="1149" on="1"/>
        <pt x="1642" y="1409" on="1"/>
        <pt x="1929" y="1409" on="1"/>
        <pt x="1887" y="1197" on="1"/>
        <pt x="1859" y="1055" on="0"/>
        <pt x="1703" y="875" on="0"/>
        <pt x="1559" y="832" on="1"/>
        <pt x="1554" y="587" on="0"/>
        <pt x="1341" y="192" on="0"/>
        <pt x="967" y="-20" on="0"/>
      </contour>
      <contour>
        <pt x="914" y="1197" on="1"/>
        <pt x="752" y="1197" on="0"/>
        <pt x="524" y="1047" on="0"/>
        <pt x="400" y="745" on="0"/>
        <pt x="400" y="581" on="1"/>
        <pt x="400" y="396" on="0"/>
        <pt x="580" y="212" on="0"/>
        <pt x="741" y="212" on="1"/>
        <pt x="902" y="212" on="0"/>
        <pt x="1130" y="362" on="0"/>
        <pt x="1255" y="658" on="0"/>
        <pt x="1255" y="827" on="1"/>
        <pt x="1255" y="1003" on="0"/>
        <pt x="1080" y="1197" on="0"/>
      </contour>
    </TTGlyph>
    <TTGlyph name="Ohornacute" xMin="100" yMin="-20" xMax="1929" yMax="1808">
      <component glyphName="Ohorn" x="0" y="0" flags="0x204"/>
      <component glyphName="acute.uc" x="504" y="0" flags="0x4"/>
    </TTGlyph>
    <TTGlyph name="Ohorndotbelow" xMin="100" yMin="-318" xMax="1929" yMax="1430">
      <component glyphName="Ohorn" x="0" y="0" flags="0x204"/>
      <component glyphName="dotbelowcomb" x="749" y="0" flags="0x4"/>
    </TTGlyph>
    <TTGlyph name="Ohorngrave" xMin="100" yMin="-20" xMax="1929" yMax="1808">
      <component glyphName="Ohorn" x="0" y="0" flags="0x204"/>
      <component glyphName="grave.uc" x="367" y="0" flags="0x4"/>
    </TTGlyph>
    <TTGlyph name="Ohornhookabove" xMin="100" yMin="-20" xMax="1929" yMax="1835">
      <component glyphName="Ohorn" x="0" y="0" flags="0x204"/>
      <component glyphName="hookabovecomb" x="1270" y="0" flags="0x4"/>
    </TTGlyph>
    <TTGlyph name="Ohorntilde" xMin="100" yMin="-20" xMax="1929" yMax="1822">
      <component glyphName="Ohorn" x="0" y="0" flags="0x204"/>
      <component glyphName="tilde.uc" x="446" y="0" flags="0x4"/>
    </TTGlyph>
    <TTGlyph name="Ohungarumlaut" xMin="100" yMin="-20" xMax="1559" yMax="1809">
      <component glyphName="O" x="0" y="0" flags="0x204"/>
      <component glyphName="hungarumlaut.uc" x="584" y="0" flags="0x4"/>
    </TTGlyph>
    <TTGlyph name="Omacron" xMin="100" yMin="-20" xMax="1559" yMax="1705">
      <component glyphName="O" x="0" y="0" flags="0x204"/>
      <component glyphName="macron" x="479" y="334" flags="0x4"/>
    </TTGlyph>
    <TTGlyph name="Omega" xMin="-32" yMin="0" xMax="1556" yMax="1430">
      <contour>
        <pt x="909" y="1430" on="1"/>
        <pt x="1206" y="1430" on="0"/>
        <pt x="1556" y="1129" on="0"/>
        <pt x="1556" y="883" on="1"/>
        <pt x="1556" y="771" on="0"/>
        <pt x="1501" y="568" on="0"/>
        <pt x="1376" y="397" on="0"/>
        <pt x="1173" y="262" on="0"/>
        <pt x="1025" y="217" on="1"/>
        <pt x="1190" y="228" on="0"/>
        <pt x="1242" y="228" on="1"/>
        <pt x="1467" y="228" on="1"/>
        <pt x="1423" y="0" on="1"/>
        <pt x="792" y="0" on="1"/>
        <pt x="855" y="322" on="1"/>
        <pt x="1045" y="382" on="0"/>
        <pt x="1253" y="656" on="0"/>
        <pt x="1253" y="849" on="1"/>
        <pt x="1253" y="932" on="0"/>
        <pt x="1203" y="1062" on="0"/>
        <pt x="1111" y="1152" on="0"/>
        <pt x="980" y="1199" on="0"/>
        <pt x="898" y="1199" on="1"/>
        <pt x="765" y="1199" on="0"/>
        <pt x="555" y="1083" on="0"/>
        <pt x="439" y="865" on="0"/>
        <pt x="439" y="715" on="1"/>
        <pt x="439" y="454" on="0"/>
        <pt x="658" y="322" on="1"/>
        <pt x="593" y="0" on="1"/>
        <pt x="-32" y="0" on="1"/>
        <pt x="12" y="228" on="1"/>
        <pt x="257" y="228" on="1"/>
        <pt x="386" y="223" on="1"/>
        <pt x="426" y="220" on="0"/>
        <pt x="470" y="217" on="1"/>
        <pt x="320" y="297" on="0"/>
        <pt x="138" y="585" on="0"/>
        <pt x="138" y="747" on="1"/>
        <pt x="138" y="911" on="0"/>
        <pt x="254" y="1166" on="0"/>
        <pt x="460" y="1340" on="0"/>
        <pt x="743" y="1430" on="0"/>
      </contour>
    </TTGlyph>
    <TTGlyph name="Omegatonos" xMin="-80" yMin="0" xMax="1607" yMax="1430">
      <component glyphName="Omega" x="51" y="0" flags="0x4"/>
      <component glyphName="tonos" x="-233" y="-98" flags="0x4"/>
    </TTGlyph>
    <TTGlyph name="Omicron" xMin="100" yMin="-20" xMax="1559" yMax="1430">
      <component glyphName="O" x="0" y="0" flags="0x204"/>
    </TTGlyph>
    <TTGlyph name="Omicrontonos" xMin="57" yMin="-20" xMax="1695" yMax="1430">
      <component glyphName="O" x="136" y="0" flags="0x4"/>
      <component glyphName="tonos" x="-96" y="-98" flags="0x4"/>
    </TTGlyph>
    <TTGlyph name="Oslash" xMin="35" yMin="-53" xMax="1658" yMax="1466">
      <contour>
        <pt x="928" y="1430" on="1"/>
        <pt x="1165" y="1430" on="0"/>
        <pt x="1324" y="1326" on="1"/>
        <pt x="1455" y="1466" on="1"/>
        <pt x="1658" y="1466" on="1"/>
        <pt x="1435" y="1227" on="1"/>
        <pt x="1559" y="1079" on="0"/>
        <pt x="1559" y="851" on="1"/>
        <pt x="1559" y="604" on="0"/>
        <pt x="1348" y="197" on="0"/>
        <pt x="970" y="-20" on="0"/>
        <pt x="727" y="-20" on="1"/>
        <pt x="505" y="-20" on="0"/>
        <pt x="357" y="71" on="1"/>
        <pt x="242" y="-53" on="1"/>
        <pt x="35" y="-53" on="1"/>
        <pt x="240" y="167" on="1"/>
        <pt x="100" y="325" on="0"/>
        <pt x="100" y="573" on="1"/>
        <pt x="100" y="808" on="0"/>
        <pt x="311" y="1215" on="0"/>
        <pt x="685" y="1430" on="0"/>
      </contour>
      <contour>
        <pt x="914" y="1197" on="1"/>
        <pt x="752" y="1197" on="0"/>
        <pt x="524" y="1047" on="0"/>
        <pt x="400" y="745" on="0"/>
        <pt x="400" y="581" on="1"/>
        <pt x="400" y="460" on="0"/>
        <pt x="439" y="379" on="1"/>
        <pt x="1138" y="1127" on="1"/>
        <pt x="1051" y="1197" on="0"/>
      </contour>
      <contour>
        <pt x="1255" y="827" on="1"/>
        <pt x="1255" y="927" on="0"/>
        <pt x="1226" y="1002" on="1"/>
        <pt x="538" y="264" on="1"/>
        <pt x="617" y="212" on="0"/>
        <pt x="741" y="212" on="1"/>
        <pt x="902" y="212" on="0"/>
        <pt x="1130" y="362" on="0"/>
        <pt x="1255" y="658" on="0"/>
      </contour>
    </TTGlyph>
    <TTGlyph name="Oslashacute" xMin="35" yMin="-53" xMax="1658" yMax="1808">
      <component glyphName="Oslash" x="0" y="0" flags="0x204"/>
      <component glyphName="acute.uc" x="538" y="0" flags="0x4"/>
    </TTGlyph>
    <TTGlyph name="Otilde" xMin="100" yMin="-20" xMax="1559" yMax="1823">
      <component glyphName="O" x="0" y="0" flags="0x204"/>
      <component glyphName="tilde" x="512" y="347" flags="0x4"/>
    </TTGlyph>
    <TTGlyph name="P" xMin="36" yMin="0" xMax="1369" yMax="1409">
      <contour>
        <pt x="850" y="1409" on="1"/>
        <pt x="1096" y="1409" on="0"/>
        <pt x="1369" y="1185" on="0"/>
        <pt x="1369" y="987" on="1"/>
        <pt x="1369" y="762" on="0"/>
        <pt x="1062" y="496" on="0"/>
        <pt x="805" y="496" on="1"/>
        <pt x="428" y="496" on="1"/>
        <pt x="330" y="0" on="1"/>
        <pt x="36" y="0" on="1"/>
        <pt x="309" y="1409" on="1"/>
      </contour>
      <contour>
        <pt x="471" y="723" on="1"/>
        <pt x="760" y="723" on="1"/>
        <pt x="915" y="723" on="0"/>
        <pt x="1070" y="839" on="0"/>
        <pt x="1070" y="971" on="1"/>
        <pt x="1070" y="1073" on="0"/>
        <pt x="942" y="1180" on="0"/>
        <pt x="822" y="1180" on="1"/>
        <pt x="560" y="1180" on="1"/>
      </contour>
    </TTGlyph>
    <TTGlyph name="Phi" xMin="96" yMin="-11" xMax="1654" yMax="1419">
      <contour>
        <pt x="1071" y="1052" on="1"/>
        <pt x="944" y="397" on="1"/>
        <pt x="998" y="397" on="1"/>
        <pt x="1168" y="397" on="0"/>
        <pt x="1363" y="609" on="0"/>
        <pt x="1363" y="789" on="1"/>
        <pt x="1363" y="911" on="0"/>
        <pt x="1240" y="1052" on="0"/>
        <pt x="1133" y="1052" on="1"/>
      </contour>
      <contour>
        <pt x="595" y="-11" on="1"/>
        <pt x="633" y="188" on="1"/>
        <pt x="557" y="188" on="1"/>
        <pt x="350" y="188" on="0"/>
        <pt x="96" y="444" on="0"/>
        <pt x="96" y="651" on="1"/>
        <pt x="96" y="943" on="0"/>
        <pt x="448" y="1261" on="0"/>
        <pt x="773" y="1261" on="1"/>
        <pt x="842" y="1261" on="1"/>
        <pt x="872" y="1419" on="1"/>
        <pt x="1142" y="1419" on="1"/>
        <pt x="1112" y="1261" on="1"/>
        <pt x="1179" y="1261" on="1"/>
        <pt x="1324" y="1261" on="0"/>
        <pt x="1539" y="1145" on="0"/>
        <pt x="1654" y="933" on="0"/>
        <pt x="1654" y="793" on="1"/>
        <pt x="1654" y="507" on="0"/>
        <pt x="1298" y="188" on="0"/>
        <pt x="984" y="188" on="1"/>
        <pt x="903" y="188" on="1"/>
        <pt x="865" y="-11" on="1"/>
      </contour>
      <contour>
        <pt x="801" y="1052" on="1"/>
        <pt x="755" y="1052" on="1"/>
        <pt x="580" y="1052" on="0"/>
        <pt x="387" y="850" on="0"/>
        <pt x="387" y="662" on="1"/>
        <pt x="387" y="540" on="0"/>
        <pt x="505" y="397" on="0"/>
        <pt x="608" y="397" on="1"/>
        <pt x="674" y="397" on="1"/>
      </contour>
    </TTGlyph>
    <TTGlyph name="Pi" xMin="36" yMin="0" xMax="1504" yMax="1409">
      <contour>
        <pt x="945" y="0" on="1"/>
        <pt x="1172" y="1165" on="1"/>
        <pt x="556" y="1165" on="1"/>
        <pt x="329" y="0" on="1"/>
        <pt x="36" y="0" on="1"/>
        <pt x="309" y="1409" on="1"/>
        <pt x="1504" y="1409" on="1"/>
        <pt x="1230" y="0" on="1"/>
      </contour>
    </TTGlyph>
    <TTGlyph name="Psi" xMin="170" yMin="0" xMax="1772" yMax="1409">
      <contour>
        <pt x="968" y="427" on="1"/>
        <pt x="885" y="0" on="1"/>
        <pt x="606" y="0" on="1"/>
        <pt x="689" y="427" on="1"/>
        <pt x="660" y="427" on="1"/>
        <pt x="423" y="427" on="0"/>
        <pt x="170" y="638" on="0"/>
        <pt x="170" y="839" on="1"/>
        <pt x="170" y="909" on="0"/>
        <pt x="185" y="987" on="1"/>
        <pt x="267" y="1409" on="1"/>
        <pt x="546" y="1409" on="1"/>
        <pt x="462" y="973" on="1"/>
        <pt x="450" y="921" on="0"/>
        <pt x="450" y="857" on="1"/>
        <pt x="450" y="648" on="0"/>
        <pt x="705" y="648" on="1"/>
        <pt x="732" y="648" on="1"/>
        <pt x="880" y="1409" on="1"/>
        <pt x="1159" y="1409" on="1"/>
        <pt x="1011" y="648" on="1"/>
        <pt x="1049" y="648" on="1"/>
        <pt x="1207" y="648" on="0"/>
        <pt x="1374" y="788" on="0"/>
        <pt x="1403" y="942" on="1"/>
        <pt x="1493" y="1409" on="1"/>
        <pt x="1772" y="1409" on="1"/>
        <pt x="1682" y="946" on="1"/>
        <pt x="1644" y="751" on="0"/>
        <pt x="1492" y="533" on="0"/>
        <pt x="1236" y="427" on="0"/>
        <pt x="1043" y="427" on="1"/>
      </contour>
    </TTGlyph>
    <TTGlyph name="Q" xMin="100" yMin="-400" xMax="1559" yMax="1430">
      <contour>
        <pt x="928" y="1430" on="1"/>
        <pt x="1221" y="1430" on="0"/>
        <pt x="1559" y="1119" on="0"/>
        <pt x="1559" y="851" on="1"/>
        <pt x="1559" y="745" on="0"/>
        <pt x="1539" y="649" on="1"/>
        <pt x="1512" y="514" on="0"/>
        <pt x="1397" y="291" on="0"/>
        <pt x="1229" y="122" on="0"/>
        <pt x="1012" y="13" on="0"/>
        <pt x="882" y="-8" on="1"/>
        <pt x="901" y="-106" on="0"/>
        <pt x="992" y="-194" on="0"/>
        <pt x="1081" y="-194" on="1"/>
        <pt x="1161" y="-194" on="0"/>
        <pt x="1231" y="-180" on="1"/>
        <pt x="1186" y="-375" on="1"/>
        <pt x="1114" y="-400" on="0"/>
        <pt x="1017" y="-400" on="1"/>
        <pt x="820" y="-400" on="0"/>
        <pt x="607" y="-212" on="0"/>
        <pt x="584" y="-9" on="1"/>
        <pt x="466" y="10" on="0"/>
        <pt x="285" y="111" on="0"/>
        <pt x="162" y="262" on="0"/>
        <pt x="100" y="458" on="0"/>
        <pt x="100" y="573" on="1"/>
        <pt x="100" y="808" on="0"/>
        <pt x="311" y="1215" on="0"/>
        <pt x="685" y="1430" on="0"/>
      </contour>
      <contour>
        <pt x="914" y="1197" on="1"/>
        <pt x="752" y="1197" on="0"/>
        <pt x="524" y="1047" on="0"/>
        <pt x="400" y="745" on="0"/>
        <pt x="400" y="581" on="1"/>
        <pt x="400" y="397" on="0"/>
        <pt x="580" y="212" on="0"/>
        <pt x="741" y="212" on="1"/>
        <pt x="902" y="212" on="0"/>
        <pt x="1130" y="362" on="0"/>
        <pt x="1255" y="658" on="0"/>
        <pt x="1255" y="827" on="1"/>
        <pt x="1255" y="1003" on="0"/>
        <pt x="1080" y="1197" on="0"/>
      </contour>
    </TTGlyph>
    <TTGlyph name="R" xMin="36" yMin="0" xMax="1465" yMax="1409">
      <contour>
        <pt x="1010" y="0" on="1"/>
        <pt x="780" y="534" on="1"/>
        <pt x="434" y="534" on="1"/>
        <pt x="331" y="0" on="1"/>
        <pt x="36" y="0" on="1"/>
        <pt x="310" y="1409" on="1"/>
        <pt x="961" y="1409" on="1"/>
        <pt x="1120" y="1409" on="0"/>
        <pt x="1347" y="1311" on="0"/>
        <pt x="1465" y="1129" on="0"/>
        <pt x="1465" y="1006" on="1"/>
        <pt x="1465" y="841" on="0"/>
        <pt x="1248" y="611" on="0"/>
        <pt x="1062" y="583" on="1"/>
        <pt x="1336" y="0" on="1"/>
      </contour>
      <contour>
        <pt x="872" y="764" on="1"/>
        <pt x="1017" y="764" on="0"/>
        <pt x="1166" y="881" on="0"/>
        <pt x="1166" y="989" on="1"/>
        <pt x="1166" y="1082" on="0"/>
        <pt x="1039" y="1180" on="0"/>
        <pt x="924" y="1180" on="1"/>
        <pt x="560" y="1180" on="1"/>
        <pt x="479" y="764" on="1"/>
      </contour>
    </TTGlyph>
    <TTGlyph name="Racute" xMin="36" yMin="0" xMax="1465" yMax="1808">
      <component glyphName="R" x="0" y="0" flags="0x204"/>
      <component glyphName="acute.uc" x="461" y="0" flags="0x4"/>
    </TTGlyph>
    <TTGlyph name="Rcaron" xMin="36" yMin="0" xMax="1465" yMax="1835">
      <component glyphName="R" x="0" y="0" flags="0x204"/>
      <component glyphName="caron.uc" x="347" y="0" flags="0x4"/>
    </TTGlyph>
    <TTGlyph name="Rcommaaccent" xMin="36" yMin="-455" xMax="1465" yMax="1409">
      <component glyphName="R" x="0" y="0" flags="0x204"/>
      <component glyphName="commaaccent" x="405" y="0" flags="0x4"/>
    </TTGlyph>
    <TTGlyph name="Rho" xMin="36" yMin="0" xMax="1369" yMax="1409">
      <component glyphName="P" x="0" y="0" flags="0x204"/>
    </TTGlyph>
    <TTGlyph name="S" xMin="25" yMin="-20" xMax="1345" yMax="1430">
      <contour>
        <pt x="600" y="-20" on="1"/>
        <pt x="333" y="-20" on="0"/>
        <pt x="53" y="169" on="0"/>
        <pt x="25" y="365" on="1"/>
        <pt x="314" y="414" on="1"/>
        <pt x="335" y="303" on="0"/>
        <pt x="480" y="201" on="0"/>
        <pt x="620" y="201" on="1"/>
        <pt x="965" y="201" on="0"/>
        <pt x="965" y="400" on="1"/>
        <pt x="965" y="480" on="0"/>
        <pt x="845" y="573" on="0"/>
        <pt x="667" y="618" on="1"/>
        <pt x="483" y="667" on="0"/>
        <pt x="306" y="773" on="0"/>
        <pt x="213" y="926" on="0"/>
        <pt x="213" y="1037" on="1"/>
        <pt x="213" y="1214" on="0"/>
        <pt x="527" y="1430" on="0"/>
        <pt x="786" y="1430" on="1"/>
        <pt x="1024" y="1430" on="0"/>
        <pt x="1312" y="1257" on="0"/>
        <pt x="1345" y="1091" on="1"/>
        <pt x="1057" y="1024" on="1"/>
        <pt x="1035" y="1114" on="0"/>
        <pt x="888" y="1221" on="0"/>
        <pt x="770" y="1221" on="1"/>
        <pt x="646" y="1221" on="0"/>
        <pt x="504" y="1128" on="0"/>
        <pt x="504" y="1047" on="1"/>
        <pt x="504" y="1000" on="0"/>
        <pt x="556" y="934" on="0"/>
        <pt x="656" y="885" on="0"/>
        <pt x="804" y="845" on="1"/>
        <pt x="963" y="801" on="0"/>
        <pt x="1115" y="724" on="0"/>
        <pt x="1206" y="628" on="0"/>
        <pt x="1254" y="504" on="0"/>
        <pt x="1254" y="423" on="1"/>
        <pt x="1254" y="207" on="0"/>
        <pt x="922" y="-20" on="0"/>
      </contour>
    </TTGlyph>
    <TTGlyph name="Sacute" xMin="25" yMin="-20" xMax="1345" yMax="1808">
      <component glyphName="S" x="0" y="0" flags="0x204"/>
      <component glyphName="acute.uc" x="436" y="0" flags="0x4"/>
    </TTGlyph>
    <TTGlyph name="Scaron" xMin="25" yMin="-20" xMax="1345" yMax="1835">
      <component glyphName="S" x="0" y="0" flags="0x204"/>
      <component glyphName="caron.uc" x="350" y="0" flags="0x4"/>
    </TTGlyph>
    <TTGlyph name="Scedilla" xMin="25" yMin="-425" xMax="1345" yMax="1430">
      <component glyphName="S" x="0" y="0" flags="0x204"/>
      <component glyphName="cedilla" x="271" y="0" flags="0x4"/>
    </TTGlyph>
    <TTGlyph name="Scircumflex" xMin="25" yMin="-20" xMax="1345" yMax="1835">
      <component glyphName="S" x="0" y="0" flags="0x204"/>
      <component glyphName="circumflex.uc" x="299" y="0" flags="0x4"/>
    </TTGlyph>
    <TTGlyph name="Scommaaccent" xMin="25" yMin="-455" xMax="1345" yMax="1430">
      <component glyphName="S" x="0" y="0" flags="0x204"/>
      <component glyphName="commaaccent" x="360" y="0" flags="0x4"/>
    </TTGlyph>
    <TTGlyph name="Sigma" xMin="-47" yMin="0" xMax="1242" yMax="1409">
      <contour>
        <pt x="-47" y="0" on="1"/>
        <pt x="3" y="251" on="1"/>
        <pt x="548" y="758" on="1"/>
        <pt x="202" y="1193" on="1"/>
        <pt x="243" y="1409" on="1"/>
        <pt x="1242" y="1409" on="1"/>
        <pt x="1198" y="1181" on="1"/>
        <pt x="501" y="1181" on="1"/>
        <pt x="800" y="808" on="1"/>
        <pt x="773" y="674" on="1"/>
        <pt x="293" y="228" on="1"/>
        <pt x="1074" y="228" on="1"/>
        <pt x="1029" y="0" on="1"/>
      </contour>
    </TTGlyph>
    <TTGlyph name="T" xMin="145" yMin="0" xMax="1395" yMax="1409">
      <contour>
        <pt x="895" y="1181" on="1"/>
        <pt x="665" y="0" on="1"/>
        <pt x="370" y="0" on="1"/>
        <pt x="600" y="1181" on="1"/>
        <pt x="145" y="1181" on="1"/>
        <pt x="189" y="1409" on="1"/>
        <pt x="1395" y="1409" on="1"/>
        <pt x="1351" y="1181" on="1"/>
      </contour>
    </TTGlyph>
    <TTGlyph name="Tau" xMin="145" yMin="0" xMax="1395" yMax="1409">
      <component glyphName="T" x="0" y="0" flags="0x204"/>
    </TTGlyph>
    <TTGlyph name="Tbar" xMin="145" yMin="0" xMax="1395" yMax="1409">
      <contour>
        <pt x="895" y="1181" on="1"/>
        <pt x="824" y="816" on="1"/>
        <pt x="1052" y="816" on="1"/>
        <pt x="1015" y="626" on="1"/>
        <pt x="787" y="626" on="1"/>
        <pt x="665" y="0" on="1"/>
        <pt x="370" y="0" on="1"/>
        <pt x="492" y="626" on="1"/>
        <pt x="265" y="626" on="1"/>
        <pt x="302" y="816" on="1"/>
        <pt x="529" y="816" on="1"/>
        <pt x="600" y="1181" on="1"/>
        <pt x="145" y="1181" on="1"/>
        <pt x="189" y="1409" on="1"/>
        <pt x="1395" y="1409" on="1"/>
        <pt x="1351" y="1181" on="1"/>
      </contour>
    </TTGlyph>
    <TTGlyph name="Tcaron" xMin="145" yMin="0" xMax="1395" yMax="1835">
      <component glyphName="T" x="0" y="0" flags="0x204"/>
      <component glyphName="caron.uc" x="331" y="0" flags="0x4"/>
    </TTGlyph>
    <TTGlyph name="Tcommaaccent" xMin="145" yMin="-425" xMax="1395" yMax="1409">
      <component glyphName="T" x="0" y="0" flags="0x204"/>
      <component glyphName="cedilla" x="158" y="0" flags="0x4"/>
    </TTGlyph>
    <TTGlyph name="Theta" xMin="100" yMin="-20" xMax="1559" yMax="1430">
      <contour>
        <pt x="556" y="827" on="1"/>
        <pt x="1143" y="827" on="1"/>
        <pt x="1099" y="599" on="1"/>
        <pt x="512" y="599" on="1"/>
      </contour>
      <contour>
        <pt x="928" y="1430" on="1"/>
        <pt x="1221" y="1430" on="0"/>
        <pt x="1559" y="1119" on="0"/>
        <pt x="1559" y="851" on="1"/>
        <pt x="1559" y="604" on="0"/>
        <pt x="1348" y="197" on="0"/>
        <pt x="970" y="-20" on="0"/>
        <pt x="727" y="-20" on="1"/>
        <pt x="534" y="-20" on="0"/>
        <pt x="249" y="124" on="0"/>
        <pt x="100" y="393" on="0"/>
        <pt x="100" y="573" on="1"/>
        <pt x="100" y="808" on="0"/>
        <pt x="311" y="1215" on="0"/>
        <pt x="685" y="1430" on="0"/>
      </contour>
      <contour>
        <pt x="914" y="1197" on="1"/>
        <pt x="752" y="1197" on="0"/>
        <pt x="524" y="1047" on="0"/>
        <pt x="400" y="745" on="0"/>
        <pt x="400" y="581" on="1"/>
        <pt x="400" y="397" on="0"/>
        <pt x="580" y="212" on="0"/>
        <pt x="741" y="212" on="1"/>
        <pt x="902" y="212" on="0"/>
        <pt x="1130" y="362" on="0"/>
        <pt x="1255" y="658" on="0"/>
        <pt x="1255" y="827" on="1"/>
        <pt x="1255" y="1003" on="0"/>
        <pt x="1080" y="1197" on="0"/>
      </contour>
    </TTGlyph>
    <TTGlyph name="Thorn" xMin="36" yMin="0" xMax="1326" yMax="1409">
      <contour>
        <pt x="331" y="0" on="1"/>
        <pt x="36" y="0" on="1"/>
        <pt x="310" y="1409" on="1"/>
        <pt x="605" y="1409" on="1"/>
        <pt x="561" y="1184" on="1"/>
        <pt x="807" y="1184" on="1"/>
        <pt x="1053" y="1184" on="0"/>
        <pt x="1326" y="960" on="0"/>
        <pt x="1326" y="762" on="1"/>
        <pt x="1326" y="537" on="0"/>
        <pt x="1019" y="271" on="0"/>
        <pt x="762" y="271" on="1"/>
        <pt x="384" y="271" on="1"/>
      </contour>
      <contour>
        <pt x="428" y="498" on="1"/>
        <pt x="717" y="498" on="1"/>
        <pt x="872" y="498" on="0"/>
        <pt x="1027" y="614" on="0"/>
        <pt x="1027" y="746" on="1"/>
        <pt x="1027" y="848" on="0"/>
        <pt x="899" y="955" on="0"/>
        <pt x="779" y="955" on="1"/>
        <pt x="517" y="955" on="1"/>
      </contour>
    </TTGlyph>
    <TTGlyph name="U" xMin="119" yMin="-20" xMax="1521" yMax="1409">
      <contour>
        <pt x="688" y="211" on="1"/>
        <pt x="853" y="211" on="0"/>
        <pt x="1024" y="363" on="0"/>
        <pt x="1058" y="541" on="1"/>
        <pt x="1226" y="1409" on="1"/>
        <pt x="1521" y="1409" on="1"/>
        <pt x="1350" y="530" on="1"/>
        <pt x="1295" y="249" on="0"/>
        <pt x="965" y="-20" on="0"/>
        <pt x="672" y="-20" on="1"/>
        <pt x="408" y="-20" on="0"/>
        <pt x="119" y="215" on="0"/>
        <pt x="119" y="431" on="1"/>
        <pt x="119" y="475" on="0"/>
        <pt x="134" y="598" on="0"/>
        <pt x="142" y="635" on="1"/>
        <pt x="290" y="1409" on="1"/>
        <pt x="585" y="1409" on="1"/>
        <pt x="432" y="599" on="1"/>
        <pt x="414" y="512" on="0"/>
        <pt x="414" y="427" on="1"/>
        <pt x="414" y="324" on="0"/>
        <pt x="560" y="211" on="0"/>
      </contour>
    </TTGlyph>
    <TTGlyph name="Uacute" xMin="119" yMin="-20" xMax="1521" yMax="1808">
      <component glyphName="U" x="0" y="0" flags="0x204"/>
      <component glyphName="acute.uc" x="512" y="0" flags="0x4"/>
    </TTGlyph>
    <TTGlyph name="Ubreve" xMin="119" yMin="-20" xMax="1521" yMax="1823">
      <component glyphName="U" x="0" y="0" flags="0x204"/>
      <component glyphName="breve.uc" x="440" y="0" flags="0x4"/>
    </TTGlyph>
    <TTGlyph name="Ucircumflex" xMin="119" yMin="-20" xMax="1521" yMax="1835">
      <component glyphName="U" x="0" y="0" flags="0x204"/>
      <component glyphName="circumflex.uc" x="383" y="0" flags="0x4"/>
    </TTGlyph>
    <TTGlyph name="Udieresis" xMin="119" yMin="-20" xMax="1521" yMax="1749">
      <component glyphName="U" x="0" y="0" flags="0x204"/>
      <component glyphName="dieresis" x="465" y="331" flags="0x4"/>
    </TTGlyph>
    <TTGlyph name="Udotbelow" xMin="119" yMin="-318" xMax="1521" yMax="1409">
      <component glyphName="U" x="0" y="0" flags="0x204"/>
      <component glyphName="dotbelowcomb" x="660" y="0" flags="0x4"/>
    </TTGlyph>
    <TTGlyph name="Ugrave" xMin="119" yMin="-20" xMax="1521" yMax="1808">
      <component glyphName="U" x="0" y="0" flags="0x204"/>
      <component glyphName="grave.uc" x="322" y="0" flags="0x4"/>
    </TTGlyph>
    <TTGlyph name="Uhookabove" xMin="119" yMin="-20" xMax="1521" yMax="1835">
      <component glyphName="U" x="0" y="0" flags="0x204"/>
      <component glyphName="hookabovecomb" x="1210" y="0" flags="0x4"/>
    </TTGlyph>
    <TTGlyph name="Uhorn" xMin="119" yMin="-20" xMax="1919" yMax="1409">
      <contour>
        <pt x="688" y="211" on="1"/>
        <pt x="853" y="211" on="0"/>
        <pt x="1024" y="363" on="0"/>
        <pt x="1058" y="541" on="1"/>
        <pt x="1226" y="1409" on="1"/>
        <pt x="1521" y="1409" on="1"/>
        <pt x="1429" y="937" on="1"/>
        <pt x="1553" y="953" on="0"/>
        <pt x="1694" y="1061" on="0"/>
        <pt x="1708" y="1149" on="1"/>
        <pt x="1581" y="1149" on="1"/>
        <pt x="1632" y="1409" on="1"/>
        <pt x="1919" y="1409" on="1"/>
        <pt x="1877" y="1197" on="1"/>
        <pt x="1842" y="1021" on="0"/>
        <pt x="1610" y="818" on="0"/>
        <pt x="1402" y="797" on="1"/>
        <pt x="1350" y="530" on="1"/>
        <pt x="1295" y="249" on="0"/>
        <pt x="965" y="-20" on="0"/>
        <pt x="672" y="-20" on="1"/>
        <pt x="408" y="-20" on="0"/>
        <pt x="119" y="215" on="0"/>
        <pt x="119" y="431" on="1"/>
        <pt x="119" y="520" on="0"/>
        <pt x="142" y="635" on="1"/>
        <pt x="290" y="1409" on="1"/>
        <pt x="585" y="1409" on="1"/>
        <pt x="432" y="599" on="1"/>
        <pt x="414" y="512" on="0"/>
        <pt x="414" y="427" on="1"/>
        <pt x="414" y="324" on="0"/>
        <pt x="560" y="211" on="0"/>
      </contour>
    </TTGlyph>
    <TTGlyph name="Uhornacute" xMin="119" yMin="-20" xMax="1919" yMax="1808">
      <component glyphName="Uhorn" x="0" y="0" flags="0x204"/>
      <component glyphName="acute.uc" x="494" y="0" flags="0x4"/>
    </TTGlyph>
    <TTGlyph name="Uhorndotbelow" xMin="119" yMin="-318" xMax="1919" yMax="1409">
      <component glyphName="Uhorn" x="0" y="0" flags="0x204"/>
      <component glyphName="dotbelowcomb" x="655" y="0" flags="0x4"/>
    </TTGlyph>
    <TTGlyph name="Uhorngrave" xMin="119" yMin="-20" xMax="1919" yMax="1808">
      <component glyphName="Uhorn" x="0" y="0" flags="0x204"/>
      <component glyphName="grave.uc" x="313" y="0" flags="0x4"/>
    </TTGlyph>
    <TTGlyph name="Uhornhookabove" xMin="119" yMin="-20" xMax="1919" yMax="1835">
      <component glyphName="Uhorn" x="0" y="0" flags="0x204"/>
      <component glyphName="hookabovecomb" x="1195" y="0" flags="0x4"/>
    </TTGlyph>
    <TTGlyph name="Uhorntilde" xMin="119" yMin="-20" xMax="1919" yMax="1822">
      <component glyphName="Uhorn" x="0" y="0" flags="0x204"/>
      <component glyphName="tilde.uc" x="416" y="0" flags="0x4"/>
    </TTGlyph>
    <TTGlyph name="Uhungarumlaut" xMin="119" yMin="-20" xMax="1521" yMax="1809">
      <component glyphName="U" x="0" y="0" flags="0x204"/>
      <component glyphName="hungarumlaut.uc" x="514" y="0" flags="0x4"/>
    </TTGlyph>
    <TTGlyph name="Umacron" xMin="119" yMin="-20" xMax="1521" yMax="1700">
      <component glyphName="U" x="0" y="0" flags="0x204"/>
      <component glyphName="macron" x="461" y="329" flags="0x4"/>
    </TTGlyph>
    <TTGlyph name="Uogonek" xMin="119" yMin="-425" xMax="1521" yMax="1409">
      <component glyphName="U" x="0" y="0" flags="0x204"/>
      <component glyphName="ogonek" x="407" y="0" flags="0x4"/>
    </TTGlyph>
    <TTGlyph name="Upsilon" xMin="172" yMin="0" xMax="1520" yMax="1409">
      <component glyphName="Y" x="0" y="0" flags="0x204"/>
    </TTGlyph>
    <TTGlyph name="Upsilondieresis" xMin="143" yMin="0" xMax="1491" yMax="1749">
      <component glyphName="Y" x="-29" y="0" flags="0x204"/>
      <component glyphName="dieresis" x="359" y="331" flags="0x4"/>
    </TTGlyph>
    <TTGlyph name="Upsilontonos" xMin="198" yMin="0" xMax="2059" yMax="1410">
      <component glyphName="Y" x="539" y="0" flags="0x4"/>
      <component glyphName="tonos" x="45" y="-98" flags="0x4"/>
    </TTGlyph>
    <TTGlyph name="Uring" xMin="119" yMin="-20" xMax="1521" yMax="1978">
      <component glyphName="U" x="0" y="0" flags="0x204"/>
      <component glyphName="ring" x="447" y="334" flags="0x4"/>
    </TTGlyph>
    <TTGlyph name="Utilde" xMin="119" yMin="-20" xMax="1521" yMax="1822">
      <component glyphName="U" x="0" y="0" flags="0x204"/>
      <component glyphName="tilde.uc" x="408" y="0" flags="0x4"/>
    </TTGlyph>
    <TTGlyph name="V" xMin="171" yMin="0" xMax="1509" yMax="1409">
      <contour>
        <pt x="737" y="0" on="1"/>
        <pt x="398" y="0" on="1"/>
        <pt x="171" y="1409" on="1"/>
        <pt x="476" y="1409" on="1"/>
        <pt x="590" y="504" on="1"/>
        <pt x="606" y="357" on="0"/>
        <pt x="612" y="238" on="1"/>
        <pt x="659" y="344" on="0"/>
        <pt x="716" y="466" on="0"/>
        <pt x="1201" y="1409" on="1"/>
        <pt x="1509" y="1409" on="1"/>
      </contour>
    </TTGlyph>
    <TTGlyph name="W" xMin="150" yMin="0" xMax="2079" yMax="1409">
      <contour>
        <pt x="1441" y="0" on="1"/>
        <pt x="1091" y="0" on="1"/>
        <pt x="1064" y="812" on="1"/>
        <pt x="1060" y="1032" on="1"/>
        <pt x="1059" y="1116" on="1"/>
        <pt x="999" y="956" on="0"/>
        <pt x="936" y="798" on="0"/>
        <pt x="594" y="0" on="1"/>
        <pt x="239" y="0" on="1"/>
        <pt x="150" y="1409" on="1"/>
        <pt x="430" y="1409" on="1"/>
        <pt x="466" y="594" on="1"/>
        <pt x="473" y="426" on="0"/>
        <pt x="473" y="248" on="1"/>
        <pt x="530" y="392" on="1"/>
        <pt x="606" y="577" on="1"/>
        <pt x="961" y="1409" on="1"/>
        <pt x="1277" y="1409" on="1"/>
        <pt x="1319" y="248" on="1"/>
        <pt x="1346" y="321" on="0"/>
        <pt x="1449" y="584" on="0"/>
        <pt x="1788" y="1409" on="1"/>
        <pt x="2079" y="1409" on="1"/>
      </contour>
    </TTGlyph>
    <TTGlyph name="Wacute" xMin="150" yMin="0" xMax="2079" yMax="1808">
      <component glyphName="W" x="0" y="0" flags="0x204"/>
      <component glyphName="acute.uc" x="736" y="0" flags="0x4"/>
    </TTGlyph>
    <TTGlyph name="Wcircumflex" xMin="150" yMin="0" xMax="2079" yMax="1835">
      <component glyphName="W" x="0" y="0" flags="0x204"/>
      <component glyphName="circumflex.uc" x="576" y="0" flags="0x4"/>
    </TTGlyph>
    <TTGlyph name="Wdieresis" xMin="150" yMin="0" xMax="2079" yMax="1749">
      <component glyphName="W" x="0" y="0" flags="0x204"/>
      <component glyphName="dieresis" x="658" y="331" flags="0x4"/>
    </TTGlyph>
    <TTGlyph name="Wgrave" xMin="150" yMin="0" xMax="2079" yMax="1808">
      <component glyphName="W" x="0" y="0" flags="0x204"/>
      <component glyphName="grave.uc" x="577" y="0" flags="0x4"/>
    </TTGlyph>
    <TTGlyph name="X" xMin="-94" yMin="0" xMax="1468" yMax="1409">
      <contour>
        <pt x="220" y="1409" on="1"/>
        <pt x="529" y="1409" on="1"/>
        <pt x="753" y="938" on="1"/>
        <pt x="1155" y="1409" on="1"/>
        <pt x="1468" y="1409" on="1"/>
        <pt x="868" y="732" on="1"/>
        <pt x="1235" y="0" on="1"/>
        <pt x="928" y="0" on="1"/>
        <pt x="675" y="532" on="1"/>
        <pt x="220" y="0" on="1"/>
        <pt x="-94" y="0" on="1"/>
        <pt x="558" y="736" on="1"/>
      </contour>
    </TTGlyph>
    <TTGlyph name="Xi" xMin="-8" yMin="0" xMax="1381" yMax="1409">
      <contour>
        <pt x="300" y="1409" on="1"/>
        <pt x="1381" y="1409" on="1"/>
        <pt x="1337" y="1181" on="1"/>
        <pt x="256" y="1181" on="1"/>
      </contour>
      <contour>
        <pt x="1187" y="228" on="1"/>
        <pt x="1142" y="0" on="1"/>
        <pt x="-8" y="0" on="1"/>
        <pt x="37" y="228" on="1"/>
      </contour>
      <contour>
        <pt x="1148" y="827" on="1"/>
        <pt x="1104" y="599" on="1"/>
        <pt x="263" y="599" on="1"/>
        <pt x="307" y="827" on="1"/>
      </contour>
    </TTGlyph>
    <TTGlyph name="Y" xMin="172" yMin="0" xMax="1520" yMax="1409">
      <contour>
        <pt x="724" y="0" on="1"/>
        <pt x="430" y="0" on="1"/>
        <pt x="542" y="578" on="1"/>
        <pt x="172" y="1409" on="1"/>
        <pt x="464" y="1409" on="1"/>
        <pt x="723" y="804" on="1"/>
        <pt x="1197" y="1409" on="1"/>
        <pt x="1520" y="1409" on="1"/>
        <pt x="836" y="578" on="1"/>
      </contour>
    </TTGlyph>
    <TTGlyph name="Yacute" xMin="172" yMin="0" xMax="1520" yMax="1808">
      <component glyphName="Y" x="0" y="0" flags="0x204"/>
      <component glyphName="acute.uc" x="439" y="0" flags="0x4"/>
    </TTGlyph>
    <TTGlyph name="Ycircumflex" xMin="172" yMin="0" xMax="1520" yMax="1835">
      <component glyphName="Y" x="0" y="0" flags="0x204"/>
      <component glyphName="circumflex.uc" x="307" y="0" flags="0x4"/>
    </TTGlyph>
    <TTGlyph name="Ydieresis" xMin="143" yMin="0" xMax="1491" yMax="1749">
      <component glyphName="Y" x="-29" y="0" flags="0x204"/>
      <component glyphName="dieresis" x="359" y="331" flags="0x4"/>
    </TTGlyph>
    <TTGlyph name="Ydotbelow" xMin="172" yMin="-318" xMax="1520" yMax="1409">
      <component glyphName="Y" x="0" y="0" flags="0x204"/>
      <component glyphName="dotbelowcomb" x="567" y="0" flags="0x4"/>
    </TTGlyph>
    <TTGlyph name="Ygrave" xMin="172" yMin="0" xMax="1520" yMax="1808">
      <component glyphName="Y" x="0" y="0" flags="0x204"/>
      <component glyphName="grave.uc" x="290" y="0" flags="0x4"/>
    </TTGlyph>
    <TTGlyph name="Yhookabove" xMin="172" yMin="0" xMax="1520" yMax="1835">
      <component glyphName="Y" x="0" y="0" flags="0x204"/>
      <component glyphName="hookabovecomb" x="1130" y="0" flags="0x4"/>
    </TTGlyph>
    <TTGlyph name="Ytilde" xMin="172" yMin="0" xMax="1520" yMax="1811">
      <component glyphName="Y" x="0" y="0" flags="0x204"/>
      <component glyphName="tilde" x="413" y="335" flags="0x4"/>
    </TTGlyph>
    <TTGlyph name="Z" xMin="-48" yMin="0" xMax="1315" yMax="1409">
      <contour>
        <pt x="1082" y="0" on="1"/>
        <pt x="-48" y="0" on="1"/>
        <pt x="-8" y="209" on="1"/>
        <pt x="919" y="1178" on="1"/>
        <pt x="256" y="1178" on="1"/>
        <pt x="301" y="1409" on="1"/>
        <pt x="1315" y="1409" on="1"/>
        <pt x="1275" y="1204" on="1"/>
        <pt x="345" y="231" on="1"/>
        <pt x="1127" y="231" on="1"/>
      </contour>
    </TTGlyph>
    <TTGlyph name="Zacute" xMin="-48" yMin="0" xMax="1315" yMax="1808">
      <component glyphName="Z" x="0" y="0" flags="0x204"/>
      <component glyphName="acute.uc" x="386" y="0" flags="0x4"/>
    </TTGlyph>
    <TTGlyph name="Zcaron" xMin="-48" yMin="0" xMax="1315" yMax="1835">
      <component glyphName="Z" x="0" y="0" flags="0x204"/>
      <component glyphName="caron.uc" x="318" y="0" flags="0x4"/>
    </TTGlyph>
    <TTGlyph name="Zdotaccent" xMin="-48" yMin="0" xMax="1315" yMax="1747">
      <component glyphName="Z" x="0" y="0" flags="0x204"/>
      <component glyphName="dotaccent" x="327" y="263" flags="0x4"/>
    </TTGlyph>
    <TTGlyph name="Zeta" xMin="-48" yMin="0" xMax="1315" yMax="1409">
      <component glyphName="Z" x="0" y="0" flags="0x204"/>
    </TTGlyph>
    <TTGlyph name="a" xMin="10" yMin="-20" xMax="1079" yMax="1102">
      <contour>
        <pt x="892" y="-10" on="1"/>
        <pt x="792" y="-10" on="0"/>
        <pt x="684" y="74" on="0"/>
        <pt x="684" y="143" on="1"/>
        <pt x="684" y="180" on="0"/>
        <pt x="689" y="207" on="1"/>
        <pt x="683" y="207" on="1"/>
        <pt x="599" y="77" on="0"/>
        <pt x="435" y="-20" on="0"/>
        <pt x="317" y="-20" on="1"/>
        <pt x="177" y="-20" on="0"/>
        <pt x="10" y="147" on="0"/>
        <pt x="10" y="278" on="1"/>
        <pt x="10" y="463" on="0"/>
        <pt x="265" y="652" on="0"/>
        <pt x="551" y="657" on="1"/>
        <pt x="742" y="660" on="1"/>
        <pt x="763" y="755" on="0"/>
        <pt x="763" y="791" on="1"/>
        <pt x="763" y="919" on="0"/>
        <pt x="636" y="919" on="1"/>
        <pt x="542" y="919" on="0"/>
        <pt x="450" y="846" on="0"/>
        <pt x="433" y="777" on="1"/>
        <pt x="170" y="808" on="1"/>
        <pt x="204" y="952" on="0"/>
        <pt x="443" y="1102" on="0"/>
        <pt x="641" y="1102" on="1"/>
        <pt x="848" y="1102" on="0"/>
        <pt x="1041" y="956" on="0"/>
        <pt x="1041" y="807" on="1"/>
        <pt x="1041" y="770" on="0"/>
        <pt x="1017" y="650" on="1"/>
        <pt x="946" y="297" on="1"/>
        <pt x="938" y="252" on="0"/>
        <pt x="938" y="225" on="1"/>
        <pt x="938" y="201" on="0"/>
        <pt x="958" y="175" on="0"/>
        <pt x="984" y="163" on="0"/>
        <pt x="1010" y="160" on="0"/>
        <pt x="1017" y="160" on="1"/>
        <pt x="1047" y="160" on="0"/>
        <pt x="1079" y="167" on="1"/>
        <pt x="1065" y="12" on="1"/>
        <pt x="1023" y="-4" on="0"/>
        <pt x="937" y="-10" on="0"/>
      </contour>
      <contour>
        <pt x="711" y="503" on="1"/>
        <pt x="549" y="503" on="1"/>
        <pt x="432" y="501" on="0"/>
        <pt x="297" y="409" on="0"/>
        <pt x="297" y="325" on="1"/>
        <pt x="297" y="255" on="0"/>
        <pt x="376" y="176" on="0"/>
        <pt x="443" y="176" on="1"/>
        <pt x="526" y="176" on="0"/>
        <pt x="662" y="305" on="0"/>
        <pt x="689" y="411" on="1"/>
      </contour>
    </TTGlyph>
    <TTGlyph name="aacute" xMin="10" yMin="-20" xMax="1079" yMax="1502">
      <component glyphName="a" x="0" y="0" flags="0x204"/>
      <component glyphName="acute" x="287" y="0" flags="0x4"/>
    </TTGlyph>
    <TTGlyph name="abreve" xMin="10" yMin="-20" xMax="1103" yMax="1506">
      <component glyphName="a" x="0" y="0" flags="0x204"/>
      <component glyphName="breve" x="236" y="0" flags="0x4"/>
    </TTGlyph>
    <TTGlyph name="abreveacute" xMin="10" yMin="-20" xMax="1091" yMax="1824">
      <component glyphName="a" x="0" y="0" flags="0x204"/>
      <component glyphName="breveacute.lc" x="740" y="0" flags="0x4"/>
    </TTGlyph>
    <TTGlyph name="abrevedotbelow" xMin="10" yMin="-318" xMax="1087" yMax="1506">
      <component glyphName="a" x="0" y="0" flags="0x204"/>
      <component glyphName="breve" x="220" y="0" flags="0x4"/>
      <component glyphName="dotbelowcomb" x="540" y="0" flags="0x4"/>
    </TTGlyph>
    <TTGlyph name="abrevegrave" xMin="10" yMin="-20" xMax="1081" yMax="1824">
      <component glyphName="a" x="0" y="0" flags="0x204"/>
      <component glyphName="brevegrave.lc" x="730" y="0" flags="0x4"/>
    </TTGlyph>
    <TTGlyph name="abrevehookabove" xMin="10" yMin="-20" xMax="1091" yMax="1835">
      <component glyphName="a" x="0" y="0" flags="0x204"/>
      <component glyphName="brevehook.lc" x="740" y="0" flags="0x4"/>
    </TTGlyph>
    <TTGlyph name="abrevetilde" xMin="10" yMin="-20" xMax="1156" yMax="1836">
      <component glyphName="a" x="0" y="0" flags="0x204"/>
      <component glyphName="brevetilde.lc" x="740" y="0" flags="0x4"/>
    </TTGlyph>
    <TTGlyph name="acircumflex" xMin="10" yMin="-20" xMax="1079" yMax="1529">
      <component glyphName="a" x="0" y="0" flags="0x204"/>
      <component glyphName="circumflex" x="231" y="0" flags="0x4"/>
    </TTGlyph>
    <TTGlyph name="acircumflexacute" xMin="10" yMin="-20" xMax="1301" yMax="1574">
      <component glyphName="a" x="0" y="0" flags="0x204"/>
      <component glyphName="circumflexacute.lc" x="564" y="0" flags="0x4"/>
    </TTGlyph>
    <TTGlyph name="acircumflexdotbelow" xMin="10" yMin="-318" xMax="1079" yMax="1529">
      <component glyphName="a" x="0" y="0" flags="0x204"/>
      <component glyphName="circumflex" x="212" y="0" flags="0x4"/>
      <component glyphName="dotbelowcomb" x="540" y="0" flags="0x4"/>
    </TTGlyph>
    <TTGlyph name="acircumflexgrave" xMin="10" yMin="-20" xMax="1079" yMax="1574">
      <component glyphName="a" x="0" y="0" flags="0x204"/>
      <component glyphName="circumflexgrave.lc" x="544" y="0" flags="0x4"/>
    </TTGlyph>
    <TTGlyph name="acircumflexhookabove" xMin="10" yMin="-20" xMax="1246" yMax="1653">
      <component glyphName="a" x="0" y="0" flags="0x204"/>
      <component glyphName="circumflexhook.lc" x="551" y="0" flags="0x4"/>
    </TTGlyph>
    <TTGlyph name="acircumflextilde" xMin="10" yMin="-20" xMax="1131" yMax="1808">
      <component glyphName="a" x="0" y="0" flags="0x204"/>
      <component glyphName="circumflextilde.lc" x="715" y="0" flags="0x4"/>
    </TTGlyph>
    <TTGlyph name="acute" xMin="255" yMin="1183" xMax="785" yMax="1502">
      <contour>
        <pt x="255" y="1183" on="1"/>
        <pt x="261" y="1214" on="1"/>
        <pt x="508" y="1502" on="1"/>
        <pt x="785" y="1502" on="1"/>
        <pt x="777" y="1459" on="1"/>
        <pt x="401" y="1183" on="1"/>
      </contour>
    </TTGlyph>
    <TTGlyph name="acute.alt1" xMin="-64" yMin="1183" xMax="466" yMax="1502">
      <component glyphName="acute" x="-319" y="0" flags="0x4"/>
    </TTGlyph>
    <TTGlyph name="acute.alt2" xMin="-64" yMin="1183" xMax="466" yMax="1502">
      <component glyphName="acute" x="-319" y="0" flags="0x4"/>
    </TTGlyph>
    <TTGlyph name="acute.alt3" xMin="-64" yMin="1183" xMax="466" yMax="1502">
      <component glyphName="acute" x="-319" y="0" flags="0x4"/>
    </TTGlyph>
    <TTGlyph name="acute.alt4" xMin="-64" yMin="1183" xMax="466" yMax="1502">
      <component glyphName="acute" x="-319" y="0" flags="0x4"/>
    </TTGlyph>
    <TTGlyph name="acute.alt5" xMin="-64" yMin="1183" xMax="466" yMax="1502">
      <component glyphName="acute" x="-319" y="0" flags="0x4"/>
    </TTGlyph>
    <TTGlyph name="acute.uc" xMin="277" yMin="1530" xMax="821" yMax="1808">
      <contour>
        <pt x="277" y="1530" on="1"/>
        <pt x="284" y="1561" on="1"/>
        <pt x="554" y="1808" on="1"/>
        <pt x="821" y="1808" on="1"/>
        <pt x="812" y="1765" on="1"/>
        <pt x="426" y="1530" on="1"/>
      </contour>
    </TTGlyph>
    <TTGlyph name="acutecomb" xMin="-164" yMin="1545" xMax="276" yMax="1827">
      <contour>
        <pt x="-158" y="1545" on="1"/>
        <pt x="-164" y="1576" on="1"/>
        <pt x="10" y="1827" on="1"/>
        <pt x="268" y="1827" on="1"/>
        <pt x="276" y="1784" on="1"/>
        <pt x="-10" y="1545" on="1"/>
      </contour>
    </TTGlyph>
    <TTGlyph name="adieresis" xMin="10" yMin="-20" xMax="1079" yMax="1418">
      <component glyphName="a" x="0" y="0" flags="0x204"/>
      <component glyphName="dieresis" x="216" y="0" flags="0x4"/>
    </TTGlyph>
    <TTGlyph name="adotbelow" xMin="10" yMin="-318" xMax="1079" yMax="1102">
      <component glyphName="a" x="0" y="0" flags="0x204"/>
      <component glyphName="dotbelowcomb" x="540" y="0" flags="0x4"/>
    </TTGlyph>
    <TTGlyph name="ae" xMin="42" yMin="-20" xMax="1751" yMax="1102">
      <contour>
        <pt x="1027" y="476" on="1"/>
        <pt x="1020" y="438" on="0"/>
        <pt x="1020" y="387" on="1"/>
        <pt x="1020" y="281" on="0"/>
        <pt x="1113" y="168" on="0"/>
        <pt x="1204" y="168" on="1"/>
        <pt x="1351" y="168" on="0"/>
        <pt x="1417" y="337" on="1"/>
        <pt x="1662" y="263" on="1"/>
        <pt x="1587" y="104" on="0"/>
        <pt x="1365" y="-20" on="0"/>
        <pt x="1185" y="-20" on="1"/>
        <pt x="888" y="-20" on="0"/>
        <pt x="791" y="199" on="1"/>
        <pt x="740" y="119" on="0"/>
        <pt x="615" y="24" on="0"/>
        <pt x="468" y="-20" on="0"/>
        <pt x="349" y="-20" on="1"/>
        <pt x="209" y="-20" on="0"/>
        <pt x="42" y="147" on="0"/>
        <pt x="42" y="278" on="1"/>
        <pt x="42" y="660" on="0"/>
        <pt x="583" y="660" on="1"/>
        <pt x="774" y="660" on="1"/>
        <pt x="795" y="755" on="0"/>
        <pt x="795" y="791" on="1"/>
        <pt x="795" y="919" on="0"/>
        <pt x="668" y="919" on="1"/>
        <pt x="574" y="919" on="0"/>
        <pt x="482" y="846" on="0"/>
        <pt x="465" y="777" on="1"/>
        <pt x="202" y="808" on="1"/>
        <pt x="236" y="952" on="0"/>
        <pt x="475" y="1102" on="0"/>
        <pt x="673" y="1102" on="1"/>
        <pt x="880" y="1102" on="0"/>
        <pt x="973" y="989" on="1"/>
        <pt x="1113" y="1102" on="0"/>
        <pt x="1315" y="1102" on="1"/>
        <pt x="1524" y="1102" on="0"/>
        <pt x="1751" y="887" on="0"/>
        <pt x="1751" y="691" on="1"/>
        <pt x="1751" y="592" on="0"/>
        <pt x="1727" y="476" on="1"/>
      </contour>
      <contour>
        <pt x="743" y="500" on="1"/>
        <pt x="582" y="500" on="1"/>
        <pt x="469" y="500" on="0"/>
        <pt x="341" y="408" on="0"/>
        <pt x="341" y="325" on="1"/>
        <pt x="341" y="253" on="0"/>
        <pt x="410" y="176" on="0"/>
        <pt x="475" y="176" on="1"/>
        <pt x="558" y="176" on="0"/>
        <pt x="694" y="305" on="0"/>
        <pt x="721" y="411" on="1"/>
      </contour>
      <contour>
        <pt x="1491" y="663" on="1"/>
        <pt x="1494" y="719" on="1"/>
        <pt x="1494" y="826" on="0"/>
        <pt x="1395" y="924" on="0"/>
        <pt x="1315" y="924" on="1"/>
        <pt x="1219" y="924" on="0"/>
        <pt x="1088" y="791" on="0"/>
        <pt x="1060" y="663" on="1"/>
      </contour>
    </TTGlyph>
    <TTGlyph name="aeacute" xMin="42" yMin="-20" xMax="1751" yMax="1502">
      <component glyphName="ae" x="0" y="0" flags="0x204"/>
      <component glyphName="acute" x="643" y="0" flags="0x4"/>
    </TTGlyph>
    <TTGlyph name="agrave" xMin="10" yMin="-20" xMax="1079" yMax="1502">
      <component glyphName="a" x="0" y="0" flags="0x204"/>
      <component glyphName="grave" x="104" y="0" flags="0x4"/>
    </TTGlyph>
    <TTGlyph name="ahookabove" xMin="10" yMin="-20" xMax="1079" yMax="1531">
      <component glyphName="a" x="0" y="0" flags="0x204"/>
      <component glyphName="hookabove.alt2" x="1002" y="0" flags="0x4"/>
    </TTGlyph>
    <TTGlyph name="alef" xMin="-37" yMin="0" xMax="1438" yMax="1241">
      <contour>
        <pt x="272" y="1241" on="1"/>
        <pt x="582" y="1241" on="1"/>
        <pt x="879" y="680" on="1"/>
        <pt x="964" y="747" on="0"/>
        <pt x="1066" y="907" on="0"/>
        <pt x="1098" y="1022" on="1"/>
        <pt x="1161" y="1241" on="1"/>
        <pt x="1438" y="1241" on="1"/>
        <pt x="1366" y="1004" on="1"/>
        <pt x="1337" y="907" on="0"/>
        <pt x="1246" y="754" on="0"/>
        <pt x="1115" y="619" on="0"/>
        <pt x="969" y="508" on="1"/>
        <pt x="1243" y="0" on="1"/>
        <pt x="940" y="0" on="1"/>
        <pt x="575" y="692" on="1"/>
        <pt x="528" y="667" on="0"/>
        <pt x="473" y="601" on="0"/>
        <pt x="416" y="477" on="0"/>
        <pt x="375" y="362" on="1"/>
        <pt x="244" y="0" on="1"/>
        <pt x="-37" y="0" on="1"/>
        <pt x="127" y="414" on="1"/>
        <pt x="217" y="634" on="0"/>
        <pt x="356" y="803" on="0"/>
        <pt x="485" y="854" on="1"/>
      </contour>
    </TTGlyph>
    <TTGlyph name="alefdagesh" xMin="-37" yMin="0" xMax="1438" yMax="1241">
      <component glyphName="alef" x="0" y="0" flags="0x204"/>
      <component glyphName="dagesh" x="520" y="-585" flags="0x4"/>
    </TTGlyph>
    <TTGlyph name="aleflamed" xMin="182" yMin="0" xMax="1409" yMax="1679">
      <contour>
        <pt x="352" y="1057" on="1"/>
        <pt x="182" y="1057" on="1"/>
        <pt x="303" y="1679" on="1"/>
        <pt x="573" y="1679" on="1"/>
        <pt x="487" y="1241" on="1"/>
        <pt x="561" y="1241" on="1"/>
        <pt x="858" y="678" on="1"/>
        <pt x="935" y="738" on="0"/>
        <pt x="1031" y="898" on="0"/>
        <pt x="1067" y="1022" on="1"/>
        <pt x="1133" y="1241" on="1"/>
        <pt x="1409" y="1241" on="1"/>
        <pt x="1337" y="1001" on="1"/>
        <pt x="1295" y="858" on="0"/>
        <pt x="1134" y="642" on="0"/>
        <pt x="952" y="506" on="1"/>
        <pt x="1111" y="212" on="0"/>
        <pt x="1229" y="0" on="1"/>
        <pt x="924" y="0" on="1"/>
      </contour>
    </TTGlyph>
    <TTGlyph name="aleflamedhatafsegol" xMin="182" yMin="-385" xMax="1409" yMax="1679">
      <component glyphName="aleflamed" x="0" y="0" flags="0x204"/>
      <component glyphName="hatafsegol" x="610" y="0" flags="0x4"/>
    </TTGlyph>
    <TTGlyph name="aleflamedsegol" xMin="182" yMin="-387" xMax="1409" yMax="1679">
      <component glyphName="aleflamed" x="0" y="0" flags="0x204"/>
      <component glyphName="segol" x="674" y="0" flags="0x4"/>
    </TTGlyph>
    <TTGlyph name="aleflamedtsere" xMin="182" yMin="-348" xMax="1409" yMax="1679">
      <component glyphName="aleflamed" x="0" y="0" flags="0x204"/>
      <component glyphName="tsere" x="680" y="0" flags="0x4"/>
    </TTGlyph>
    <TTGlyph name="alefmapiq" xMin="-37" yMin="0" xMax="1438" yMax="1241">
      <component glyphName="alef" x="0" y="0" flags="0x204"/>
      <component glyphName="dagesh" x="520" y="-585" flags="0x4"/>
    </TTGlyph>
    <TTGlyph name="alefpatah" xMin="-37" yMin="-231" xMax="1438" yMax="1241">
      <component glyphName="alef" x="0" y="0" flags="0x204"/>
      <component glyphName="patah" x="690" y="0" flags="0x4"/>
    </TTGlyph>
    <TTGlyph name="alefqamats" xMin="-37" yMin="-348" xMax="1438" yMax="1241">
      <component glyphName="alef" x="0" y="0" flags="0x204"/>
      <component glyphName="qamats" x="690" y="0" flags="0x4"/>
    </TTGlyph>
    <TTGlyph name="alefwide" xMin="-37" yMin="0" xMax="1438" yMax="1241">
      <component glyphName="alef" x="0" y="0" flags="0x204"/>
    </TTGlyph>
    <TTGlyph name="alpha" xMin="57" yMin="-21" xMax="1341" yMax="1101">
      <contour>
        <pt x="612" y="1101" on="1"/>
        <pt x="753" y="1101" on="0"/>
        <pt x="927" y="966" on="0"/>
        <pt x="950" y="847" on="1"/>
        <pt x="952" y="847" on="1"/>
        <pt x="968" y="890" on="0"/>
        <pt x="1045" y="1045" on="0"/>
        <pt x="1069" y="1082" on="1"/>
        <pt x="1341" y="1082" on="1"/>
        <pt x="1273" y="983" on="0"/>
        <pt x="1107" y="641" on="0"/>
        <pt x="1065" y="514" on="1"/>
        <pt x="1065" y="409" on="0"/>
        <pt x="1074" y="246" on="0"/>
        <pt x="1088" y="120" on="0"/>
        <pt x="1111" y="0" on="1"/>
        <pt x="833" y="0" on="1"/>
        <pt x="807" y="125" on="0"/>
        <pt x="807" y="225" on="1"/>
        <pt x="807" y="240" on="1"/>
        <pt x="803" y="240" on="1"/>
        <pt x="710" y="95" on="0"/>
        <pt x="522" y="-21" on="0"/>
        <pt x="405" y="-21" on="1"/>
        <pt x="238" y="-21" on="0"/>
        <pt x="57" y="189" on="0"/>
        <pt x="57" y="375" on="1"/>
        <pt x="57" y="505" on="0"/>
        <pt x="131" y="800" on="0"/>
        <pt x="271" y="1002" on="0"/>
        <pt x="473" y="1101" on="0"/>
      </contour>
      <contour>
        <pt x="616" y="907" on="1"/>
        <pt x="527" y="907" on="0"/>
        <pt x="414" y="776" on="0"/>
        <pt x="349" y="504" on="0"/>
        <pt x="349" y="387" on="1"/>
        <pt x="349" y="174" on="0"/>
        <pt x="495" y="174" on="1"/>
        <pt x="580" y="174" on="0"/>
        <pt x="737" y="370" on="0"/>
        <pt x="790" y="552" on="1"/>
        <pt x="792" y="616" on="1"/>
        <pt x="792" y="755" on="0"/>
        <pt x="704" y="907" on="0"/>
      </contour>
    </TTGlyph>
    <TTGlyph name="alphatonos" xMin="57" yMin="-21" xMax="1341" yMax="1508">
      <component glyphName="alpha" x="0" y="0" flags="0x204"/>
      <component glyphName="tonos" x="454" y="0" flags="0x4"/>
    </TTGlyph>
    <TTGlyph name="alt_plussign" xMin="90" yMin="457" xMax="1149" yMax="1143">
      <contour>
        <pt x="1149" y="457" on="1"/>
        <pt x="90" y="457" on="1"/>
        <pt x="90" y="715" on="1"/>
        <pt x="481" y="715" on="1"/>
        <pt x="481" y="1143" on="1"/>
        <pt x="754" y="1143" on="1"/>
        <pt x="754" y="715" on="1"/>
        <pt x="1149" y="715" on="1"/>
      </contour>
    </TTGlyph>
    <TTGlyph name="alternativeayin" xMin="-70" yMin="-47" xMax="1303" yMax="1241">
      <component glyphName="ayin" x="0" y="0" flags="0x204"/>
    </TTGlyph>
    <TTGlyph name="alternativelamed" xMin="78" yMin="-59" xMax="1145" yMax="1665">
      <component glyphName="lamed" x="0" y="0" flags="0x204"/>
    </TTGlyph>
    <TTGlyph name="amacron" xMin="10" yMin="-20" xMax="1079" yMax="1371">
      <component glyphName="a" x="0" y="0" flags="0x204"/>
      <component glyphName="macron" x="218" y="0" flags="0x4"/>
    </TTGlyph>
    <TTGlyph name="ampersand" xMin="49" yMin="-20" xMax="1346" yMax="1417">
      <contour>
        <pt x="49" y="354" on="1"/>
        <pt x="49" y="663" on="0"/>
        <pt x="475" y="811" on="1"/>
        <pt x="460" y="859" on="0"/>
        <pt x="440" y="985" on="0"/>
        <pt x="440" y="1037" on="1"/>
        <pt x="440" y="1209" on="0"/>
        <pt x="669" y="1417" on="0"/>
        <pt x="868" y="1417" on="1"/>
        <pt x="1027" y="1417" on="0"/>
        <pt x="1204" y="1282" on="0"/>
        <pt x="1204" y="1160" on="1"/>
        <pt x="1204" y="1069" on="0"/>
        <pt x="1113" y="928" on="0"/>
        <pt x="942" y="811" on="0"/>
        <pt x="736" y="727" on="1"/>
        <pt x="779" y="608" on="0"/>
        <pt x="855" y="466" on="0"/>
        <pt x="908" y="395" on="1"/>
        <pt x="1041" y="537" on="0"/>
        <pt x="1142" y="760" on="1"/>
        <pt x="1329" y="677" on="1"/>
        <pt x="1284" y="573" on="0"/>
        <pt x="1134" y="346" on="0"/>
        <pt x="1051" y="261" on="1"/>
        <pt x="1126" y="197" on="0"/>
        <pt x="1235" y="197" on="1"/>
        <pt x="1298" y="197" on="0"/>
        <pt x="1346" y="213" on="1"/>
        <pt x="1307" y="10" on="1"/>
        <pt x="1241" y="-12" on="0"/>
        <pt x="1168" y="-12" on="1"/>
        <pt x="994" y="-12" on="0"/>
        <pt x="863" y="105" on="1"/>
        <pt x="792" y="50" on="0"/>
        <pt x="688" y="5" on="0"/>
        <pt x="550" y="-20" on="0"/>
        <pt x="464" y="-20" on="1"/>
        <pt x="263" y="-20" on="0"/>
        <pt x="49" y="173" on="0"/>
      </contour>
      <contour>
        <pt x="493" y="170" on="1"/>
        <pt x="556" y="170" on="0"/>
        <pt x="680" y="215" on="0"/>
        <pt x="725" y="249" on="1"/>
        <pt x="601" y="413" on="0"/>
        <pt x="525" y="631" on="1"/>
        <pt x="401" y="575" on="0"/>
        <pt x="304" y="443" on="0"/>
        <pt x="304" y="360" on="1"/>
        <pt x="304" y="275" on="0"/>
        <pt x="408" y="170" on="0"/>
      </contour>
      <contour>
        <pt x="667" y="1041" on="1"/>
        <pt x="667" y="960" on="0"/>
        <pt x="687" y="896" on="1"/>
        <pt x="829" y="950" on="0"/>
        <pt x="929" y="1013" on="0"/>
        <pt x="980" y="1091" on="0"/>
        <pt x="980" y="1142" on="1"/>
        <pt x="980" y="1193" on="0"/>
        <pt x="913" y="1247" on="0"/>
        <pt x="855" y="1247" on="1"/>
        <pt x="770" y="1247" on="0"/>
        <pt x="667" y="1137" on="0"/>
      </contour>
    </TTGlyph>
    <TTGlyph name="anoteleia" xMin="183" yMin="531" xMax="530" yMax="836">
      <component glyphName="middot" x="-6" y="0" flags="0x204"/>
    </TTGlyph>
    <TTGlyph name="aogonek" xMin="10" yMin="-425" xMax="1079" yMax="1102">
      <component glyphName="a" x="0" y="0" flags="0x204"/>
      <component glyphName="ogonek" x="502" y="0" flags="0x4"/>
    </TTGlyph>
    <TTGlyph name="approxequal" xMin="68" yMin="274" xMax="1106" yMax="1079">
      <contour>
        <pt x="839" y="756" on="1"/>
        <pt x="764" y="756" on="0"/>
        <pt x="619" y="797" on="0"/>
        <pt x="544" y="823" on="1"/>
        <pt x="412" y="870" on="0"/>
        <pt x="323" y="870" on="1"/>
        <pt x="256" y="870" on="0"/>
        <pt x="138" y="831" on="0"/>
        <pt x="68" y="782" on="1"/>
        <pt x="68" y="995" on="1"/>
        <pt x="178" y="1079" on="0"/>
        <pt x="339" y="1079" on="1"/>
        <pt x="419" y="1079" on="0"/>
        <pt x="572" y="1035" on="0"/>
        <pt x="646" y="1009" on="1"/>
        <pt x="784" y="963" on="0"/>
        <pt x="858" y="963" on="1"/>
        <pt x="992" y="963" on="0"/>
        <pt x="1106" y="1055" on="1"/>
        <pt x="1106" y="836" on="1"/>
        <pt x="1043" y="791" on="0"/>
        <pt x="923" y="756" on="0"/>
      </contour>
      <contour>
        <pt x="839" y="274" on="1"/>
        <pt x="718" y="274" on="0"/>
        <pt x="544" y="344" on="1"/>
        <pt x="415" y="389" on="0"/>
        <pt x="323" y="389" on="1"/>
        <pt x="252" y="389" on="0"/>
        <pt x="133" y="346" on="0"/>
        <pt x="68" y="301" on="1"/>
        <pt x="68" y="514" on="1"/>
        <pt x="181" y="598" on="0"/>
        <pt x="339" y="598" on="1"/>
        <pt x="422" y="598" on="0"/>
        <pt x="582" y="552" on="0"/>
        <pt x="658" y="526" on="1"/>
        <pt x="760" y="494" on="0"/>
        <pt x="830" y="481" on="0"/>
        <pt x="858" y="481" on="1"/>
        <pt x="992" y="481" on="0"/>
        <pt x="1106" y="573" on="1"/>
        <pt x="1106" y="354" on="1"/>
        <pt x="1042" y="310" on="0"/>
        <pt x="925" y="274" on="0"/>
      </contour>
    </TTGlyph>
    <TTGlyph name="aring" xMin="10" yMin="-20" xMax="1079" yMax="1685">
      <component glyphName="a" x="0" y="0" flags="0x204"/>
      <component glyphName="ring" x="226" y="41" flags="0x4"/>
    </TTGlyph>
    <TTGlyph name="aringacute" xMin="10" yMin="-20" xMax="1199" yMax="1970">
      <component glyphName="a" x="0" y="0" flags="0x204"/>
      <component glyphName="ring" x="222" y="0" flags="0x4"/>
      <component glyphName="acute.uc" x="378" y="162" flags="0x4"/>
    </TTGlyph>
    <TTGlyph name="arrowboth" xMin="418" yMin="100" xMax="1630" yMax="580">
      <contour>
        <pt x="641" y="297" on="1"/>
        <pt x="698" y="230" on="0"/>
        <pt x="760" y="100" on="1"/>
        <pt x="688" y="100" on="1"/>
        <pt x="561" y="249" on="0"/>
        <pt x="418" y="322" on="1"/>
        <pt x="418" y="358" on="1"/>
        <pt x="561" y="431" on="0"/>
        <pt x="688" y="580" on="1"/>
        <pt x="760" y="580" on="1"/>
        <pt x="698" y="450" on="0"/>
        <pt x="641" y="383" on="1"/>
        <pt x="1407" y="383" on="1"/>
        <pt x="1350" y="450" on="0"/>
        <pt x="1288" y="580" on="1"/>
        <pt x="1360" y="580" on="1"/>
        <pt x="1487" y="431" on="0"/>
        <pt x="1630" y="358" on="1"/>
        <pt x="1630" y="322" on="1"/>
        <pt x="1487" y="249" on="0"/>
        <pt x="1360" y="100" on="1"/>
        <pt x="1288" y="100" on="1"/>
        <pt x="1350" y="230" on="0"/>
        <pt x="1407" y="297" on="1"/>
      </contour>
    </TTGlyph>
    <TTGlyph name="arrowdown" xMin="272" yMin="-61" xMax="752" yMax="1151">
      <contour>
        <pt x="555" y="162" on="1"/>
        <pt x="622" y="219" on="0"/>
        <pt x="752" y="281" on="1"/>
        <pt x="752" y="209" on="1"/>
        <pt x="603" y="82" on="0"/>
        <pt x="530" y="-61" on="1"/>
        <pt x="494" y="-61" on="1"/>
        <pt x="421" y="82" on="0"/>
        <pt x="272" y="209" on="1"/>
        <pt x="272" y="281" on="1"/>
        <pt x="402" y="219" on="0"/>
        <pt x="469" y="162" on="1"/>
        <pt x="469" y="1151" on="1"/>
        <pt x="555" y="1151" on="1"/>
      </contour>
    </TTGlyph>
    <TTGlyph name="arrowleft" xMin="418" yMin="100" xMax="1630" yMax="580">
      <contour>
        <pt x="641" y="297" on="1"/>
        <pt x="698" y="230" on="0"/>
        <pt x="760" y="100" on="1"/>
        <pt x="688" y="100" on="1"/>
        <pt x="561" y="249" on="0"/>
        <pt x="418" y="322" on="1"/>
        <pt x="418" y="358" on="1"/>
        <pt x="561" y="431" on="0"/>
        <pt x="688" y="580" on="1"/>
        <pt x="760" y="580" on="1"/>
        <pt x="698" y="450" on="0"/>
        <pt x="641" y="383" on="1"/>
        <pt x="1630" y="383" on="1"/>
        <pt x="1630" y="297" on="1"/>
      </contour>
    </TTGlyph>
    <TTGlyph name="arrowright" xMin="418" yMin="100" xMax="1630" yMax="580">
      <contour>
        <pt x="1407" y="383" on="1"/>
        <pt x="1350" y="450" on="0"/>
        <pt x="1288" y="580" on="1"/>
        <pt x="1360" y="580" on="1"/>
        <pt x="1487" y="431" on="0"/>
        <pt x="1630" y="358" on="1"/>
        <pt x="1630" y="322" on="1"/>
        <pt x="1487" y="249" on="0"/>
        <pt x="1360" y="100" on="1"/>
        <pt x="1288" y="100" on="1"/>
        <pt x="1350" y="230" on="0"/>
        <pt x="1407" y="297" on="1"/>
        <pt x="418" y="297" on="1"/>
        <pt x="418" y="383" on="1"/>
      </contour>
    </TTGlyph>
    <TTGlyph name="arrowup" xMin="272" yMin="-61" xMax="752" yMax="1151">
      <contour>
        <pt x="469" y="928" on="1"/>
        <pt x="402" y="871" on="0"/>
        <pt x="272" y="809" on="1"/>
        <pt x="272" y="881" on="1"/>
        <pt x="421" y="1008" on="0"/>
        <pt x="494" y="1151" on="1"/>
        <pt x="530" y="1151" on="1"/>
        <pt x="603" y="1008" on="0"/>
        <pt x="752" y="881" on="1"/>
        <pt x="752" y="809" on="1"/>
        <pt x="622" y="871" on="0"/>
        <pt x="555" y="928" on="1"/>
        <pt x="555" y="-61" on="1"/>
        <pt x="469" y="-61" on="1"/>
      </contour>
    </TTGlyph>
    <TTGlyph name="arrowupdn" xMin="272" yMin="-61" xMax="752" yMax="1151">
      <contour>
        <pt x="469" y="928" on="1"/>
        <pt x="402" y="871" on="0"/>
        <pt x="272" y="809" on="1"/>
        <pt x="272" y="881" on="1"/>
        <pt x="421" y="1008" on="0"/>
        <pt x="494" y="1151" on="1"/>
        <pt x="530" y="1151" on="1"/>
        <pt x="603" y="1008" on="0"/>
        <pt x="752" y="881" on="1"/>
        <pt x="752" y="809" on="1"/>
        <pt x="622" y="871" on="0"/>
        <pt x="555" y="928" on="1"/>
        <pt x="555" y="162" on="1"/>
        <pt x="622" y="219" on="0"/>
        <pt x="752" y="281" on="1"/>
        <pt x="752" y="209" on="1"/>
        <pt x="603" y="82" on="0"/>
        <pt x="530" y="-61" on="1"/>
        <pt x="494" y="-61" on="1"/>
        <pt x="421" y="82" on="0"/>
        <pt x="272" y="209" on="1"/>
        <pt x="272" y="281" on="1"/>
        <pt x="402" y="219" on="0"/>
        <pt x="469" y="162" on="1"/>
      </contour>
    </TTGlyph>
    <TTGlyph name="arrowupdnbse" xMin="272" yMin="-184" xMax="752" yMax="1151">
      <contour>
        <pt x="272" y="-104" on="1"/>
        <pt x="752" y="-104" on="1"/>
        <pt x="752" y="-184" on="1"/>
        <pt x="272" y="-184" on="1"/>
      </contour>
      <contour>
        <pt x="469" y="928" on="1"/>
        <pt x="402" y="871" on="0"/>
        <pt x="272" y="809" on="1"/>
        <pt x="272" y="881" on="1"/>
        <pt x="421" y="1008" on="0"/>
        <pt x="494" y="1151" on="1"/>
        <pt x="530" y="1151" on="1"/>
        <pt x="603" y="1008" on="0"/>
        <pt x="752" y="881" on="1"/>
        <pt x="752" y="809" on="1"/>
        <pt x="622" y="871" on="0"/>
        <pt x="555" y="928" on="1"/>
        <pt x="555" y="162" on="1"/>
        <pt x="622" y="219" on="0"/>
        <pt x="752" y="281" on="1"/>
        <pt x="752" y="209" on="1"/>
        <pt x="603" y="82" on="0"/>
        <pt x="530" y="-61" on="1"/>
        <pt x="494" y="-61" on="1"/>
        <pt x="421" y="82" on="0"/>
        <pt x="272" y="209" on="1"/>
        <pt x="272" y="281" on="1"/>
        <pt x="402" y="219" on="0"/>
        <pt x="469" y="162" on="1"/>
      </contour>
    </TTGlyph>
    <TTGlyph name="asciicircum" xMin="85" yMin="514" xMax="1191" yMax="1409">
      <contour>
        <pt x="962" y="514" on="1"/>
        <pt x="636" y="1266" on="1"/>
        <pt x="312" y="514" on="1"/>
        <pt x="85" y="514" on="1"/>
        <pt x="476" y="1409" on="1"/>
        <pt x="798" y="1409" on="1"/>
        <pt x="1191" y="514" on="1"/>
      </contour>
    </TTGlyph>
    <TTGlyph name="asciitilde" xMin="118" yMin="516" xMax="1156" yMax="840">
      <contour>
        <pt x="889" y="516" on="1"/>
        <pt x="814" y="516" on="0"/>
        <pt x="669" y="558" on="0"/>
        <pt x="594" y="584" on="1"/>
        <pt x="459" y="631" on="0"/>
        <pt x="373" y="631" on="1"/>
        <pt x="302" y="631" on="0"/>
        <pt x="183" y="588" on="0"/>
        <pt x="118" y="543" on="1"/>
        <pt x="118" y="756" on="1"/>
        <pt x="231" y="840" on="0"/>
        <pt x="389" y="840" on="1"/>
        <pt x="469" y="840" on="0"/>
        <pt x="622" y="796" on="0"/>
        <pt x="696" y="770" on="1"/>
        <pt x="830" y="723" on="0"/>
        <pt x="908" y="723" on="1"/>
        <pt x="1042" y="723" on="0"/>
        <pt x="1156" y="815" on="1"/>
        <pt x="1156" y="596" on="1"/>
        <pt x="1092" y="552" on="0"/>
        <pt x="975" y="516" on="0"/>
      </contour>
    </TTGlyph>
    <TTGlyph name="asterisk" xMin="88" yMin="647" xMax="877" yMax="1409">
      <contour>
        <pt x="574" y="1135" on="1"/>
        <pt x="809" y="1239" on="1"/>
        <pt x="877" y="1042" on="1"/>
        <pt x="627" y="981" on="1"/>
        <pt x="813" y="768" on="1"/>
        <pt x="629" y="647" on="1"/>
        <pt x="483" y="899" on="1"/>
        <pt x="334" y="647" on="1"/>
        <pt x="148" y="770" on="1"/>
        <pt x="338" y="981" on="1"/>
        <pt x="88" y="1042" on="1"/>
        <pt x="156" y="1239" on="1"/>
        <pt x="395" y="1135" on="1"/>
        <pt x="377" y="1409" on="1"/>
        <pt x="592" y="1409" on="1"/>
      </contour>
    </TTGlyph>
    <TTGlyph name="at" xMin="150" yMin="-294" xMax="1911" yMax="1484">
      <contour>
        <pt x="1911" y="755" on="1"/>
        <pt x="1911" y="573" on="0"/>
        <pt x="1784" y="273" on="0"/>
        <pt x="1560" y="104" on="0"/>
        <pt x="1430" y="104" on="1"/>
        <pt x="1338" y="104" on="0"/>
        <pt x="1239" y="195" on="0"/>
        <pt x="1239" y="276" on="1"/>
        <pt x="1239" y="313" on="0"/>
        <pt x="1245" y="343" on="1"/>
        <pt x="1239" y="343" on="1"/>
        <pt x="1189" y="238" on="0"/>
        <pt x="992" y="104" on="0"/>
        <pt x="889" y="104" on="1"/>
        <pt x="732" y="104" on="0"/>
        <pt x="559" y="307" on="0"/>
        <pt x="559" y="489" on="1"/>
        <pt x="559" y="652" on="0"/>
        <pt x="688" y="938" on="0"/>
        <pt x="917" y="1101" on="0"/>
        <pt x="1059" y="1101" on="1"/>
        <pt x="1254" y="1101" on="0"/>
        <pt x="1323" y="927" on="1"/>
        <pt x="1329" y="927" on="1"/>
        <pt x="1368" y="1079" on="1"/>
        <pt x="1524" y="1079" on="1"/>
        <pt x="1407" y="573" on="1"/>
        <pt x="1370" y="401" on="0"/>
        <pt x="1370" y="333" on="1"/>
        <pt x="1370" y="283" on="0"/>
        <pt x="1417" y="241" on="0"/>
        <pt x="1448" y="241" on="1"/>
        <pt x="1528" y="241" on="0"/>
        <pt x="1674" y="380" on="0"/>
        <pt x="1759" y="613" on="0"/>
        <pt x="1759" y="753" on="1"/>
        <pt x="1759" y="928" on="0"/>
        <pt x="1606" y="1197" on="0"/>
        <pt x="1318" y="1343" on="0"/>
        <pt x="1127" y="1343" on="1"/>
        <pt x="887" y="1343" on="0"/>
        <pt x="521" y="1133" on="0"/>
        <pt x="312" y="737" on="0"/>
        <pt x="312" y="491" on="1"/>
        <pt x="312" y="296" on="0"/>
        <pt x="471" y="1" on="0"/>
        <pt x="759" y="-150" on="0"/>
        <pt x="953" y="-150" on="1"/>
        <pt x="1247" y="-150" on="0"/>
        <pt x="1542" y="5" on="1"/>
        <pt x="1604" y="-117" on="1"/>
        <pt x="1436" y="-212" on="0"/>
        <pt x="1115" y="-294" on="0"/>
        <pt x="946" y="-294" on="1"/>
        <pt x="710" y="-294" on="0"/>
        <pt x="351" y="-103" on="0"/>
        <pt x="150" y="258" on="0"/>
        <pt x="150" y="491" on="1"/>
        <pt x="150" y="774" on="0"/>
        <pt x="403" y="1232" on="0"/>
        <pt x="849" y="1484" on="0"/>
        <pt x="1125" y="1484" on="1"/>
        <pt x="1368" y="1484" on="0"/>
        <pt x="1724" y="1303" on="0"/>
        <pt x="1911" y="973" on="0"/>
      </contour>
      <contour>
        <pt x="1264" y="751" on="1"/>
        <pt x="1264" y="846" on="0"/>
        <pt x="1145" y="966" on="0"/>
        <pt x="1051" y="966" on="1"/>
        <pt x="957" y="966" on="0"/>
        <pt x="808" y="841" on="0"/>
        <pt x="725" y="612" on="0"/>
        <pt x="725" y="491" on="1"/>
        <pt x="725" y="377" on="0"/>
        <pt x="822" y="245" on="0"/>
        <pt x="922" y="245" on="1"/>
        <pt x="988" y="245" on="0"/>
        <pt x="1113" y="329" on="0"/>
        <pt x="1211" y="488" on="0"/>
        <pt x="1264" y="691" on="0"/>
      </contour>
    </TTGlyph>
    <TTGlyph name="atilde" xMin="10" yMin="-20" xMax="1108" yMax="1476">
      <component glyphName="a" x="0" y="0" flags="0x204"/>
      <component glyphName="tilde" x="204" y="0" flags="0x4"/>
    </TTGlyph>
    <TTGlyph name="ayin" xMin="-70" yMin="-47" xMax="1303" yMax="1241">
      <contour>
        <pt x="393" y="270" on="1"/>
        <pt x="227" y="1241" on="1"/>
        <pt x="520" y="1241" on="1"/>
        <pt x="651" y="391" on="1"/>
        <pt x="784" y="485" on="0"/>
        <pt x="956" y="884" on="0"/>
        <pt x="1024" y="1241" on="1"/>
        <pt x="1303" y="1241" on="1"/>
        <pt x="1210" y="762" on="0"/>
        <pt x="892" y="225" on="0"/>
        <pt x="365" y="-29" on="0"/>
        <pt x="-70" y="-47" on="1"/>
        <pt x="-18" y="219" on="1"/>
        <pt x="242" y="224" on="0"/>
      </contour>
    </TTGlyph>
    <TTGlyph name="b" xMin="35" yMin="-20" xMax="1192" yMax="1484">
      <contour>
        <pt x="855" y="1102" on="1"/>
        <pt x="1014" y="1102" on="0"/>
        <pt x="1192" y="913" on="0"/>
        <pt x="1192" y="748" on="1"/>
        <pt x="1192" y="734" on="1"/>
        <pt x="1192" y="546" on="0"/>
        <pt x="1068" y="163" on="0"/>
        <pt x="843" y="-20" on="0"/>
        <pt x="669" y="-20" on="1"/>
        <pt x="544" y="-20" on="0"/>
        <pt x="388" y="84" on="0"/>
        <pt x="356" y="178" on="1"/>
        <pt x="354" y="178" on="1"/>
        <pt x="326" y="67" on="1"/>
        <pt x="306" y="0" on="1"/>
        <pt x="35" y="0" on="1"/>
        <pt x="40" y="15" on="0"/>
        <pt x="69" y="149" on="0"/>
        <pt x="84" y="223" on="1"/>
        <pt x="330" y="1484" on="1"/>
        <pt x="611" y="1484" on="1"/>
        <pt x="527" y="1057" on="1"/>
        <pt x="499" y="913" on="0"/>
        <pt x="495" y="913" on="1"/>
        <pt x="499" y="913" on="1"/>
        <pt x="555" y="997" on="0"/>
        <pt x="734" y="1102" on="0"/>
      </contour>
      <contour>
        <pt x="735" y="907" on="1"/>
        <pt x="609" y="907" on="0"/>
        <pt x="458" y="731" on="0"/>
        <pt x="424" y="554" on="1"/>
        <pt x="407" y="461" on="0"/>
        <pt x="407" y="401" on="1"/>
        <pt x="407" y="294" on="0"/>
        <pt x="513" y="173" on="0"/>
        <pt x="608" y="173" on="1"/>
        <pt x="709" y="173" on="0"/>
        <pt x="823" y="298" on="0"/>
        <pt x="899" y="597" on="0"/>
        <pt x="899" y="694" on="1"/>
        <pt x="899" y="799" on="0"/>
        <pt x="828" y="907" on="0"/>
      </contour>
    </TTGlyph>
    <TTGlyph name="backslash" xMin="111" yMin="-41" xMax="532" yMax="1485">
      <contour>
        <pt x="289" y="-41" on="1"/>
        <pt x="111" y="1485" on="1"/>
        <pt x="349" y="1485" on="1"/>
        <pt x="532" y="-41" on="1"/>
      </contour>
    </TTGlyph>
    <TTGlyph name="bar" xMin="191" yMin="-425" xMax="453" yMax="1484">
      <contour>
        <pt x="191" y="-425" on="1"/>
        <pt x="191" y="1484" on="1"/>
        <pt x="453" y="1484" on="1"/>
        <pt x="453" y="-425" on="1"/>
      </contour>
    </TTGlyph>
    <TTGlyph name="bari.dotless" xMin="5" yMin="0" xMax="569" yMax="1082">
      <contour>
        <pt x="44" y="658" on="1"/>
        <pt x="165" y="658" on="1"/>
        <pt x="248" y="1082" on="1"/>
        <pt x="529" y="1082" on="1"/>
        <pt x="446" y="658" on="1"/>
        <pt x="569" y="658" on="1"/>
        <pt x="530" y="455" on="1"/>
        <pt x="407" y="455" on="1"/>
        <pt x="318" y="0" on="1"/>
        <pt x="37" y="0" on="1"/>
        <pt x="126" y="455" on="1"/>
        <pt x="5" y="455" on="1"/>
      </contour>
    </TTGlyph>
    <TTGlyph name="bet" xMin="-20" yMin="0" xMax="1184" yMax="1241">
      <contour>
        <pt x="221" y="999" on="1"/>
        <pt x="268" y="1241" on="1"/>
        <pt x="690" y="1241" on="1"/>
        <pt x="930" y="1241" on="0"/>
        <pt x="1157" y="1066" on="0"/>
        <pt x="1157" y="881" on="1"/>
        <pt x="1157" y="790" on="0"/>
        <pt x="1135" y="676" on="1"/>
        <pt x="1051" y="242" on="1"/>
        <pt x="1184" y="242" on="1"/>
        <pt x="1137" y="0" on="1"/>
        <pt x="-20" y="0" on="1"/>
        <pt x="27" y="242" on="1"/>
        <pt x="780" y="242" on="1"/>
        <pt x="866" y="684" on="1"/>
        <pt x="881" y="772" on="0"/>
        <pt x="881" y="821" on="1"/>
        <pt x="881" y="912" on="0"/>
        <pt x="768" y="999" on="0"/>
        <pt x="639" y="999" on="1"/>
      </contour>
    </TTGlyph>
    <TTGlyph name="beta" xMin="-44" yMin="-425" xMax="1203" yMax="1484">
      <contour>
        <pt x="792" y="1484" on="1"/>
        <pt x="977" y="1484" on="0"/>
        <pt x="1203" y="1304" on="0"/>
        <pt x="1203" y="1159" on="1"/>
        <pt x="1203" y="1076" on="0"/>
        <pt x="1154" y="946" on="0"/>
        <pt x="1073" y="852" on="0"/>
        <pt x="967" y="794" on="0"/>
        <pt x="910" y="782" on="1"/>
        <pt x="1023" y="755" on="0"/>
        <pt x="1164" y="582" on="0"/>
        <pt x="1164" y="461" on="1"/>
        <pt x="1164" y="240" on="0"/>
        <pt x="887" y="-20" on="0"/>
        <pt x="651" y="-20" on="1"/>
        <pt x="551" y="-20" on="0"/>
        <pt x="390" y="36" on="0"/>
        <pt x="336" y="74" on="1"/>
        <pt x="330" y="74" on="1"/>
        <pt x="315" y="-29" on="1"/>
        <pt x="309" y="-67" on="0"/>
        <pt x="238" y="-425" on="1"/>
        <pt x="-44" y="-425" on="1"/>
        <pt x="235" y="1011" on="1"/>
        <pt x="327" y="1484" on="0"/>
      </contour>
      <contour>
        <pt x="769" y="1281" on="1"/>
        <pt x="570" y="1281" on="0"/>
        <pt x="517" y="1009" on="1"/>
        <pt x="370" y="255" on="1"/>
        <pt x="422" y="217" on="0"/>
        <pt x="548" y="172" on="0"/>
        <pt x="605" y="172" on="1"/>
        <pt x="737" y="172" on="0"/>
        <pt x="886" y="323" on="0"/>
        <pt x="886" y="457" on="1"/>
        <pt x="886" y="558" on="0"/>
        <pt x="732" y="676" on="0"/>
        <pt x="604" y="676" on="1"/>
        <pt x="644" y="874" on="1"/>
        <pt x="932" y="908" on="0"/>
        <pt x="932" y="1123" on="1"/>
        <pt x="932" y="1193" on="0"/>
        <pt x="851" y="1281" on="0"/>
      </contour>
    </TTGlyph>
    <TTGlyph name="betdagesh" xMin="-20" yMin="0" xMax="1184" yMax="1241">
      <component glyphName="bet" x="0" y="0" flags="0x204"/>
      <component glyphName="dagesh" x="467" y="0" flags="0x4"/>
    </TTGlyph>
    <TTGlyph name="betrafe" xMin="-20" yMin="0" xMax="1184" yMax="1579">
      <component glyphName="bet" x="0" y="0" flags="0x204"/>
      <component glyphName="rafe" x="559" y="0" flags="0x4"/>
    </TTGlyph>
    <TTGlyph name="block" xMin="0" yMin="-621" xMax="1451" yMax="1864">
      <contour>
        <pt x="1451" y="-621" on="1"/>
        <pt x="0" y="-621" on="1"/>
        <pt x="0" y="1864" on="1"/>
        <pt x="1451" y="1864" on="1"/>
      </contour>
    </TTGlyph>
    <TTGlyph name="braceleft" xMin="19" yMin="-425" xMax="942" yMax="1484">
      <contour>
        <pt x="388" y="-425" on="1"/>
        <pt x="269" y="-425" on="0"/>
        <pt x="132" y="-304" on="0"/>
        <pt x="132" y="-202" on="1"/>
        <pt x="132" y="-158" on="0"/>
        <pt x="143" y="-101" on="1"/>
        <pt x="204" y="207" on="1"/>
        <pt x="211" y="242" on="0"/>
        <pt x="211" y="275" on="1"/>
        <pt x="211" y="429" on="0"/>
        <pt x="19" y="433" on="1"/>
        <pt x="57" y="625" on="1"/>
        <pt x="288" y="629" on="0"/>
        <pt x="331" y="852" on="1"/>
        <pt x="398" y="1190" on="1"/>
        <pt x="427" y="1336" on="0"/>
        <pt x="594" y="1484" on="0"/>
        <pt x="748" y="1484" on="1"/>
        <pt x="942" y="1484" on="1"/>
        <pt x="905" y="1294" on="1"/>
        <pt x="829" y="1294" on="1"/>
        <pt x="747" y="1294" on="0"/>
        <pt x="661" y="1201" on="0"/>
        <pt x="639" y="1089" on="1"/>
        <pt x="579" y="779" on="1"/>
        <pt x="560" y="685" on="0"/>
        <pt x="420" y="552" on="0"/>
        <pt x="323" y="532" on="1"/>
        <pt x="322" y="528" on="1"/>
        <pt x="396" y="509" on="0"/>
        <pt x="485" y="408" on="0"/>
        <pt x="485" y="333" on="1"/>
        <pt x="485" y="304" on="0"/>
        <pt x="480" y="281" on="1"/>
        <pt x="415" y="-53" on="1"/>
        <pt x="406" y="-95" on="0"/>
        <pt x="406" y="-129" on="1"/>
        <pt x="406" y="-182" on="0"/>
        <pt x="472" y="-234" on="0"/>
        <pt x="528" y="-234" on="1"/>
        <pt x="608" y="-234" on="1"/>
        <pt x="571" y="-425" on="1"/>
      </contour>
    </TTGlyph>
    <TTGlyph name="braceright" xMin="-155" yMin="-425" xMax="768" yMax="1485">
      <contour>
        <pt x="399" y="1485" on="1"/>
        <pt x="518" y="1485" on="0"/>
        <pt x="655" y="1364" on="0"/>
        <pt x="655" y="1262" on="1"/>
        <pt x="655" y="1216" on="0"/>
        <pt x="644" y="1161" on="1"/>
        <pt x="583" y="853" on="1"/>
        <pt x="576" y="820" on="0"/>
        <pt x="576" y="785" on="1"/>
        <pt x="576" y="708" on="0"/>
        <pt x="669" y="629" on="0"/>
        <pt x="768" y="627" on="1"/>
        <pt x="730" y="435" on="1"/>
        <pt x="612" y="433" on="0"/>
        <pt x="478" y="320" on="0"/>
        <pt x="456" y="207" on="1"/>
        <pt x="389" y="-130" on="1"/>
        <pt x="358" y="-282" on="0"/>
        <pt x="189" y="-425" on="0"/>
        <pt x="39" y="-425" on="1"/>
        <pt x="-155" y="-425" on="1"/>
        <pt x="-118" y="-235" on="1"/>
        <pt x="-42" y="-235" on="1"/>
        <pt x="40" y="-235" on="0"/>
        <pt x="126" y="-142" on="0"/>
        <pt x="148" y="-30" on="1"/>
        <pt x="208" y="280" on="1"/>
        <pt x="227" y="375" on="0"/>
        <pt x="367" y="508" on="0"/>
        <pt x="464" y="528" on="1"/>
        <pt x="465" y="531" on="1"/>
        <pt x="390" y="550" on="0"/>
        <pt x="302" y="653" on="0"/>
        <pt x="302" y="727" on="1"/>
        <pt x="302" y="756" on="0"/>
        <pt x="307" y="779" on="1"/>
        <pt x="372" y="1112" on="1"/>
        <pt x="381" y="1157" on="0"/>
        <pt x="381" y="1189" on="1"/>
        <pt x="381" y="1242" on="0"/>
        <pt x="315" y="1294" on="0"/>
        <pt x="259" y="1294" on="1"/>
        <pt x="179" y="1294" on="1"/>
        <pt x="216" y="1485" on="1"/>
      </contour>
    </TTGlyph>
    <TTGlyph name="bracketleft" xMin="-54" yMin="-425" xMax="858" yMax="1484">
      <contour>
        <pt x="-54" y="-425" on="1"/>
        <pt x="316" y="1484" on="1"/>
        <pt x="858" y="1484" on="1"/>
        <pt x="821" y="1294" on="1"/>
        <pt x="545" y="1294" on="1"/>
        <pt x="248" y="-234" on="1"/>
        <pt x="524" y="-234" on="1"/>
        <pt x="487" y="-425" on="1"/>
      </contour>
    </TTGlyph>
    <TTGlyph name="bracketright" xMin="-174" yMin="-425" xMax="738" yMax="1484">
      <contour>
        <pt x="-174" y="-425" on="1"/>
        <pt x="-137" y="-234" on="1"/>
        <pt x="140" y="-234" on="1"/>
        <pt x="437" y="1294" on="1"/>
        <pt x="159" y="1294" on="1"/>
        <pt x="196" y="1484" on="1"/>
        <pt x="738" y="1484" on="1"/>
        <pt x="367" y="-425" on="1"/>
      </contour>
    </TTGlyph>
    <TTGlyph name="breve" xMin="157" yMin="1183" xMax="867" yMax="1506">
      <contour>
        <pt x="470" y="1183" on="1"/>
        <pt x="330" y="1183" on="0"/>
        <pt x="157" y="1340" on="0"/>
        <pt x="157" y="1468" on="1"/>
        <pt x="159" y="1506" on="1"/>
        <pt x="322" y="1506" on="1"/>
        <pt x="322" y="1432" on="0"/>
        <pt x="413" y="1340" on="0"/>
        <pt x="486" y="1340" on="1"/>
        <pt x="564" y="1340" on="0"/>
        <pt x="679" y="1427" on="0"/>
        <pt x="703" y="1506" on="1"/>
        <pt x="867" y="1506" on="1"/>
        <pt x="824" y="1342" on="0"/>
        <pt x="630" y="1183" on="0"/>
      </contour>
    </TTGlyph>
    <TTGlyph name="breve.alt1" xMin="184" yMin="1198" xMax="810" yMax="1476">
      <contour>
        <pt x="462" y="1198" on="1"/>
        <pt x="335" y="1198" on="0"/>
        <pt x="184" y="1328" on="0"/>
        <pt x="184" y="1442" on="1"/>
        <pt x="186" y="1476" on="1"/>
        <pt x="333" y="1476" on="1"/>
        <pt x="333" y="1410" on="0"/>
        <pt x="408" y="1339" on="0"/>
        <pt x="476" y="1339" on="1"/>
        <pt x="621" y="1339" on="0"/>
        <pt x="662" y="1476" on="1"/>
        <pt x="810" y="1476" on="1"/>
        <pt x="773" y="1330" on="0"/>
        <pt x="607" y="1198" on="0"/>
      </contour>
    </TTGlyph>
    <TTGlyph name="breve.cyr" xMin="30" yMin="1184" xMax="831" yMax="1533">
      <contour>
        <pt x="411" y="1184" on="1"/>
        <pt x="269" y="1184" on="0"/>
        <pt x="84" y="1312" on="0"/>
        <pt x="30" y="1443" on="1"/>
        <pt x="223" y="1517" on="1"/>
        <pt x="267" y="1414" on="0"/>
        <pt x="374" y="1329" on="0"/>
        <pt x="445" y="1329" on="1"/>
        <pt x="628" y="1329" on="0"/>
        <pt x="719" y="1533" on="1"/>
        <pt x="831" y="1484" on="1"/>
        <pt x="771" y="1335" on="0"/>
        <pt x="558" y="1184" on="0"/>
      </contour>
    </TTGlyph>
    <TTGlyph name="breve.uc" xMin="157" yMin="1520" xMax="867" yMax="1823">
      <contour>
        <pt x="470" y="1520" on="1"/>
        <pt x="328" y="1520" on="0"/>
        <pt x="157" y="1682" on="0"/>
        <pt x="157" y="1823" on="1"/>
        <pt x="322" y="1823" on="1"/>
        <pt x="322" y="1748" on="0"/>
        <pt x="413" y="1659" on="0"/>
        <pt x="492" y="1659" on="1"/>
        <pt x="570" y="1659" on="0"/>
        <pt x="676" y="1735" on="0"/>
        <pt x="703" y="1823" on="1"/>
        <pt x="867" y="1823" on="1"/>
        <pt x="825" y="1670" on="0"/>
        <pt x="631" y="1520" on="0"/>
      </contour>
    </TTGlyph>
    <TTGlyph name="breveacute" xMin="-300" yMin="1462" xMax="325" yMax="1835">
      <contour>
        <pt x="71" y="1835" on="1"/>
        <pt x="297" y="1835" on="1"/>
        <pt x="294" y="1823" on="1"/>
        <pt x="45" y="1677" on="1"/>
        <pt x="-84" y="1677" on="1"/>
        <pt x="-82" y="1687" on="1"/>
      </contour>
      <contour>
        <pt x="-27" y="1462" on="1"/>
        <pt x="-155" y="1462" on="0"/>
        <pt x="-300" y="1591" on="0"/>
        <pt x="-300" y="1699" on="1"/>
        <pt x="-300" y="1711" on="1"/>
        <pt x="-193" y="1711" on="1"/>
        <pt x="-190" y="1643" on="0"/>
        <pt x="-94" y="1588" on="0"/>
        <pt x="-10" y="1588" on="1"/>
        <pt x="73" y="1588" on="0"/>
        <pt x="188" y="1644" on="0"/>
        <pt x="218" y="1711" on="1"/>
        <pt x="325" y="1711" on="1"/>
        <pt x="228" y="1462" on="0"/>
      </contour>
    </TTGlyph>
    <TTGlyph name="breveacute.lc" xMin="-359" yMin="1183" xMax="351" yMax="1824">
      <contour>
        <pt x="-91" y="1542" on="1"/>
        <pt x="-96" y="1569" on="1"/>
        <pt x="39" y="1824" on="1"/>
        <pt x="297" y="1824" on="1"/>
        <pt x="305" y="1786" on="1"/>
        <pt x="57" y="1542" on="1"/>
      </contour>
      <contour>
        <pt x="-46" y="1183" on="1"/>
        <pt x="-189" y="1183" on="0"/>
        <pt x="-359" y="1335" on="0"/>
        <pt x="-359" y="1458" on="1"/>
        <pt x="-357" y="1496" on="1"/>
        <pt x="-194" y="1496" on="1"/>
        <pt x="-194" y="1423" on="0"/>
        <pt x="-105" y="1340" on="0"/>
        <pt x="-30" y="1340" on="1"/>
        <pt x="52" y="1340" on="0"/>
        <pt x="164" y="1420" on="0"/>
        <pt x="187" y="1496" on="1"/>
        <pt x="351" y="1496" on="1"/>
        <pt x="309" y="1335" on="0"/>
        <pt x="115" y="1183" on="0"/>
      </contour>
    </TTGlyph>
    <TTGlyph name="brevegrave" xMin="-300" yMin="1462" xMax="325" yMax="1835">
      <contour>
        <pt x="99" y="1687" on="1"/>
        <pt x="97" y="1677" on="1"/>
        <pt x="-32" y="1677" on="1"/>
        <pt x="-225" y="1823" on="1"/>
        <pt x="-222" y="1835" on="1"/>
        <pt x="3" y="1835" on="1"/>
      </contour>
      <contour>
        <pt x="-27" y="1462" on="1"/>
        <pt x="-155" y="1462" on="0"/>
        <pt x="-300" y="1591" on="0"/>
        <pt x="-300" y="1699" on="1"/>
        <pt x="-300" y="1711" on="1"/>
        <pt x="-193" y="1711" on="1"/>
        <pt x="-190" y="1643" on="0"/>
        <pt x="-94" y="1588" on="0"/>
        <pt x="-10" y="1588" on="1"/>
        <pt x="73" y="1588" on="0"/>
        <pt x="188" y="1644" on="0"/>
        <pt x="218" y="1711" on="1"/>
        <pt x="325" y="1711" on="1"/>
        <pt x="228" y="1462" on="0"/>
      </contour>
    </TTGlyph>
    <TTGlyph name="brevegrave.lc" xMin="-359" yMin="1183" xMax="351" yMax="1824">
      <contour>
        <pt x="-58" y="1542" on="1"/>
        <pt x="-304" y="1786" on="1"/>
        <pt x="-296" y="1824" on="1"/>
        <pt x="-38" y="1824" on="1"/>
        <pt x="95" y="1569" on="1"/>
        <pt x="90" y="1542" on="1"/>
      </contour>
      <contour>
        <pt x="-46" y="1183" on="1"/>
        <pt x="-189" y="1183" on="0"/>
        <pt x="-359" y="1335" on="0"/>
        <pt x="-359" y="1458" on="1"/>
        <pt x="-357" y="1496" on="1"/>
        <pt x="-194" y="1496" on="1"/>
        <pt x="-194" y="1423" on="0"/>
        <pt x="-105" y="1340" on="0"/>
        <pt x="-30" y="1340" on="1"/>
        <pt x="52" y="1340" on="0"/>
        <pt x="164" y="1420" on="0"/>
        <pt x="187" y="1496" on="1"/>
        <pt x="351" y="1496" on="1"/>
        <pt x="309" y="1335" on="0"/>
        <pt x="115" y="1183" on="0"/>
      </contour>
    </TTGlyph>
    <TTGlyph name="brevehook" xMin="-300" yMin="1462" xMax="325" yMax="1835">
      <contour>
        <pt x="-27" y="1462" on="1"/>
        <pt x="-155" y="1462" on="0"/>
        <pt x="-300" y="1591" on="0"/>
        <pt x="-300" y="1699" on="1"/>
        <pt x="-300" y="1711" on="1"/>
        <pt x="-193" y="1711" on="1"/>
        <pt x="-190" y="1643" on="0"/>
        <pt x="-94" y="1588" on="0"/>
        <pt x="-10" y="1588" on="1"/>
        <pt x="73" y="1588" on="0"/>
        <pt x="188" y="1644" on="0"/>
        <pt x="218" y="1711" on="1"/>
        <pt x="325" y="1711" on="1"/>
        <pt x="228" y="1462" on="0"/>
      </contour>
      <contour>
        <pt x="46" y="1739" on="1"/>
        <pt x="46" y="1767" on="0"/>
        <pt x="-6" y="1767" on="1"/>
        <pt x="-57" y="1767" on="0"/>
        <pt x="-101" y="1751" on="1"/>
        <pt x="-108" y="1815" on="1"/>
        <pt x="-45" y="1835" on="0"/>
        <pt x="20" y="1835" on="1"/>
        <pt x="155" y="1835" on="0"/>
        <pt x="155" y="1758" on="1"/>
        <pt x="155" y="1703" on="0"/>
        <pt x="67" y="1639" on="0"/>
        <pt x="-12" y="1639" on="1"/>
        <pt x="-47" y="1639" on="1"/>
        <pt x="-37" y="1694" on="1"/>
        <pt x="46" y="1694" on="0"/>
      </contour>
    </TTGlyph>
    <TTGlyph name="brevehook.lc" xMin="-359" yMin="1183" xMax="351" yMax="1835">
      <contour>
        <pt x="-46" y="1183" on="1"/>
        <pt x="-189" y="1183" on="0"/>
        <pt x="-359" y="1335" on="0"/>
        <pt x="-359" y="1458" on="1"/>
        <pt x="-357" y="1496" on="1"/>
        <pt x="-194" y="1496" on="1"/>
        <pt x="-194" y="1423" on="0"/>
        <pt x="-105" y="1340" on="0"/>
        <pt x="-30" y="1340" on="1"/>
        <pt x="52" y="1340" on="0"/>
        <pt x="164" y="1420" on="0"/>
        <pt x="187" y="1496" on="1"/>
        <pt x="351" y="1496" on="1"/>
        <pt x="309" y="1335" on="0"/>
        <pt x="115" y="1183" on="0"/>
      </contour>
      <contour>
        <pt x="87" y="1677" on="1"/>
        <pt x="87" y="1703" on="0"/>
        <pt x="16" y="1730" on="0"/>
        <pt x="-48" y="1730" on="1"/>
        <pt x="-98" y="1730" on="0"/>
        <pt x="-158" y="1722" on="1"/>
        <pt x="-149" y="1824" on="1"/>
        <pt x="-128" y="1828" on="0"/>
        <pt x="-24" y="1835" on="0"/>
        <pt x="20" y="1835" on="1"/>
        <pt x="138" y="1835" on="0"/>
        <pt x="281" y="1764" on="0"/>
        <pt x="281" y="1700" on="1"/>
        <pt x="281" y="1638" on="0"/>
        <pt x="177" y="1559" on="0"/>
        <pt x="72" y="1551" on="1"/>
        <pt x="60" y="1491" on="1"/>
        <pt x="-90" y="1491" on="1"/>
        <pt x="-67" y="1611" on="1"/>
        <pt x="-17" y="1614" on="1"/>
        <pt x="87" y="1619" on="0"/>
      </contour>
    </TTGlyph>
    <TTGlyph name="brevetilde" xMin="-311" yMin="1462" xMax="355" yMax="1835">
      <contour>
        <pt x="-27" y="1462" on="1"/>
        <pt x="-129" y="1462" on="0"/>
        <pt x="-245" y="1563" on="0"/>
        <pt x="-245" y="1648" on="1"/>
        <pt x="-245" y="1659" on="1"/>
        <pt x="-160" y="1659" on="1"/>
        <pt x="-148" y="1578" on="0"/>
        <pt x="-10" y="1578" on="1"/>
        <pt x="126" y="1578" on="0"/>
        <pt x="169" y="1659" on="1"/>
        <pt x="254" y="1659" on="1"/>
        <pt x="178" y="1462" on="0"/>
      </contour>
      <contour>
        <pt x="138" y="1685" on="1"/>
        <pt x="103" y="1685" on="0"/>
        <pt x="37" y="1702" on="0"/>
        <pt x="-26" y="1723" on="0"/>
        <pt x="-84" y="1741" on="0"/>
        <pt x="-111" y="1741" on="1"/>
        <pt x="-191" y="1741" on="0"/>
        <pt x="-220" y="1684" on="1"/>
        <pt x="-311" y="1684" on="1"/>
        <pt x="-282" y="1767" on="0"/>
        <pt x="-175" y="1835" on="0"/>
        <pt x="-88" y="1835" on="1"/>
        <pt x="-37" y="1835" on="0"/>
        <pt x="46" y="1807" on="1"/>
        <pt x="125" y="1779" on="0"/>
        <pt x="159" y="1779" on="1"/>
        <pt x="207" y="1779" on="0"/>
        <pt x="251" y="1806" on="0"/>
        <pt x="263" y="1835" on="1"/>
        <pt x="355" y="1835" on="1"/>
        <pt x="328" y="1766" on="0"/>
        <pt x="279" y="1715" on="0"/>
        <pt x="202" y="1685" on="0"/>
      </contour>
    </TTGlyph>
    <TTGlyph name="brevetilde.lc" xMin="-359" yMin="1183" xMax="416" yMax="1836">
      <contour>
        <pt x="-46" y="1183" on="1"/>
        <pt x="-189" y="1183" on="0"/>
        <pt x="-359" y="1335" on="0"/>
        <pt x="-359" y="1458" on="1"/>
        <pt x="-357" y="1496" on="1"/>
        <pt x="-194" y="1496" on="1"/>
        <pt x="-194" y="1423" on="0"/>
        <pt x="-105" y="1340" on="0"/>
        <pt x="-30" y="1340" on="1"/>
        <pt x="52" y="1340" on="0"/>
        <pt x="164" y="1420" on="0"/>
        <pt x="187" y="1496" on="1"/>
        <pt x="351" y="1496" on="1"/>
        <pt x="309" y="1335" on="0"/>
        <pt x="115" y="1183" on="0"/>
      </contour>
      <contour>
        <pt x="162" y="1570" on="1"/>
        <pt x="122" y="1570" on="0"/>
        <pt x="49" y="1605" on="0"/>
        <pt x="-17" y="1646" on="0"/>
        <pt x="-78" y="1681" on="0"/>
        <pt x="-105" y="1681" on="1"/>
        <pt x="-146" y="1681" on="0"/>
        <pt x="-195" y="1631" on="0"/>
        <pt x="-216" y="1570" on="1"/>
        <pt x="-343" y="1570" on="1"/>
        <pt x="-307" y="1715" on="0"/>
        <pt x="-180" y="1836" on="0"/>
        <pt x="-88" y="1836" on="1"/>
        <pt x="-47" y="1836" on="0"/>
        <pt x="27" y="1801" on="0"/>
        <pt x="92" y="1760" on="0"/>
        <pt x="150" y="1725" on="0"/>
        <pt x="176" y="1725" on="1"/>
        <pt x="213" y="1725" on="0"/>
        <pt x="262" y="1768" on="0"/>
        <pt x="289" y="1836" on="1"/>
        <pt x="416" y="1836" on="1"/>
        <pt x="380" y="1689" on="0"/>
        <pt x="255" y="1570" on="0"/>
      </contour>
    </TTGlyph>
    <TTGlyph name="brokenbar" xMin="192" yMin="-425" xMax="454" yMax="1484">
      <contour>
        <pt x="192" y="736" on="1"/>
        <pt x="192" y="1484" on="1"/>
        <pt x="454" y="1484" on="1"/>
        <pt x="454" y="736" on="1"/>
      </contour>
      <contour>
        <pt x="192" y="-425" on="1"/>
        <pt x="192" y="324" on="1"/>
        <pt x="454" y="324" on="1"/>
        <pt x="454" y="-425" on="1"/>
      </contour>
    </TTGlyph>
    <TTGlyph name="bullet" xMin="90" yMin="381" xMax="676" yMax="969">
      <contour>
        <pt x="676" y="676" on="1"/>
        <pt x="676" y="555" on="0"/>
        <pt x="502" y="381" on="0"/>
        <pt x="381" y="381" on="1"/>
        <pt x="262" y="381" on="0"/>
        <pt x="90" y="554" on="0"/>
        <pt x="90" y="676" on="1"/>
        <pt x="90" y="798" on="0"/>
        <pt x="261" y="969" on="0"/>
        <pt x="381" y="969" on="1"/>
        <pt x="503" y="969" on="0"/>
        <pt x="676" y="798" on="0"/>
      </contour>
    </TTGlyph>
    <TTGlyph name="c" xMin="63" yMin="-20" xMax="1109" yMax="1102">
      <contour>
        <pt x="536" y="173" on="1"/>
        <pt x="619" y="173" on="0"/>
        <pt x="727" y="278" on="0"/>
        <pt x="759" y="381" on="1"/>
        <pt x="1030" y="331" on="1"/>
        <pt x="923" y="-20" on="0"/>
        <pt x="520" y="-20" on="1"/>
        <pt x="300" y="-20" on="0"/>
        <pt x="63" y="205" on="0"/>
        <pt x="63" y="405" on="1"/>
        <pt x="63" y="600" on="0"/>
        <pt x="221" y="942" on="0"/>
        <pt x="484" y="1102" on="0"/>
        <pt x="680" y="1102" on="1"/>
        <pt x="869" y="1102" on="0"/>
        <pt x="1095" y="911" on="0"/>
        <pt x="1109" y="741" on="1"/>
        <pt x="825" y="718" on="1"/>
        <pt x="814" y="909" on="0"/>
        <pt x="658" y="909" on="1"/>
        <pt x="551" y="909" on="0"/>
        <pt x="430" y="762" on="0"/>
        <pt x="381" y="575" on="1"/>
        <pt x="358" y="460" on="0"/>
        <pt x="358" y="407" on="1"/>
        <pt x="358" y="173" on="0"/>
      </contour>
    </TTGlyph>
    <TTGlyph name="cacute" xMin="63" yMin="-20" xMax="1133" yMax="1502">
      <component glyphName="c" x="0" y="0" flags="0x204"/>
      <component glyphName="acute" x="348" y="0" flags="0x4"/>
    </TTGlyph>
    <TTGlyph name="caron" xMin="147" yMin="1183" xMax="890" yMax="1529">
      <contour>
        <pt x="573" y="1183" on="1"/>
        <pt x="344" y="1183" on="1"/>
        <pt x="147" y="1500" on="1"/>
        <pt x="153" y="1529" on="1"/>
        <pt x="303" y="1529" on="1"/>
        <pt x="477" y="1336" on="1"/>
        <pt x="481" y="1336" on="1"/>
        <pt x="721" y="1529" on="1"/>
        <pt x="890" y="1529" on="1"/>
        <pt x="884" y="1500" on="1"/>
      </contour>
    </TTGlyph>
    <TTGlyph name="caron.uc" xMin="151" yMin="1530" xMax="893" yMax="1835">
      <contour>
        <pt x="584" y="1530" on="1"/>
        <pt x="355" y="1530" on="1"/>
        <pt x="151" y="1806" on="1"/>
        <pt x="156" y="1835" on="1"/>
        <pt x="306" y="1835" on="1"/>
        <pt x="488" y="1683" on="1"/>
        <pt x="492" y="1683" on="1"/>
        <pt x="724" y="1835" on="1"/>
        <pt x="893" y="1835" on="1"/>
        <pt x="887" y="1806" on="1"/>
      </contour>
    </TTGlyph>
    <TTGlyph name="caroncommaaccent" xMin="88" yMin="1012" xMax="396" yMax="1409">
      <contour>
        <pt x="225" y="1012" on="1"/>
        <pt x="88" y="1012" on="1"/>
        <pt x="202" y="1113" on="0"/>
        <pt x="219" y="1202" on="1"/>
        <pt x="111" y="1202" on="1"/>
        <pt x="151" y="1409" on="1"/>
        <pt x="396" y="1409" on="1"/>
        <pt x="368" y="1263" on="1"/>
        <pt x="353" y="1193" on="0"/>
        <pt x="293" y="1080" on="0"/>
      </contour>
    </TTGlyph>
    <TTGlyph name="ccaron" xMin="63" yMin="-20" xMax="1121" yMax="1529">
      <component glyphName="c" x="0" y="0" flags="0x204"/>
      <component glyphName="caron" x="231" y="0" flags="0x4"/>
    </TTGlyph>
    <TTGlyph name="ccedilla" xMin="63" yMin="-425" xMax="1109" yMax="1102">
      <component glyphName="c" x="0" y="0" flags="0x204"/>
      <component glyphName="cedilla" x="192" y="0" flags="0x4"/>
    </TTGlyph>
    <TTGlyph name="ccircumflex" xMin="63" yMin="-20" xMax="1109" yMax="1529">
      <component glyphName="c" x="0" y="0" flags="0x204"/>
      <component glyphName="circumflex" x="230" y="0" flags="0x4"/>
    </TTGlyph>
    <TTGlyph name="cdotaccent" xMin="63" yMin="-20" xMax="1109" yMax="1484">
      <component glyphName="c" x="0" y="0" flags="0x204"/>
      <component glyphName="dotaccent" x="240" y="0" flags="0x4"/>
    </TTGlyph>
    <TTGlyph name="cedilla" xMin="88" yMin="-425" xMax="539" yMax="0">
      <contour>
        <pt x="194" y="-425" on="1"/>
        <pt x="144" y="-425" on="0"/>
        <pt x="88" y="-419" on="1"/>
        <pt x="117" y="-302" on="1"/>
        <pt x="159" y="-309" on="0"/>
        <pt x="199" y="-309" on="1"/>
        <pt x="280" y="-309" on="0"/>
        <pt x="354" y="-274" on="0"/>
        <pt x="354" y="-232" on="1"/>
        <pt x="354" y="-169" on="0"/>
        <pt x="244" y="-169" on="1"/>
        <pt x="219" y="-169" on="1"/>
        <pt x="191" y="-171" on="1"/>
        <pt x="289" y="0" on="1"/>
        <pt x="430" y="0" on="1"/>
        <pt x="382" y="-83" on="1"/>
        <pt x="452" y="-84" on="0"/>
        <pt x="539" y="-149" on="0"/>
        <pt x="539" y="-215" on="1"/>
        <pt x="539" y="-312" on="0"/>
        <pt x="371" y="-425" on="0"/>
      </contour>
    </TTGlyph>
    <TTGlyph name="cent" xMin="76" yMin="-31" xMax="1122" yMax="1409">
      <contour>
        <pt x="549" y="328" on="1"/>
        <pt x="632" y="328" on="0"/>
        <pt x="740" y="433" on="0"/>
        <pt x="772" y="536" on="1"/>
        <pt x="1043" y="486" on="1"/>
        <pt x="991" y="317" on="0"/>
        <pt x="760" y="147" on="0"/>
        <pt x="584" y="136" on="1"/>
        <pt x="552" y="-31" on="1"/>
        <pt x="390" y="-31" on="1"/>
        <pt x="422" y="143" on="1"/>
        <pt x="257" y="169" on="0"/>
        <pt x="76" y="385" on="0"/>
        <pt x="76" y="560" on="1"/>
        <pt x="76" y="665" on="0"/>
        <pt x="94" y="739" on="1"/>
        <pt x="150" y="983" on="0"/>
        <pt x="418" y="1244" on="0"/>
        <pt x="638" y="1255" on="1"/>
        <pt x="669" y="1409" on="1"/>
        <pt x="831" y="1409" on="1"/>
        <pt x="799" y="1248" on="1"/>
        <pt x="941" y="1225" on="0"/>
        <pt x="1111" y="1039" on="0"/>
        <pt x="1122" y="896" on="1"/>
        <pt x="838" y="873" on="1"/>
        <pt x="827" y="1064" on="0"/>
        <pt x="671" y="1064" on="1"/>
        <pt x="564" y="1064" on="0"/>
        <pt x="443" y="917" on="0"/>
        <pt x="394" y="730" on="1"/>
        <pt x="371" y="615" on="0"/>
        <pt x="371" y="562" on="1"/>
        <pt x="371" y="328" on="0"/>
      </contour>
    </TTGlyph>
    <TTGlyph name="chi" xMin="-180" yMin="-425" xMax="1230" yMax="1104">
      <contour>
        <pt x="305" y="1104" on="1"/>
        <pt x="394" y="1104" on="0"/>
        <pt x="487" y="1034" on="0"/>
        <pt x="561" y="869" on="0"/>
        <pt x="602" y="710" on="1"/>
        <pt x="626" y="616" on="1"/>
        <pt x="691" y="737" on="0"/>
        <pt x="712" y="767" on="1"/>
        <pt x="923" y="1082" on="1"/>
        <pt x="1230" y="1082" on="1"/>
        <pt x="721" y="392" on="1"/>
        <pt x="975" y="-425" on="1"/>
        <pt x="695" y="-425" on="1"/>
        <pt x="531" y="198" on="1"/>
        <pt x="494" y="132" on="1"/>
        <pt x="429" y="23" on="1"/>
        <pt x="129" y="-425" on="1"/>
        <pt x="-180" y="-425" on="1"/>
        <pt x="432" y="405" on="1"/>
        <pt x="360" y="648" on="1"/>
        <pt x="329" y="754" on="0"/>
        <pt x="285" y="858" on="0"/>
        <pt x="238" y="899" on="0"/>
        <pt x="201" y="899" on="1"/>
        <pt x="160" y="899" on="0"/>
        <pt x="117" y="883" on="1"/>
        <pt x="130" y="1077" on="1"/>
        <pt x="211" y="1104" on="0"/>
      </contour>
    </TTGlyph>
    <TTGlyph name="circle" xMin="167" yMin="162" xMax="1070" yMax="1065">
      <contour>
        <pt x="167" y="612" on="1"/>
        <pt x="167" y="734" on="0"/>
        <pt x="287" y="944" on="0"/>
        <pt x="496" y="1065" on="0"/>
        <pt x="617" y="1065" on="1"/>
        <pt x="739" y="1065" on="0"/>
        <pt x="949" y="944" on="0"/>
        <pt x="1070" y="733" on="0"/>
        <pt x="1070" y="612" on="1"/>
        <pt x="1070" y="491" on="0"/>
        <pt x="949" y="282" on="0"/>
        <pt x="740" y="162" on="0"/>
        <pt x="617" y="162" on="1"/>
        <pt x="495" y="162" on="0"/>
        <pt x="287" y="282" on="0"/>
        <pt x="167" y="490" on="0"/>
      </contour>
      <contour>
        <pt x="253" y="612" on="1"/>
        <pt x="253" y="514" on="0"/>
        <pt x="351" y="345" on="0"/>
        <pt x="518" y="248" on="0"/>
        <pt x="617" y="248" on="1"/>
        <pt x="715" y="248" on="0"/>
        <pt x="884" y="344" on="0"/>
        <pt x="984" y="514" on="0"/>
        <pt x="984" y="612" on="1"/>
        <pt x="984" y="710" on="0"/>
        <pt x="886" y="881" on="0"/>
        <pt x="715" y="979" on="0"/>
        <pt x="617" y="979" on="1"/>
        <pt x="520" y="979" on="0"/>
        <pt x="351" y="881" on="0"/>
        <pt x="253" y="712" on="0"/>
      </contour>
    </TTGlyph>
    <TTGlyph name="circumflex" xMin="76" yMin="1183" xMax="818" yMax="1529">
      <contour>
        <pt x="818" y="1211" on="1"/>
        <pt x="813" y="1183" on="1"/>
        <pt x="663" y="1183" on="1"/>
        <pt x="497" y="1375" on="1"/>
        <pt x="493" y="1375" on="1"/>
        <pt x="245" y="1183" on="1"/>
        <pt x="76" y="1183" on="1"/>
        <pt x="81" y="1211" on="1"/>
        <pt x="401" y="1529" on="1"/>
        <pt x="630" y="1529" on="1"/>
      </contour>
    </TTGlyph>
    <TTGlyph name="circumflex.alt1" xMin="-291" yMin="1183" xMax="451" yMax="1529">
      <component glyphName="circumflex" x="-367" y="0" flags="0x4"/>
    </TTGlyph>
    <TTGlyph name="circumflex.uc" xMin="166" yMin="1530" xMax="907" yMax="1835">
      <contour>
        <pt x="907" y="1559" on="1"/>
        <pt x="902" y="1530" on="1"/>
        <pt x="753" y="1530" on="1"/>
        <pt x="579" y="1681" on="1"/>
        <pt x="575" y="1681" on="1"/>
        <pt x="335" y="1530" on="1"/>
        <pt x="166" y="1530" on="1"/>
        <pt x="171" y="1559" on="1"/>
        <pt x="482" y="1835" on="1"/>
        <pt x="711" y="1835" on="1"/>
      </contour>
    </TTGlyph>
    <TTGlyph name="circumflexacute" xMin="-146" yMin="1462" xMax="784" yMax="1835">
      <contour>
        <pt x="567" y="1835" on="1"/>
        <pt x="784" y="1835" on="1"/>
        <pt x="781" y="1823" on="1"/>
        <pt x="521" y="1647" on="1"/>
        <pt x="425" y="1647" on="1"/>
        <pt x="427" y="1657" on="1"/>
      </contour>
      <contour>
        <pt x="509" y="1482" on="1"/>
        <pt x="505" y="1462" on="1"/>
        <pt x="400" y="1462" on="1"/>
        <pt x="215" y="1631" on="1"/>
        <pt x="213" y="1631" on="1"/>
        <pt x="-42" y="1462" on="1"/>
        <pt x="-146" y="1462" on="1"/>
        <pt x="-142" y="1482" on="1"/>
        <pt x="135" y="1752" on="1"/>
        <pt x="338" y="1752" on="1"/>
      </contour>
    </TTGlyph>
    <TTGlyph name="circumflexacute.lc" xMin="-276" yMin="1183" xMax="737" yMax="1574">
      <contour>
        <pt x="520" y="1574" on="1"/>
        <pt x="737" y="1574" on="1"/>
        <pt x="734" y="1562" on="1"/>
        <pt x="494" y="1386" on="1"/>
        <pt x="378" y="1386" on="1"/>
        <pt x="380" y="1396" on="1"/>
      </contour>
      <contour>
        <pt x="466" y="1211" on="1"/>
        <pt x="460" y="1183" on="1"/>
        <pt x="301" y="1183" on="1"/>
        <pt x="136" y="1375" on="1"/>
        <pt x="132" y="1375" on="1"/>
        <pt x="-116" y="1183" on="1"/>
        <pt x="-276" y="1183" on="1"/>
        <pt x="-270" y="1211" on="1"/>
        <pt x="50" y="1529" on="1"/>
        <pt x="278" y="1529" on="1"/>
      </contour>
    </TTGlyph>
    <TTGlyph name="circumflexgrave" xMin="-299" yMin="1462" xMax="492" yMax="1835">
      <contour>
        <pt x="-9" y="1657" on="1"/>
        <pt x="-11" y="1647" on="1"/>
        <pt x="-107" y="1647" on="1"/>
        <pt x="-299" y="1823" on="1"/>
        <pt x="-296" y="1835" on="1"/>
        <pt x="-79" y="1835" on="1"/>
      </contour>
      <contour>
        <pt x="118" y="1752" on="1"/>
        <pt x="321" y="1752" on="1"/>
        <pt x="492" y="1482" on="1"/>
        <pt x="488" y="1462" on="1"/>
        <pt x="384" y="1462" on="1"/>
        <pt x="196" y="1631" on="1"/>
        <pt x="194" y="1631" on="1"/>
        <pt x="-58" y="1462" on="1"/>
        <pt x="-163" y="1462" on="1"/>
        <pt x="-159" y="1482" on="1"/>
      </contour>
    </TTGlyph>
    <TTGlyph name="circumflexgrave.lc" xMin="-397" yMin="1183" xMax="471" yMax="1574">
      <contour>
        <pt x="-107" y="1396" on="1"/>
        <pt x="-109" y="1386" on="1"/>
        <pt x="-225" y="1386" on="1"/>
        <pt x="-397" y="1562" on="1"/>
        <pt x="-394" y="1574" on="1"/>
        <pt x="-177" y="1574" on="1"/>
      </contour>
      <contour>
        <pt x="47" y="1529" on="1"/>
        <pt x="275" y="1529" on="1"/>
        <pt x="471" y="1211" on="1"/>
        <pt x="465" y="1183" on="1"/>
        <pt x="305" y="1183" on="1"/>
        <pt x="132" y="1375" on="1"/>
        <pt x="129" y="1375" on="1"/>
        <pt x="-112" y="1183" on="1"/>
        <pt x="-271" y="1183" on="1"/>
        <pt x="-265" y="1211" on="1"/>
      </contour>
    </TTGlyph>
    <TTGlyph name="circumflexhook" xMin="-142" yMin="1462" xMax="689" yMax="1835">
      <contour>
        <pt x="580" y="1739" on="1"/>
        <pt x="580" y="1767" on="0"/>
        <pt x="527" y="1767" on="1"/>
        <pt x="476" y="1767" on="0"/>
        <pt x="432" y="1751" on="1"/>
        <pt x="425" y="1815" on="1"/>
        <pt x="488" y="1835" on="0"/>
        <pt x="554" y="1835" on="1"/>
        <pt x="620" y="1835" on="0"/>
        <pt x="689" y="1792" on="0"/>
        <pt x="689" y="1754" on="1"/>
        <pt x="689" y="1705" on="0"/>
        <pt x="606" y="1639" on="0"/>
        <pt x="547" y="1639" on="1"/>
        <pt x="542" y="1616" on="1"/>
        <pt x="481" y="1616" on="1"/>
        <pt x="496" y="1694" on="1"/>
        <pt x="580" y="1694" on="0"/>
      </contour>
      <contour>
        <pt x="513" y="1482" on="1"/>
        <pt x="509" y="1462" on="1"/>
        <pt x="404" y="1462" on="1"/>
        <pt x="219" y="1631" on="1"/>
        <pt x="-38" y="1462" on="1"/>
        <pt x="-142" y="1462" on="1"/>
        <pt x="-138" y="1482" on="1"/>
        <pt x="139" y="1752" on="1"/>
        <pt x="342" y="1752" on="1"/>
      </contour>
    </TTGlyph>
    <TTGlyph name="circumflexhook.lc" xMin="-253" yMin="1183" xMax="695" yMax="1653">
      <contour>
        <pt x="556" y="1529" on="1"/>
        <pt x="556" y="1568" on="0"/>
        <pt x="488" y="1568" on="1"/>
        <pt x="425" y="1568" on="0"/>
        <pt x="370" y="1549" on="1"/>
        <pt x="360" y="1629" on="1"/>
        <pt x="434" y="1653" on="0"/>
        <pt x="523" y="1653" on="1"/>
        <pt x="607" y="1653" on="0"/>
        <pt x="695" y="1597" on="0"/>
        <pt x="695" y="1552" on="1"/>
        <pt x="695" y="1496" on="0"/>
        <pt x="611" y="1425" on="0"/>
        <pt x="530" y="1415" on="1"/>
        <pt x="523" y="1377" on="1"/>
        <pt x="432" y="1377" on="1"/>
        <pt x="450" y="1471" on="1"/>
        <pt x="486" y="1474" on="1"/>
        <pt x="556" y="1479" on="0"/>
      </contour>
      <contour>
        <pt x="488" y="1211" on="1"/>
        <pt x="483" y="1183" on="1"/>
        <pt x="324" y="1183" on="1"/>
        <pt x="159" y="1375" on="1"/>
        <pt x="155" y="1375" on="1"/>
        <pt x="-93" y="1183" on="1"/>
        <pt x="-253" y="1183" on="1"/>
        <pt x="-248" y="1211" on="1"/>
        <pt x="72" y="1529" on="1"/>
        <pt x="300" y="1529" on="1"/>
      </contour>
    </TTGlyph>
    <TTGlyph name="circumflextilde" xMin="-341" yMin="1462" xMax="352" yMax="1835">
      <contour>
        <pt x="148" y="1652" on="1"/>
        <pt x="113" y="1652" on="0"/>
        <pt x="42" y="1674" on="0"/>
        <pt x="-27" y="1701" on="0"/>
        <pt x="-91" y="1724" on="0"/>
        <pt x="-118" y="1724" on="1"/>
        <pt x="-163" y="1724" on="0"/>
        <pt x="-215" y="1681" on="0"/>
        <pt x="-231" y="1641" on="1"/>
        <pt x="-322" y="1641" on="1"/>
        <pt x="-296" y="1720" on="0"/>
        <pt x="-239" y="1794" on="0"/>
        <pt x="-157" y="1835" on="0"/>
        <pt x="-98" y="1835" on="1"/>
        <pt x="-59" y="1835" on="0"/>
        <pt x="8" y="1812" on="0"/>
        <pt x="69" y="1785" on="0"/>
        <pt x="124" y="1763" on="0"/>
        <pt x="150" y="1763" on="1"/>
        <pt x="198" y="1763" on="0"/>
        <pt x="246" y="1798" on="0"/>
        <pt x="260" y="1835" on="1"/>
        <pt x="352" y="1835" on="1"/>
        <pt x="323" y="1750" on="0"/>
        <pt x="276" y="1687" on="0"/>
        <pt x="205" y="1652" on="0"/>
      </contour>
      <contour>
        <pt x="-22" y="1529" on="1"/>
        <pt x="-186" y="1462" on="1"/>
        <pt x="-341" y="1462" on="1"/>
        <pt x="-338" y="1474" on="1"/>
        <pt x="-102" y="1615" on="1"/>
        <pt x="92" y="1615" on="1"/>
        <pt x="272" y="1472" on="1"/>
        <pt x="270" y="1462" on="1"/>
        <pt x="115" y="1462" on="1"/>
      </contour>
    </TTGlyph>
    <TTGlyph name="circumflextilde.lc" xMin="-427" yMin="1183" xMax="416" yMax="1808">
      <contour>
        <pt x="-108" y="1485" on="1"/>
        <pt x="120" y="1485" on="1"/>
        <pt x="322" y="1211" on="1"/>
        <pt x="317" y="1183" on="1"/>
        <pt x="157" y="1183" on="1"/>
        <pt x="-22" y="1331" on="1"/>
        <pt x="-26" y="1331" on="1"/>
        <pt x="-268" y="1183" on="1"/>
        <pt x="-427" y="1183" on="1"/>
        <pt x="-422" y="1211" on="1"/>
      </contour>
      <contour>
        <pt x="162" y="1542" on="1"/>
        <pt x="122" y="1542" on="0"/>
        <pt x="49" y="1577" on="0"/>
        <pt x="-17" y="1618" on="0"/>
        <pt x="-78" y="1653" on="0"/>
        <pt x="-105" y="1653" on="1"/>
        <pt x="-146" y="1653" on="0"/>
        <pt x="-195" y="1603" on="0"/>
        <pt x="-216" y="1542" on="1"/>
        <pt x="-343" y="1542" on="1"/>
        <pt x="-307" y="1687" on="0"/>
        <pt x="-180" y="1808" on="0"/>
        <pt x="-88" y="1808" on="1"/>
        <pt x="-47" y="1808" on="0"/>
        <pt x="27" y="1773" on="0"/>
        <pt x="92" y="1732" on="0"/>
        <pt x="150" y="1697" on="0"/>
        <pt x="176" y="1697" on="1"/>
        <pt x="213" y="1697" on="0"/>
        <pt x="262" y="1740" on="0"/>
        <pt x="289" y="1808" on="1"/>
        <pt x="416" y="1808" on="1"/>
        <pt x="380" y="1661" on="0"/>
        <pt x="255" y="1542" on="0"/>
      </contour>
    </TTGlyph>
    <TTGlyph name="club" xMin="60" yMin="0" xMax="1284" yMax="1223">
      <contour>
        <pt x="1094" y="0" on="1"/>
        <pt x="252" y="0" on="1"/>
        <pt x="260" y="35" on="1"/>
        <pt x="395" y="62" on="0"/>
        <pt x="514" y="116" on="0"/>
        <pt x="609" y="236" on="0"/>
        <pt x="662" y="385" on="0"/>
        <pt x="662" y="461" on="1"/>
        <pt x="660" y="508" on="1"/>
        <pt x="603" y="388" on="0"/>
        <pt x="425" y="270" on="0"/>
        <pt x="336" y="270" on="1"/>
        <pt x="259" y="270" on="0"/>
        <pt x="130" y="346" on="0"/>
        <pt x="60" y="472" on="0"/>
        <pt x="60" y="549" on="1"/>
        <pt x="60" y="664" on="0"/>
        <pt x="206" y="822" on="0"/>
        <pt x="299" y="823" on="1"/>
        <pt x="361" y="823" on="0"/>
        <pt x="461" y="772" on="1"/>
        <pt x="423" y="837" on="0"/>
        <pt x="406" y="877" on="1"/>
        <pt x="395" y="914" on="0"/>
        <pt x="395" y="952" on="1"/>
        <pt x="395" y="1073" on="0"/>
        <pt x="557" y="1223" on="0"/>
        <pt x="670" y="1223" on="1"/>
        <pt x="786" y="1223" on="0"/>
        <pt x="946" y="1063" on="0"/>
        <pt x="946" y="956" on="1"/>
        <pt x="946" y="870" on="0"/>
        <pt x="877" y="772" on="1"/>
        <pt x="961" y="812" on="0"/>
        <pt x="977" y="815" on="1"/>
        <pt x="999" y="823" on="0"/>
        <pt x="1038" y="823" on="1"/>
        <pt x="1143" y="823" on="0"/>
        <pt x="1211" y="745" on="1"/>
        <pt x="1284" y="669" on="0"/>
        <pt x="1284" y="553" on="1"/>
        <pt x="1284" y="437" on="0"/>
        <pt x="1128" y="272" on="0"/>
        <pt x="1012" y="272" on="1"/>
        <pt x="956" y="272" on="0"/>
        <pt x="838" y="321" on="0"/>
        <pt x="743" y="403" on="0"/>
        <pt x="682" y="508" on="1"/>
        <pt x="687" y="382" on="0"/>
        <pt x="736" y="229" on="0"/>
        <pt x="845" y="109" on="0"/>
        <pt x="972" y="56" on="0"/>
        <pt x="1086" y="35" on="1"/>
      </contour>
    </TTGlyph>
    <TTGlyph name="colon" xMin="89" yMin="0" xMax="578" yMax="1034">
      <contour>
        <pt x="235" y="752" on="1"/>
        <pt x="290" y="1034" on="1"/>
        <pt x="578" y="1034" on="1"/>
        <pt x="523" y="752" on="1"/>
      </contour>
      <contour>
        <pt x="89" y="0" on="1"/>
        <pt x="144" y="281" on="1"/>
        <pt x="432" y="281" on="1"/>
        <pt x="377" y="0" on="1"/>
      </contour>
    </TTGlyph>
    <TTGlyph name="comma" xMin="-20" yMin="-317" xMax="394" yMax="305">
      <contour>
        <pt x="165" y="-317" on="1"/>
        <pt x="-20" y="-317" on="1"/>
        <pt x="58" y="-239" on="0"/>
        <pt x="161" y="-73" on="0"/>
        <pt x="175" y="0" on="1"/>
        <pt x="46" y="0" on="1"/>
        <pt x="105" y="305" on="1"/>
        <pt x="394" y="305" on="1"/>
        <pt x="347" y="66" on="1"/>
        <pt x="324" y="-54" on="0"/>
        <pt x="238" y="-237" on="0"/>
      </contour>
    </TTGlyph>
    <TTGlyph name="commaaccent" xMin="80" yMin="-455" xMax="384" yMax="-78">
      <contour>
        <pt x="217" y="-455" on="1"/>
        <pt x="80" y="-455" on="1"/>
        <pt x="192" y="-355" on="0"/>
        <pt x="207" y="-285" on="1"/>
        <pt x="99" y="-285" on="1"/>
        <pt x="139" y="-78" on="1"/>
        <pt x="384" y="-78" on="1"/>
        <pt x="360" y="-204" on="1"/>
        <pt x="346" y="-274" on="0"/>
        <pt x="284" y="-388" on="0"/>
      </contour>
    </TTGlyph>
    <TTGlyph name="commaaccentrotate" xMin="64" yMin="1212" xMax="372" yMax="1609">
      <contour>
        <pt x="225" y="1609" on="1"/>
        <pt x="372" y="1609" on="1"/>
        <pt x="258" y="1508" on="0"/>
        <pt x="241" y="1419" on="1"/>
        <pt x="349" y="1419" on="1"/>
        <pt x="309" y="1212" on="1"/>
        <pt x="64" y="1212" on="1"/>
        <pt x="92" y="1358" on="1"/>
        <pt x="109" y="1445" on="0"/>
        <pt x="176" y="1562" on="0"/>
      </contour>
    </TTGlyph>
    <TTGlyph name="copyright" xMin="62" yMin="-16" xMax="1508" yMax="1430">
      <contour>
        <pt x="1508" y="707" on="1"/>
        <pt x="1508" y="514" on="0"/>
        <pt x="1315" y="177" on="0"/>
        <pt x="978" y="-16" on="0"/>
        <pt x="785" y="-16" on="1"/>
        <pt x="588" y="-16" on="0"/>
        <pt x="249" y="185" on="0"/>
        <pt x="62" y="518" on="0"/>
        <pt x="62" y="707" on="1"/>
        <pt x="62" y="900" on="0"/>
        <pt x="256" y="1236" on="0"/>
        <pt x="592" y="1430" on="0"/>
        <pt x="785" y="1430" on="1"/>
        <pt x="979" y="1430" on="0"/>
        <pt x="1316" y="1235" on="0"/>
        <pt x="1508" y="901" on="0"/>
      </contour>
      <contour>
        <pt x="1396" y="707" on="1"/>
        <pt x="1396" y="870" on="0"/>
        <pt x="1232" y="1151" on="0"/>
        <pt x="948" y="1315" on="0"/>
        <pt x="785" y="1315" on="1"/>
        <pt x="628" y="1315" on="0"/>
        <pt x="348" y="1159" on="0"/>
        <pt x="177" y="876" on="0"/>
        <pt x="177" y="707" on="1"/>
        <pt x="177" y="544" on="0"/>
        <pt x="340" y="260" on="0"/>
        <pt x="621" y="96" on="0"/>
        <pt x="785" y="96" on="1"/>
        <pt x="949" y="96" on="0"/>
        <pt x="1233" y="260" on="0"/>
        <pt x="1396" y="544" on="0"/>
      </contour>
      <contour>
        <pt x="798" y="285" on="1"/>
        <pt x="605" y="285" on="0"/>
        <pt x="394" y="507" on="0"/>
        <pt x="394" y="709" on="1"/>
        <pt x="394" y="912" on="0"/>
        <pt x="598" y="1124" on="0"/>
        <pt x="789" y="1124" on="1"/>
        <pt x="919" y="1124" on="0"/>
        <pt x="1094" y="1012" on="0"/>
        <pt x="1142" y="895" on="1"/>
        <pt x="986" y="854" on="1"/>
        <pt x="960" y="915" on="0"/>
        <pt x="863" y="983" on="0"/>
        <pt x="794" y="983" on="1"/>
        <pt x="685" y="983" on="0"/>
        <pt x="574" y="843" on="0"/>
        <pt x="574" y="709" on="1"/>
        <pt x="574" y="574" on="0"/>
        <pt x="692" y="426" on="0"/>
        <pt x="798" y="426" on="1"/>
        <pt x="864" y="426" on="0"/>
        <pt x="966" y="500" on="0"/>
        <pt x="994" y="569" on="1"/>
        <pt x="1154" y="522" on="1"/>
        <pt x="1096" y="397" on="0"/>
        <pt x="922" y="285" on="0"/>
      </contour>
    </TTGlyph>
    <TTGlyph name="currency" xMin="72" yMin="170" xMax="1096" yMax="1196">
      <contour>
        <pt x="149" y="684" on="1"/>
        <pt x="149" y="804" on="0"/>
        <pt x="209" y="905" on="1"/>
        <pt x="76" y="1038" on="1"/>
        <pt x="233" y="1194" on="1"/>
        <pt x="364" y="1061" on="1"/>
        <pt x="465" y="1120" on="0"/>
        <pt x="584" y="1120" on="1"/>
        <pt x="705" y="1120" on="0"/>
        <pt x="803" y="1061" on="1"/>
        <pt x="938" y="1196" on="1"/>
        <pt x="1096" y="1038" on="1"/>
        <pt x="960" y="903" on="1"/>
        <pt x="1020" y="804" on="0"/>
        <pt x="1020" y="684" on="1"/>
        <pt x="1020" y="566" on="0"/>
        <pt x="962" y="467" on="1"/>
        <pt x="1096" y="334" on="1"/>
        <pt x="938" y="174" on="1"/>
        <pt x="805" y="309" on="1"/>
        <pt x="705" y="250" on="0"/>
        <pt x="584" y="250" on="1"/>
        <pt x="462" y="250" on="0"/>
        <pt x="364" y="307" on="1"/>
        <pt x="229" y="170" on="1"/>
        <pt x="72" y="328" on="1"/>
        <pt x="207" y="465" on="1"/>
        <pt x="149" y="564" on="0"/>
      </contour>
      <contour>
        <pt x="375" y="686" on="1"/>
        <pt x="375" y="600" on="0"/>
        <pt x="497" y="477" on="0"/>
        <pt x="584" y="477" on="1"/>
        <pt x="669" y="477" on="0"/>
        <pt x="792" y="601" on="0"/>
        <pt x="792" y="686" on="1"/>
        <pt x="792" y="772" on="0"/>
        <pt x="670" y="895" on="0"/>
        <pt x="584" y="895" on="1"/>
        <pt x="498" y="895" on="0"/>
        <pt x="375" y="773" on="0"/>
      </contour>
    </TTGlyph>
    <TTGlyph name="cyrillic_otmark" xMin="-327" yMin="1160" xMax="587" yMax="1375">
      <contour>
        <pt x="587" y="1375" on="1"/>
        <pt x="497" y="1160" on="1"/>
        <pt x="458" y="1160" on="1"/>
        <pt x="411" y="1271" on="1"/>
        <pt x="197" y="1271" on="1"/>
        <pt x="150" y="1160" on="1"/>
        <pt x="110" y="1160" on="1"/>
        <pt x="63" y="1271" on="1"/>
        <pt x="-151" y="1271" on="1"/>
        <pt x="-198" y="1160" on="1"/>
        <pt x="-237" y="1160" on="1"/>
        <pt x="-327" y="1375" on="1"/>
      </contour>
    </TTGlyph>
    <TTGlyph name="d" xMin="58" yMin="-21" xMax="1286" yMax="1484">
      <contour>
        <pt x="749" y="160" on="1"/>
        <pt x="678" y="67" on="0"/>
        <pt x="513" y="-21" on="0"/>
        <pt x="392" y="-21" on="1"/>
        <pt x="238" y="-21" on="0"/>
        <pt x="58" y="183" on="0"/>
        <pt x="58" y="354" on="1"/>
        <pt x="58" y="545" on="0"/>
        <pt x="186" y="911" on="0"/>
        <pt x="417" y="1102" on="0"/>
        <pt x="580" y="1102" on="1"/>
        <pt x="836" y="1102" on="0"/>
        <pt x="894" y="904" on="1"/>
        <pt x="899" y="904" on="1"/>
        <pt x="901" y="924" on="0"/>
        <pt x="913" y="1004" on="0"/>
        <pt x="925" y="1066" on="1"/>
        <pt x="1009" y="1484" on="1"/>
        <pt x="1286" y="1484" on="1"/>
        <pt x="1048" y="231" on="1"/>
        <pt x="1028" y="119" on="0"/>
        <pt x="1019" y="0" on="1"/>
        <pt x="738" y="0" on="1"/>
        <pt x="738" y="63" on="0"/>
        <pt x="753" y="160" on="1"/>
      </contour>
      <contour>
        <pt x="515" y="172" on="1"/>
        <pt x="596" y="172" on="0"/>
        <pt x="712" y="241" on="0"/>
        <pt x="794" y="384" on="0"/>
        <pt x="842" y="600" on="0"/>
        <pt x="842" y="681" on="1"/>
        <pt x="842" y="801" on="0"/>
        <pt x="748" y="910" on="0"/>
        <pt x="654" y="910" on="1"/>
        <pt x="552" y="910" on="0"/>
        <pt x="423" y="772" on="0"/>
        <pt x="355" y="506" on="0"/>
        <pt x="355" y="393" on="1"/>
        <pt x="355" y="172" on="0"/>
      </contour>
    </TTGlyph>
    <TTGlyph name="dagesh" xMin="-45" yMin="625" xMax="113" yMax="782">
      <contour>
        <pt x="-45" y="705" on="1"/>
        <pt x="-45" y="737" on="0"/>
        <pt x="1" y="782" on="0"/>
        <pt x="33" y="782" on="1"/>
        <pt x="67" y="782" on="0"/>
        <pt x="113" y="737" on="0"/>
        <pt x="113" y="705" on="1"/>
        <pt x="113" y="670" on="0"/>
        <pt x="67" y="625" on="0"/>
        <pt x="33" y="625" on="1"/>
        <pt x="1" y="625" on="0"/>
        <pt x="-45" y="670" on="0"/>
      </contour>
    </TTGlyph>
    <TTGlyph name="dagger" xMin="213" yMin="-138" xMax="1117" yMax="1484">
      <contour>
        <pt x="749" y="960" on="1"/>
        <pt x="514" y="-138" on="1"/>
        <pt x="359" y="-138" on="1"/>
        <pt x="550" y="960" on="1"/>
        <pt x="213" y="933" on="1"/>
        <pt x="253" y="1137" on="1"/>
        <pt x="579" y="1108" on="1"/>
        <pt x="624" y="1484" on="1"/>
        <pt x="879" y="1484" on="1"/>
        <pt x="778" y="1108" on="1"/>
        <pt x="1117" y="1137" on="1"/>
        <pt x="1077" y="933" on="1"/>
      </contour>
    </TTGlyph>
    <TTGlyph name="daggerdbl" xMin="50" yMin="-141" xMax="1124" yMax="1484">
      <contour>
        <pt x="545" y="980" on="1"/>
        <pt x="200" y="953" on="1"/>
        <pt x="240" y="1157" on="1"/>
        <pt x="574" y="1128" on="1"/>
        <pt x="627" y="1484" on="1"/>
        <pt x="842" y="1484" on="1"/>
        <pt x="757" y="1128" on="1"/>
        <pt x="1124" y="1157" on="1"/>
        <pt x="1084" y="953" on="1"/>
        <pt x="728" y="980" on="1"/>
        <pt x="642" y="670" on="1"/>
        <pt x="608" y="363" on="1"/>
        <pt x="974" y="390" on="1"/>
        <pt x="934" y="186" on="1"/>
        <pt x="580" y="215" on="1"/>
        <pt x="526" y="-141" on="1"/>
        <pt x="311" y="-141" on="1"/>
        <pt x="397" y="215" on="1"/>
        <pt x="50" y="186" on="1"/>
        <pt x="90" y="390" on="1"/>
        <pt x="425" y="363" on="1"/>
        <pt x="511" y="670" on="1"/>
      </contour>
    </TTGlyph>
    <TTGlyph name="dalet" xMin="133" yMin="0" xMax="1276" yMax="1241">
      <contour>
        <pt x="881" y="0" on="1"/>
        <pt x="610" y="0" on="1"/>
        <pt x="805" y="999" on="1"/>
        <pt x="133" y="999" on="1"/>
        <pt x="180" y="1241" on="1"/>
        <pt x="1276" y="1241" on="1"/>
        <pt x="1229" y="999" on="1"/>
        <pt x="1075" y="999" on="1"/>
      </contour>
    </TTGlyph>
    <TTGlyph name="daletdagesh" xMin="133" yMin="0" xMax="1276" yMax="1241">
      <component glyphName="dalet" x="0" y="0" flags="0x204"/>
      <component glyphName="dagesh" x="412" y="0" flags="0x4"/>
    </TTGlyph>
    <TTGlyph name="daletwide" xMin="133" yMin="0" xMax="1276" yMax="1241">
      <component glyphName="dalet" x="0" y="0" flags="0x204"/>
    </TTGlyph>
    <TTGlyph name="dcaron" xMin="58" yMin="-21" xMax="1662" yMax="1484">
      <component glyphName="d" x="0" y="0" flags="0x4"/>
      <component glyphName="caroncommaaccent" x="1266" y="75" flags="0x4"/>
    </TTGlyph>
    <TTGlyph name="dcroat" xMin="58" yMin="-21" xMax="1391" yMax="1484">
      <contour>
        <pt x="749" y="160" on="1"/>
        <pt x="678" y="67" on="0"/>
        <pt x="513" y="-21" on="0"/>
        <pt x="392" y="-21" on="1"/>
        <pt x="238" y="-21" on="0"/>
        <pt x="58" y="175" on="0"/>
        <pt x="58" y="340" on="1"/>
        <pt x="58" y="522" on="0"/>
        <pt x="184" y="875" on="0"/>
        <pt x="413" y="1061" on="0"/>
        <pt x="571" y="1061" on="1"/>
        <pt x="698" y="1061" on="0"/>
        <pt x="858" y="964" on="0"/>
        <pt x="887" y="871" on="1"/>
        <pt x="893" y="871" on="1"/>
        <pt x="895" y="893" on="0"/>
        <pt x="908" y="984" on="0"/>
        <pt x="922" y="1053" on="1"/>
        <pt x="947" y="1175" on="1"/>
        <pt x="658" y="1175" on="1"/>
        <pt x="691" y="1345" on="1"/>
        <pt x="981" y="1345" on="1"/>
        <pt x="1009" y="1484" on="1"/>
        <pt x="1286" y="1484" on="1"/>
        <pt x="1259" y="1345" on="1"/>
        <pt x="1391" y="1345" on="1"/>
        <pt x="1358" y="1175" on="1"/>
        <pt x="1227" y="1175" on="1"/>
        <pt x="1048" y="231" on="1"/>
        <pt x="1028" y="119" on="0"/>
        <pt x="1019" y="0" on="1"/>
        <pt x="738" y="0" on="1"/>
        <pt x="738" y="63" on="0"/>
        <pt x="753" y="160" on="1"/>
      </contour>
      <contour>
        <pt x="515" y="172" on="1"/>
        <pt x="621" y="172" on="0"/>
        <pt x="759" y="297" on="0"/>
        <pt x="836" y="549" on="0"/>
        <pt x="836" y="656" on="1"/>
        <pt x="836" y="771" on="0"/>
        <pt x="742" y="874" on="0"/>
        <pt x="648" y="874" on="1"/>
        <pt x="551" y="874" on="0"/>
        <pt x="423" y="745" on="0"/>
        <pt x="355" y="489" on="0"/>
        <pt x="355" y="382" on="1"/>
        <pt x="355" y="172" on="0"/>
      </contour>
    </TTGlyph>
    <TTGlyph name="degree" xMin="189" yMin="795" xMax="830" yMax="1425">
      <contour>
        <pt x="830" y="1110" on="1"/>
        <pt x="830" y="980" on="0"/>
        <pt x="643" y="795" on="0"/>
        <pt x="509" y="795" on="1"/>
        <pt x="377" y="795" on="0"/>
        <pt x="189" y="977" on="0"/>
        <pt x="189" y="1110" on="1"/>
        <pt x="189" y="1196" on="0"/>
        <pt x="274" y="1342" on="0"/>
        <pt x="421" y="1425" on="0"/>
        <pt x="509" y="1425" on="1"/>
        <pt x="644" y="1425" on="0"/>
        <pt x="830" y="1240" on="0"/>
      </contour>
      <contour>
        <pt x="672" y="1110" on="1"/>
        <pt x="672" y="1180" on="0"/>
        <pt x="579" y="1276" on="0"/>
        <pt x="509" y="1276" on="1"/>
        <pt x="438" y="1276" on="0"/>
        <pt x="343" y="1179" on="0"/>
        <pt x="343" y="1110" on="1"/>
        <pt x="343" y="1041" on="0"/>
        <pt x="441" y="942" on="0"/>
        <pt x="509" y="942" on="1"/>
        <pt x="576" y="942" on="0"/>
        <pt x="672" y="1040" on="0"/>
      </contour>
    </TTGlyph>
    <TTGlyph name="delta" xMin="55" yMin="-19" xMax="1253" yMax="1484">
      <contour>
        <pt x="557" y="177" on="1"/>
        <pt x="694" y="177" on="0"/>
        <pt x="855" y="385" on="0"/>
        <pt x="855" y="558" on="1"/>
        <pt x="855" y="653" on="0"/>
        <pt x="793" y="816" on="0"/>
        <pt x="719" y="900" on="1"/>
        <pt x="591" y="852" on="0"/>
        <pt x="466" y="762" on="0"/>
        <pt x="387" y="654" on="0"/>
        <pt x="345" y="517" on="0"/>
        <pt x="345" y="430" on="1"/>
        <pt x="345" y="315" on="0"/>
        <pt x="459" y="177" on="0"/>
      </contour>
      <contour>
        <pt x="855" y="1294" on="1"/>
        <pt x="779" y="1298" on="1"/>
        <pt x="756" y="1299" on="0"/>
        <pt x="715" y="1301" on="0"/>
        <pt x="703" y="1302" on="1"/>
        <pt x="960" y="992" on="1"/>
        <pt x="1068" y="849" on="0"/>
        <pt x="1146" y="644" on="0"/>
        <pt x="1146" y="537" on="1"/>
        <pt x="1146" y="282" on="0"/>
        <pt x="812" y="-19" on="0"/>
        <pt x="533" y="-19" on="1"/>
        <pt x="316" y="-19" on="0"/>
        <pt x="55" y="220" on="0"/>
        <pt x="55" y="415" on="1"/>
        <pt x="55" y="863" on="0"/>
        <pt x="625" y="1013" on="1"/>
        <pt x="378" y="1325" on="1"/>
        <pt x="414" y="1484" on="1"/>
        <pt x="1253" y="1484" on="1"/>
        <pt x="1225" y="1294" on="1"/>
      </contour>
    </TTGlyph>
    <TTGlyph name="diamond" xMin="66" yMin="-25" xMax="978" yMax="1223">
      <contour>
        <pt x="519" y="1223" on="1"/>
        <pt x="591" y="1098" on="0"/>
        <pt x="856" y="737" on="0"/>
        <pt x="978" y="600" on="1"/>
        <pt x="910" y="530" on="0"/>
        <pt x="604" y="123" on="0"/>
        <pt x="521" y="-25" on="1"/>
        <pt x="484" y="46" on="0"/>
        <pt x="299" y="307" on="0"/>
        <pt x="151" y="498" on="0"/>
        <pt x="66" y="600" on="1"/>
        <pt x="182" y="737" on="0"/>
        <pt x="441" y="1082" on="0"/>
      </contour>
    </TTGlyph>
    <TTGlyph name="dieresis" xMin="135" yMin="1199" xMax="828" yMax="1418">
      <contour>
        <pt x="568" y="1199" on="1"/>
        <pt x="611" y="1418" on="1"/>
        <pt x="828" y="1418" on="1"/>
        <pt x="785" y="1199" on="1"/>
      </contour>
      <contour>
        <pt x="135" y="1199" on="1"/>
        <pt x="177" y="1418" on="1"/>
        <pt x="391" y="1418" on="1"/>
        <pt x="348" y="1199" on="1"/>
      </contour>
    </TTGlyph>
    <TTGlyph name="dieresis.uc" xMin="182" yMin="1530" xMax="875" yMax="1749">
      <component glyphName="dieresis" x="47" y="331" flags="0x204"/>
    </TTGlyph>
    <TTGlyph name="dieresistonos" xMin="-58" yMin="1190" xMax="717" yMax="1621">
      <contour>
        <pt x="185" y="1190" on="1"/>
        <pt x="191" y="1223" on="1"/>
        <pt x="327" y="1621" on="1"/>
        <pt x="564" y="1621" on="1"/>
        <pt x="557" y="1584" on="1"/>
        <pt x="300" y="1190" on="1"/>
      </contour>
      <contour>
        <pt x="-58" y="1231" on="1"/>
        <pt x="-14" y="1453" on="1"/>
        <pt x="185" y="1453" on="1"/>
        <pt x="141" y="1231" on="1"/>
      </contour>
      <contour>
        <pt x="473" y="1231" on="1"/>
        <pt x="517" y="1453" on="1"/>
        <pt x="717" y="1453" on="1"/>
        <pt x="673" y="1231" on="1"/>
      </contour>
    </TTGlyph>
    <TTGlyph name="divide" xMin="69" yMin="170" xMax="1096" yMax="1194">
      <contour>
        <pt x="462" y="961" on="1"/>
        <pt x="462" y="1194" on="1"/>
        <pt x="700" y="1194" on="1"/>
        <pt x="700" y="961" on="1"/>
      </contour>
      <contour>
        <pt x="69" y="569" on="1"/>
        <pt x="69" y="793" on="1"/>
        <pt x="1096" y="793" on="1"/>
        <pt x="1096" y="569" on="1"/>
      </contour>
      <contour>
        <pt x="462" y="170" on="1"/>
        <pt x="462" y="403" on="1"/>
        <pt x="700" y="403" on="1"/>
        <pt x="700" y="170" on="1"/>
      </contour>
    </TTGlyph>
    <TTGlyph name="dkshade" xMin="0" yMin="-621" xMax="1493" yMax="1699">
      <contour>
        <pt x="1493" y="-621" on="1"/>
        <pt x="0" y="-621" on="1"/>
        <pt x="0" y="-331" on="1"/>
        <pt x="106" y="-331" on="1"/>
        <pt x="106" y="-234" on="1"/>
        <pt x="0" y="-234" on="1"/>
        <pt x="0" y="56" on="1"/>
        <pt x="106" y="56" on="1"/>
        <pt x="106" y="153" on="1"/>
        <pt x="0" y="153" on="1"/>
        <pt x="0" y="444" on="1"/>
        <pt x="106" y="444" on="1"/>
        <pt x="106" y="540" on="1"/>
        <pt x="0" y="540" on="1"/>
        <pt x="0" y="829" on="1"/>
        <pt x="106" y="829" on="1"/>
        <pt x="106" y="927" on="1"/>
        <pt x="0" y="927" on="1"/>
        <pt x="0" y="1216" on="1"/>
        <pt x="106" y="1216" on="1"/>
        <pt x="106" y="1314" on="1"/>
        <pt x="0" y="1314" on="1"/>
        <pt x="0" y="1603" on="1"/>
        <pt x="106" y="1603" on="1"/>
        <pt x="106" y="1699" on="1"/>
        <pt x="213" y="1699" on="1"/>
        <pt x="213" y="1603" on="1"/>
        <pt x="319" y="1603" on="1"/>
        <pt x="319" y="1699" on="1"/>
        <pt x="426" y="1699" on="1"/>
        <pt x="426" y="1603" on="1"/>
        <pt x="532" y="1603" on="1"/>
        <pt x="532" y="1699" on="1"/>
        <pt x="639" y="1699" on="1"/>
        <pt x="639" y="1603" on="1"/>
        <pt x="746" y="1603" on="1"/>
        <pt x="746" y="1699" on="1"/>
        <pt x="853" y="1699" on="1"/>
        <pt x="853" y="1603" on="1"/>
        <pt x="960" y="1603" on="1"/>
        <pt x="960" y="1699" on="1"/>
        <pt x="1067" y="1699" on="1"/>
        <pt x="1067" y="1603" on="1"/>
        <pt x="1173" y="1603" on="1"/>
        <pt x="1173" y="1699" on="1"/>
        <pt x="1280" y="1699" on="1"/>
        <pt x="1280" y="1603" on="1"/>
        <pt x="1386" y="1603" on="1"/>
        <pt x="1386" y="1699" on="1"/>
        <pt x="1493" y="1699" on="1"/>
        <pt x="1493" y="1506" on="1"/>
        <pt x="1386" y="1506" on="1"/>
        <pt x="1386" y="1408" on="1"/>
        <pt x="1493" y="1408" on="1"/>
        <pt x="1493" y="1119" on="1"/>
        <pt x="1386" y="1119" on="1"/>
        <pt x="1386" y="1023" on="1"/>
        <pt x="1493" y="1023" on="1"/>
        <pt x="1493" y="732" on="1"/>
        <pt x="1386" y="732" on="1"/>
        <pt x="1386" y="636" on="1"/>
        <pt x="1493" y="636" on="1"/>
        <pt x="1493" y="345" on="1"/>
        <pt x="1386" y="345" on="1"/>
        <pt x="1386" y="249" on="1"/>
        <pt x="1493" y="249" on="1"/>
        <pt x="1493" y="-42" on="1"/>
        <pt x="1386" y="-42" on="1"/>
        <pt x="1386" y="-136" on="1"/>
        <pt x="1493" y="-136" on="1"/>
        <pt x="1493" y="-427" on="1"/>
        <pt x="1386" y="-427" on="1"/>
        <pt x="1386" y="-523" on="1"/>
        <pt x="1493" y="-523" on="1"/>
      </contour>
      <contour>
        <pt x="106" y="1119" on="1"/>
        <pt x="106" y="1023" on="1"/>
        <pt x="213" y="1023" on="1"/>
        <pt x="213" y="1119" on="1"/>
      </contour>
      <contour>
        <pt x="319" y="1119" on="1"/>
        <pt x="319" y="1023" on="1"/>
        <pt x="426" y="1023" on="1"/>
        <pt x="426" y="1119" on="1"/>
      </contour>
      <contour>
        <pt x="532" y="1119" on="1"/>
        <pt x="532" y="1023" on="1"/>
        <pt x="639" y="1023" on="1"/>
        <pt x="639" y="1119" on="1"/>
      </contour>
      <contour>
        <pt x="746" y="1119" on="1"/>
        <pt x="746" y="1023" on="1"/>
        <pt x="853" y="1023" on="1"/>
        <pt x="853" y="1119" on="1"/>
      </contour>
      <contour>
        <pt x="960" y="927" on="1"/>
        <pt x="853" y="927" on="1"/>
        <pt x="853" y="829" on="1"/>
        <pt x="960" y="829" on="1"/>
      </contour>
      <contour>
        <pt x="746" y="927" on="1"/>
        <pt x="639" y="927" on="1"/>
        <pt x="639" y="829" on="1"/>
        <pt x="746" y="829" on="1"/>
      </contour>
      <contour>
        <pt x="532" y="927" on="1"/>
        <pt x="426" y="927" on="1"/>
        <pt x="426" y="829" on="1"/>
        <pt x="532" y="829" on="1"/>
      </contour>
      <contour>
        <pt x="319" y="927" on="1"/>
        <pt x="213" y="927" on="1"/>
        <pt x="213" y="829" on="1"/>
        <pt x="319" y="829" on="1"/>
      </contour>
      <contour>
        <pt x="106" y="732" on="1"/>
        <pt x="106" y="636" on="1"/>
        <pt x="213" y="636" on="1"/>
        <pt x="213" y="732" on="1"/>
      </contour>
      <contour>
        <pt x="319" y="732" on="1"/>
        <pt x="319" y="636" on="1"/>
        <pt x="426" y="636" on="1"/>
        <pt x="426" y="732" on="1"/>
      </contour>
      <contour>
        <pt x="532" y="732" on="1"/>
        <pt x="532" y="636" on="1"/>
        <pt x="639" y="636" on="1"/>
        <pt x="639" y="732" on="1"/>
      </contour>
      <contour>
        <pt x="746" y="732" on="1"/>
        <pt x="746" y="636" on="1"/>
        <pt x="853" y="636" on="1"/>
        <pt x="853" y="732" on="1"/>
      </contour>
      <contour>
        <pt x="319" y="540" on="1"/>
        <pt x="213" y="540" on="1"/>
        <pt x="213" y="444" on="1"/>
        <pt x="319" y="444" on="1"/>
      </contour>
      <contour>
        <pt x="426" y="540" on="1"/>
        <pt x="426" y="444" on="1"/>
        <pt x="532" y="444" on="1"/>
        <pt x="532" y="540" on="1"/>
      </contour>
      <contour>
        <pt x="639" y="540" on="1"/>
        <pt x="639" y="444" on="1"/>
        <pt x="746" y="444" on="1"/>
        <pt x="746" y="540" on="1"/>
      </contour>
      <contour>
        <pt x="853" y="540" on="1"/>
        <pt x="853" y="444" on="1"/>
        <pt x="960" y="444" on="1"/>
        <pt x="960" y="540" on="1"/>
      </contour>
      <contour>
        <pt x="106" y="345" on="1"/>
        <pt x="106" y="249" on="1"/>
        <pt x="213" y="249" on="1"/>
        <pt x="213" y="345" on="1"/>
      </contour>
      <contour>
        <pt x="532" y="345" on="1"/>
        <pt x="532" y="249" on="1"/>
        <pt x="639" y="249" on="1"/>
        <pt x="639" y="345" on="1"/>
      </contour>
      <contour>
        <pt x="426" y="249" on="1"/>
        <pt x="426" y="345" on="1"/>
        <pt x="319" y="345" on="1"/>
        <pt x="319" y="249" on="1"/>
      </contour>
      <contour>
        <pt x="746" y="345" on="1"/>
        <pt x="746" y="249" on="1"/>
        <pt x="853" y="249" on="1"/>
        <pt x="853" y="345" on="1"/>
      </contour>
      <contour>
        <pt x="960" y="56" on="1"/>
        <pt x="960" y="153" on="1"/>
        <pt x="853" y="153" on="1"/>
        <pt x="853" y="56" on="1"/>
      </contour>
      <contour>
        <pt x="746" y="56" on="1"/>
        <pt x="746" y="153" on="1"/>
        <pt x="639" y="153" on="1"/>
        <pt x="639" y="56" on="1"/>
      </contour>
      <contour>
        <pt x="532" y="56" on="1"/>
        <pt x="532" y="153" on="1"/>
        <pt x="426" y="153" on="1"/>
        <pt x="426" y="56" on="1"/>
      </contour>
      <contour>
        <pt x="319" y="56" on="1"/>
        <pt x="319" y="153" on="1"/>
        <pt x="213" y="153" on="1"/>
        <pt x="213" y="56" on="1"/>
      </contour>
      <contour>
        <pt x="106" y="-42" on="1"/>
        <pt x="106" y="-136" on="1"/>
        <pt x="213" y="-136" on="1"/>
        <pt x="213" y="-42" on="1"/>
      </contour>
      <contour>
        <pt x="319" y="-42" on="1"/>
        <pt x="319" y="-136" on="1"/>
        <pt x="426" y="-136" on="1"/>
        <pt x="426" y="-42" on="1"/>
      </contour>
      <contour>
        <pt x="532" y="-42" on="1"/>
        <pt x="532" y="-136" on="1"/>
        <pt x="639" y="-136" on="1"/>
        <pt x="639" y="-42" on="1"/>
      </contour>
      <contour>
        <pt x="746" y="-42" on="1"/>
        <pt x="746" y="-136" on="1"/>
        <pt x="853" y="-136" on="1"/>
        <pt x="853" y="-42" on="1"/>
      </contour>
      <contour>
        <pt x="960" y="-331" on="1"/>
        <pt x="960" y="-234" on="1"/>
        <pt x="853" y="-234" on="1"/>
        <pt x="853" y="-331" on="1"/>
      </contour>
      <contour>
        <pt x="746" y="-331" on="1"/>
        <pt x="746" y="-234" on="1"/>
        <pt x="639" y="-234" on="1"/>
        <pt x="639" y="-331" on="1"/>
      </contour>
      <contour>
        <pt x="532" y="-331" on="1"/>
        <pt x="532" y="-234" on="1"/>
        <pt x="426" y="-234" on="1"/>
        <pt x="426" y="-331" on="1"/>
      </contour>
      <contour>
        <pt x="319" y="-331" on="1"/>
        <pt x="319" y="-234" on="1"/>
        <pt x="213" y="-234" on="1"/>
        <pt x="213" y="-331" on="1"/>
      </contour>
      <contour>
        <pt x="106" y="-427" on="1"/>
        <pt x="106" y="-523" on="1"/>
        <pt x="213" y="-523" on="1"/>
        <pt x="213" y="-427" on="1"/>
      </contour>
      <contour>
        <pt x="319" y="-427" on="1"/>
        <pt x="319" y="-523" on="1"/>
        <pt x="426" y="-523" on="1"/>
        <pt x="426" y="-427" on="1"/>
      </contour>
      <contour>
        <pt x="532" y="-427" on="1"/>
        <pt x="532" y="-523" on="1"/>
        <pt x="639" y="-523" on="1"/>
        <pt x="639" y="-427" on="1"/>
      </contour>
      <contour>
        <pt x="746" y="-427" on="1"/>
        <pt x="746" y="-523" on="1"/>
        <pt x="853" y="-523" on="1"/>
        <pt x="853" y="-427" on="1"/>
      </contour>
      <contour>
        <pt x="960" y="1314" on="1"/>
        <pt x="853" y="1314" on="1"/>
        <pt x="853" y="1216" on="1"/>
        <pt x="960" y="1216" on="1"/>
      </contour>
      <contour>
        <pt x="746" y="1314" on="1"/>
        <pt x="639" y="1314" on="1"/>
        <pt x="639" y="1216" on="1"/>
        <pt x="746" y="1216" on="1"/>
      </contour>
      <contour>
        <pt x="532" y="1314" on="1"/>
        <pt x="426" y="1314" on="1"/>
        <pt x="426" y="1216" on="1"/>
        <pt x="532" y="1216" on="1"/>
      </contour>
      <contour>
        <pt x="319" y="1314" on="1"/>
        <pt x="213" y="1314" on="1"/>
        <pt x="213" y="1216" on="1"/>
        <pt x="319" y="1216" on="1"/>
      </contour>
      <contour>
        <pt x="853" y="1506" on="1"/>
        <pt x="746" y="1506" on="1"/>
        <pt x="746" y="1408" on="1"/>
        <pt x="853" y="1408" on="1"/>
      </contour>
      <contour>
        <pt x="639" y="1506" on="1"/>
        <pt x="532" y="1506" on="1"/>
        <pt x="532" y="1408" on="1"/>
        <pt x="639" y="1408" on="1"/>
      </contour>
      <contour>
        <pt x="426" y="1506" on="1"/>
        <pt x="319" y="1506" on="1"/>
        <pt x="319" y="1408" on="1"/>
        <pt x="426" y="1408" on="1"/>
      </contour>
      <contour>
        <pt x="213" y="1506" on="1"/>
        <pt x="106" y="1506" on="1"/>
        <pt x="106" y="1408" on="1"/>
        <pt x="213" y="1408" on="1"/>
      </contour>
      <contour>
        <pt x="960" y="1119" on="1"/>
        <pt x="960" y="1023" on="1"/>
        <pt x="1067" y="1023" on="1"/>
        <pt x="1067" y="1119" on="1"/>
      </contour>
      <contour>
        <pt x="1173" y="1119" on="1"/>
        <pt x="1173" y="1023" on="1"/>
        <pt x="1280" y="1023" on="1"/>
        <pt x="1280" y="1119" on="1"/>
      </contour>
      <contour>
        <pt x="1386" y="927" on="1"/>
        <pt x="1280" y="927" on="1"/>
        <pt x="1280" y="829" on="1"/>
        <pt x="1386" y="829" on="1"/>
      </contour>
      <contour>
        <pt x="1173" y="927" on="1"/>
        <pt x="1067" y="927" on="1"/>
        <pt x="1067" y="829" on="1"/>
        <pt x="1173" y="829" on="1"/>
      </contour>
      <contour>
        <pt x="960" y="732" on="1"/>
        <pt x="960" y="636" on="1"/>
        <pt x="1067" y="636" on="1"/>
        <pt x="1067" y="732" on="1"/>
      </contour>
      <contour>
        <pt x="1173" y="732" on="1"/>
        <pt x="1173" y="636" on="1"/>
        <pt x="1280" y="636" on="1"/>
        <pt x="1280" y="732" on="1"/>
      </contour>
      <contour>
        <pt x="1173" y="540" on="1"/>
        <pt x="1067" y="540" on="1"/>
        <pt x="1067" y="444" on="1"/>
        <pt x="1173" y="444" on="1"/>
      </contour>
      <contour>
        <pt x="1280" y="540" on="1"/>
        <pt x="1280" y="444" on="1"/>
        <pt x="1386" y="444" on="1"/>
        <pt x="1386" y="540" on="1"/>
      </contour>
      <contour>
        <pt x="960" y="345" on="1"/>
        <pt x="960" y="249" on="1"/>
        <pt x="1067" y="249" on="1"/>
        <pt x="1067" y="345" on="1"/>
      </contour>
      <contour>
        <pt x="1280" y="249" on="1"/>
        <pt x="1280" y="345" on="1"/>
        <pt x="1173" y="345" on="1"/>
        <pt x="1173" y="249" on="1"/>
      </contour>
      <contour>
        <pt x="1386" y="56" on="1"/>
        <pt x="1386" y="153" on="1"/>
        <pt x="1280" y="153" on="1"/>
        <pt x="1280" y="56" on="1"/>
      </contour>
      <contour>
        <pt x="1173" y="56" on="1"/>
        <pt x="1173" y="153" on="1"/>
        <pt x="1067" y="153" on="1"/>
        <pt x="1067" y="56" on="1"/>
      </contour>
      <contour>
        <pt x="960" y="-42" on="1"/>
        <pt x="960" y="-136" on="1"/>
        <pt x="1067" y="-136" on="1"/>
        <pt x="1067" y="-42" on="1"/>
      </contour>
      <contour>
        <pt x="1173" y="-42" on="1"/>
        <pt x="1173" y="-136" on="1"/>
        <pt x="1280" y="-136" on="1"/>
        <pt x="1280" y="-42" on="1"/>
      </contour>
      <contour>
        <pt x="1386" y="-331" on="1"/>
        <pt x="1386" y="-234" on="1"/>
        <pt x="1280" y="-234" on="1"/>
        <pt x="1280" y="-331" on="1"/>
      </contour>
      <contour>
        <pt x="1173" y="-331" on="1"/>
        <pt x="1173" y="-234" on="1"/>
        <pt x="1067" y="-234" on="1"/>
        <pt x="1067" y="-331" on="1"/>
      </contour>
      <contour>
        <pt x="960" y="-427" on="1"/>
        <pt x="960" y="-523" on="1"/>
        <pt x="1067" y="-523" on="1"/>
        <pt x="1067" y="-427" on="1"/>
      </contour>
      <contour>
        <pt x="1173" y="-427" on="1"/>
        <pt x="1173" y="-523" on="1"/>
        <pt x="1280" y="-523" on="1"/>
        <pt x="1280" y="-427" on="1"/>
      </contour>
      <contour>
        <pt x="1386" y="1314" on="1"/>
        <pt x="1280" y="1314" on="1"/>
        <pt x="1280" y="1216" on="1"/>
        <pt x="1386" y="1216" on="1"/>
      </contour>
      <contour>
        <pt x="1173" y="1314" on="1"/>
        <pt x="1067" y="1314" on="1"/>
        <pt x="1067" y="1216" on="1"/>
        <pt x="1173" y="1216" on="1"/>
      </contour>
      <contour>
        <pt x="1280" y="1506" on="1"/>
        <pt x="1173" y="1506" on="1"/>
        <pt x="1173" y="1408" on="1"/>
        <pt x="1280" y="1408" on="1"/>
      </contour>
      <contour>
        <pt x="1067" y="1506" on="1"/>
        <pt x="960" y="1506" on="1"/>
        <pt x="960" y="1408" on="1"/>
        <pt x="1067" y="1408" on="1"/>
      </contour>
    </TTGlyph>
    <TTGlyph name="dnblock" xMin="0" yMin="-621" xMax="1451" yMax="621">
      <contour>
        <pt x="1451" y="-621" on="1"/>
        <pt x="0" y="-621" on="1"/>
        <pt x="0" y="621" on="1"/>
        <pt x="1451" y="621" on="1"/>
      </contour>
    </TTGlyph>
</ttFont>
